<svg xmlns="http://www.w3.org/2000/svg" xmlns:xlink="http://www.w3.org/1999/xlink" viewBox="0 0 1918 499"><defs><style>.cls-1{isolation:isolate;}.cls-10,.cls-100,.cls-101,.cls-102,.cls-103,.cls-11,.cls-12,.cls-13,.cls-14,.cls-15,.cls-16,.cls-17,.cls-18,.cls-19,.cls-2,.cls-20,.cls-21,.cls-22,.cls-23,.cls-24,.cls-25,.cls-26,.cls-27,.cls-28,.cls-29,.cls-3,.cls-30,.cls-31,.cls-32,.cls-33,.cls-34,.cls-35,.cls-36,.cls-37,.cls-38,.cls-39,.cls-4,.cls-40,.cls-41,.cls-42,.cls-43,.cls-44,.cls-45,.cls-46,.cls-47,.cls-48,.cls-49,.cls-5,.cls-50,.cls-51,.cls-52,.cls-53,.cls-54,.cls-55,.cls-56,.cls-57,.cls-58,.cls-59,.cls-6,.cls-60,.cls-61,.cls-62,.cls-63,.cls-64,.cls-65,.cls-66,.cls-67,.cls-68,.cls-69,.cls-7,.cls-70,.cls-71,.cls-72,.cls-73,.cls-74,.cls-75,.cls-76,.cls-77,.cls-78,.cls-79,.cls-8,.cls-80,.cls-81,.cls-82,.cls-83,.cls-84,.cls-85,.cls-86,.cls-88,.cls-89,.cls-9,.cls-90,.cls-91,.cls-92,.cls-93,.cls-94,.cls-95,.cls-96,.cls-97,.cls-98,.cls-99{fill-rule:evenodd;}.cls-2{fill:url(#Áåçûìÿííûé_ãðàäèåíò_12);}.cls-3{fill:url(#Áåçûìÿííûé_ãðàäèåíò_21);}.cls-4{fill:url(#Áåçûìÿííûé_ãðàäèåíò_21-2);}.cls-5{fill:url(#Áåçûìÿííûé_ãðàäèåíò_21-3);}.cls-6{fill:url(#Áåçûìÿííûé_ãðàäèåíò_21-4);}.cls-7{fill:url(#Áåçûìÿííûé_ãðàäèåíò_21-5);}.cls-8{fill:url(#Áåçûìÿííûé_ãðàäèåíò_21-6);}.cls-9{fill:url(#Áåçûìÿííûé_ãðàäèåíò_21-7);}.cls-10{fill:url(#Áåçûìÿííûé_ãðàäèåíò_21-8);}.cls-11{fill:url(#Áåçûìÿííûé_ãðàäèåíò_21-9);}.cls-12{fill:url(#Áåçûìÿííûé_ãðàäèåíò_21-10);}.cls-13{fill:url(#Áåçûìÿííûé_ãðàäèåíò_23);}.cls-14{fill:url(#Áåçûìÿííûé_ãðàäèåíò_21-11);}.cls-15{fill:url(#Áåçûìÿííûé_ãðàäèåíò_21-12);}.cls-16{fill:url(#Áåçûìÿííûé_ãðàäèåíò_21-13);}.cls-17{fill:url(#Áåçûìÿííûé_ãðàäèåíò_21-14);}.cls-18{fill:url(#Áåçûìÿííûé_ãðàäèåíò_21-15);}.cls-19{fill:url(#Áåçûìÿííûé_ãðàäèåíò_21-16);}.cls-20{fill:url(#Áåçûìÿííûé_ãðàäèåíò_21-17);}.cls-21{fill:url(#Áåçûìÿííûé_ãðàäèåíò_21-18);}.cls-22{fill:url(#Áåçûìÿííûé_ãðàäèåíò_21-19);}.cls-23{fill:url(#Áåçûìÿííûé_ãðàäèåíò_21-20);}.cls-24{fill:url(#Áåçûìÿííûé_ãðàäèåíò_21-21);}.cls-25{fill:url(#Áåçûìÿííûé_ãðàäèåíò_23-2);}.cls-26{fill:url(#Áåçûìÿííûé_ãðàäèåíò_21-22);}.cls-27{fill:url(#Áåçûìÿííûé_ãðàäèåíò_23-3);}.cls-28{fill:url(#Áåçûìÿííûé_ãðàäèåíò_21-23);}.cls-29{fill:url(#Áåçûìÿííûé_ãðàäèåíò_21-24);}.cls-30{fill:url(#Áåçûìÿííûé_ãðàäèåíò_23-4);}.cls-31{fill:url(#Áåçûìÿííûé_ãðàäèåíò_51);}.cls-32{fill:url(#Áåçûìÿííûé_ãðàäèåíò_51-2);}.cls-102,.cls-103,.cls-107,.cls-33,.cls-45,.cls-46,.cls-48,.cls-58,.cls-59,.cls-60,.cls-61,.cls-71,.cls-72,.cls-73,.cls-74,.cls-77,.cls-78,.cls-83,.cls-84,.cls-85,.cls-91,.cls-93,.cls-94,.cls-96,.cls-97,.cls-98{opacity:0.5;}.cls-107,.cls-110,.cls-33,.cls-34,.cls-35,.cls-36,.cls-37,.cls-44,.cls-45,.cls-46,.cls-48,.cls-49,.cls-52,.cls-53,.cls-55,.cls-56,.cls-57,.cls-58,.cls-59,.cls-60,.cls-61,.cls-64,.cls-68,.cls-69,.cls-71,.cls-72,.cls-73,.cls-74,.cls-77,.cls-78,.cls-82,.cls-83,.cls-84,.cls-85,.cls-93,.cls-94,.cls-96{mix-blend-mode:multiply;}.cls-33{fill:url(#Áåçûìÿííûé_ãðàäèåíò_149);}.cls-34,.cls-35,.cls-36,.cls-37,.cls-44,.cls-49,.cls-50,.cls-51,.cls-54{opacity:0.3;}.cls-34{fill:url(#Áåçûìÿííûé_ãðàäèåíò_149-2);}.cls-35{fill:url(#Áåçûìÿííûé_ãðàäèåíò_149-3);}.cls-36{fill:url(#Áåçûìÿííûé_ãðàäèåíò_149-4);}.cls-37{fill:url(#Áåçûìÿííûé_ãðàäèåíò_149-5);}.cls-38{fill:url(#Áåçûìÿííûé_ãðàäèåíò_11);}.cls-39{fill:url(#Áåçûìÿííûé_ãðàäèåíò_11-2);}.cls-40{fill:url(#Áåçûìÿííûé_ãðàäèåíò_11-3);}.cls-41{fill:url(#Áåçûìÿííûé_ãðàäèåíò_11-4);}.cls-42{fill:url(#Áåçûìÿííûé_ãðàäèåíò_11-5);}.cls-43{fill:url(#Áåçûìÿííûé_ãðàäèåíò_51-3);}.cls-44{fill:url(#Áåçûìÿííûé_ãðàäèåíò_149-6);}.cls-45{fill:url(#Áåçûìÿííûé_ãðàäèåíò_149-7);}.cls-46{fill:url(#Áåçûìÿííûé_ãðàäèåíò_149-8);}.cls-47{fill:url(#Áåçûìÿííûé_ãðàäèåíò_51-4);}.cls-48{fill:url(#Áåçûìÿííûé_ãðàäèåíò_149-9);}.cls-49{fill:url(#Áåçûìÿííûé_ãðàäèåíò_149-10);}.cls-100,.cls-101,.cls-102,.cls-103,.cls-50,.cls-51,.cls-54,.cls-91,.cls-97,.cls-98,.cls-99{mix-blend-mode:screen;}.cls-50{fill:url(#Áåçûìÿííûé_ãðàäèåíò_51-5);}.cls-51{fill:url(#Áåçûìÿííûé_ãðàäèåíò_51-6);}.cls-110,.cls-52,.cls-53,.cls-55,.cls-56,.cls-57,.cls-64,.cls-68,.cls-69,.cls-82{opacity:0.15;}.cls-52{fill:url(#Áåçûìÿííûé_ãðàäèåíò_149-11);}.cls-53{fill:url(#Áåçûìÿííûé_ãðàäèåíò_149-12);}.cls-54{fill:url(#Áåçûìÿííûé_ãðàäèåíò_51-7);}.cls-55{fill:url(#Áåçûìÿííûé_ãðàäèåíò_149-13);}.cls-56{fill:url(#Áåçûìÿííûé_ãðàäèåíò_149-14);}.cls-57{fill:url(#Áåçûìÿííûé_ãðàäèåíò_149-15);}.cls-58{fill:url(#Áåçûìÿííûé_ãðàäèåíò_149-16);}.cls-59{fill:url(#Áåçûìÿííûé_ãðàäèåíò_149-17);}.cls-60{fill:url(#Áåçûìÿííûé_ãðàäèåíò_149-18);}.cls-61{fill:url(#Áåçûìÿííûé_ãðàäèåíò_149-19);}.cls-62{fill:url(#Áåçûìÿííûé_ãðàäèåíò_10);}.cls-63{fill:url(#Áåçûìÿííûé_ãðàäèåíò_51-8);}.cls-64{fill:url(#Áåçûìÿííûé_ãðàäèåíò_149-20);}.cls-65{fill:url(#Áåçûìÿííûé_ãðàäèåíò_11-6);}.cls-66{fill:url(#Áåçûìÿííûé_ãðàäèåíò_51-9);}.cls-67{fill:url(#Áåçûìÿííûé_ãðàäèåíò_51-10);}.cls-68{fill:url(#Áåçûìÿííûé_ãðàäèåíò_149-21);}.cls-69{fill:url(#Áåçûìÿííûé_ãðàäèåíò_149-22);}.cls-70{fill:url(#Áåçûìÿííûé_ãðàäèåíò_11-7);}.cls-71{fill:url(#Áåçûìÿííûé_ãðàäèåíò_149-23);}.cls-72{fill:url(#Áåçûìÿííûé_ãðàäèåíò_149-24);}.cls-73{fill:url(#Áåçûìÿííûé_ãðàäèåíò_149-25);}.cls-74{fill:url(#Áåçûìÿííûé_ãðàäèåíò_149-26);}.cls-75{fill:url(#Áåçûìÿííûé_ãðàäèåíò_11-8);}.cls-76{fill:url(#Áåçûìÿííûé_ãðàäèåíò_11-9);}.cls-77{fill:url(#Áåçûìÿííûé_ãðàäèåíò_149-27);}.cls-78{fill:url(#Áåçûìÿííûé_ãðàäèåíò_149-28);}.cls-79{fill:url(#Áåçûìÿííûé_ãðàäèåíò_11-10);}.cls-80{fill:url(#Áåçûìÿííûé_ãðàäèåíò_11-11);}.cls-81{fill:url(#Áåçûìÿííûé_ãðàäèåíò_51-11);}.cls-82{fill:url(#Áåçûìÿííûé_ãðàäèåíò_149-29);}.cls-83{fill:url(#Áåçûìÿííûé_ãðàäèåíò_149-30);}.cls-84{fill:url(#Áåçûìÿííûé_ãðàäèåíò_149-31);}.cls-85{fill:url(#Áåçûìÿííûé_ãðàäèåíò_149-32);}.cls-86{fill:url(#Áåçûìÿííûé_ãðàäèåíò_21-25);}.cls-87{fill:url(#Áåçûìÿííûé_ãðàäèåíò_51-12);}.cls-88{fill:url(#Áåçûìÿííûé_ãðàäèåíò_33);}.cls-89{fill:url(#Áåçûìÿííûé_ãðàäèåíò_33-2);}.cls-90{fill:url(#Áåçûìÿííûé_ãðàäèåíò_33-3);}.cls-91{fill:url(#Áåçûìÿííûé_ãðàäèåíò_100);}.cls-92{fill:url(#Áåçûìÿííûé_ãðàäèåíò_33-4);}.cls-93{fill:url(#Áåçûìÿííûé_ãðàäèåíò_18);}.cls-94{fill:url(#Áåçûìÿííûé_ãðàäèåíò_18-2);}.cls-95{fill:#84fff4;}.cls-96{fill:url(#Áåçûìÿííûé_ãðàäèåíò_18-3);}.cls-97{fill:url(#Áåçûìÿííûé_ãðàäèåíò_202);}.cls-98{fill:url(#Áåçûìÿííûé_ãðàäèåíò_202-2);}.cls-100,.cls-101,.cls-99{opacity:0.6;}.cls-99{fill:url(#Áåçûìÿííûé_ãðàäèåíò_479);}.cls-100{fill:url(#Áåçûìÿííûé_ãðàäèåíò_479-2);}.cls-101{fill:url(#Áåçûìÿííûé_ãðàäèåíò_479-3);}.cls-102{fill:url(#Áåçûìÿííûé_ãðàäèåíò_205);}.cls-103{fill:url(#Áåçûìÿííûé_ãðàäèåíò_205-2);}.cls-104{fill:url(#Áåçûìÿííûé_ãðàäèåíò_51-13);}.cls-105{fill:url(#Áåçûìÿííûé_ãðàäèåíò_51-14);}.cls-106{fill:url(#Áåçûìÿííûé_ãðàäèåíò_11-12);}.cls-107{fill:#b83d64;}.cls-108{fill:url(#Áåçûìÿííûé_ãðàäèåíò_37);}.cls-109{fill:url(#Áåçûìÿííûé_ãðàäèåíò_11-13);}.cls-110{fill:url(#Áåçûìÿííûé_ãðàäèåíò_149-33);}</style><linearGradient id="Áåçûìÿííûé_ãðàäèåíò_12" x1="959.02" y1="379.27" x2="959.02" y2="507.73" gradientUnits="userSpaceOnUse"><stop offset="0" stop-color="#271221"/><stop offset="1" stop-color="#431920"/></linearGradient><linearGradient id="Áåçûìÿííûé_ãðàäèåíò_21" x1="56.25" y1="519.39" x2="89.58" y2="488.21" gradientUnits="userSpaceOnUse"><stop offset="0" stop-color="#42203e"/><stop offset="1" stop-color="#602433"/></linearGradient><linearGradient id="Áåçûìÿííûé_ãðàäèåíò_21-2" x1="182.8" y1="497.89" x2="198.96" y2="482.77" xlink:href="#Áåçûìÿííûé_ãðàäèåíò_21"/><linearGradient id="Áåçûìÿííûé_ãðàäèåíò_21-3" x1="233.19" y1="545.14" x2="274.16" y2="506.81" xlink:href="#Áåçûìÿííûé_ãðàäèåíò_21"/><linearGradient id="Áåçûìÿííûé_ãðàäèåíò_21-4" x1="371.5" y1="514.68" x2="388.55" y2="498.73" xlink:href="#Áåçûìÿííûé_ãðàäèåíò_21"/><linearGradient id="Áåçûìÿííûé_ãðàäèåíò_21-5" x1="501.99" y1="647.71" x2="462.71" y2="290.49" xlink:href="#Áåçûìÿííûé_ãðàäèåíò_21"/><linearGradient id="Áåçûìÿííûé_ãðàäèåíò_21-6" x1="561.72" y1="642.68" x2="522.09" y2="282.29" xlink:href="#Áåçûìÿííûé_ãðàäèåíò_21"/><linearGradient id="Áåçûìÿííûé_ãðàäèåíò_21-7" x1="658.2" y1="631.47" x2="619.01" y2="275.05" xlink:href="#Áåçûìÿííûé_ãðàäèåíò_21"/><linearGradient id="Áåçûìÿííûé_ãðàäèåíò_21-8" x1="683.21" y1="524.94" x2="707.92" y2="501.83" xlink:href="#Áåçûìÿííûé_ãðàäèåíò_21"/><linearGradient id="Áåçûìÿííûé_ãðàäèåíò_21-9" x1="836.32" y1="613.83" x2="796.96" y2="255.94" xlink:href="#Áåçûìÿííûé_ãðàäèåíò_21"/><linearGradient id="Áåçûìÿííûé_ãðàäèåíò_21-10" x1="860.21" y1="512.73" x2="892.15" y2="482.85" xlink:href="#Áåçûìÿííûé_ãðàäèåíò_21"/><linearGradient id="Áåçûìÿííûé_ãðàäèåíò_23" x1="568.44" y1="458.98" x2="587" y2="441.62" gradientUnits="userSpaceOnUse"><stop offset="0" stop-color="#4f284a"/><stop offset="1" stop-color="#6d2b3b"/></linearGradient><linearGradient id="Áåçûìÿííûé_ãðàäèåíò_21-11" x1="685.93" y1="472.91" x2="697.61" y2="461.98" xlink:href="#Áåçûìÿííûé_ãðàäèåíò_21"/><linearGradient id="Áåçûìÿííûé_ãðàäèåíò_21-12" x1="1039.38" y1="533.79" x2="1074.5" y2="500.93" xlink:href="#Áåçûìÿííûé_ãðàäèåíò_21"/><linearGradient id="Áåçûìÿííûé_ãðàäèåíò_21-13" x1="1162.02" y1="500.05" x2="1175.4" y2="487.53" xlink:href="#Áåçûìÿííûé_ãðàäèåíò_21"/><linearGradient id="Áåçûìÿííûé_ãðàäèåíò_21-14" x1="1213.29" y1="547.61" x2="1251.35" y2="512" xlink:href="#Áåçûìÿííûé_ãðàäèåíò_21"/><linearGradient id="Áåçûìÿííûé_ãðàäèåíò_21-15" x1="1354.19" y1="515.65" x2="1367.48" y2="503.22" xlink:href="#Áåçûìÿííûé_ãðàäèåíò_21"/><linearGradient id="Áåçûìÿííûé_ãðàäèåíò_21-16" x1="1439.5" y1="695.82" x2="1480.07" y2="202.75" xlink:href="#Áåçûìÿííûé_ãðàäèåíò_21"/><linearGradient id="Áåçûìÿííûé_ãðàäèåíò_21-17" x1="1506.42" y1="504.66" x2="1517.1" y2="494.67" xlink:href="#Áåçûìÿííûé_ãðàäèåíò_21"/><linearGradient id="Áåçûìÿííûé_ãðàäèåíò_21-18" x1="1600.68" y1="707.2" x2="1641.05" y2="216.64" xlink:href="#Áåçûìÿííûé_ãðàäèåíò_21"/><linearGradient id="Áåçûìÿííûé_ãðàäèåíò_21-19" x1="1677.7" y1="712.03" x2="1717.87" y2="223.86" xlink:href="#Áåçûìÿííûé_ãðàäèåíò_21"/><linearGradient id="Áåçûìÿííûé_ãðàäèåíò_21-20" x1="1769.57" y1="720.33" x2="1809.96" y2="229.56" xlink:href="#Áåçûìÿííûé_ãðàäèåíò_21"/><linearGradient id="Áåçûìÿííûé_ãðàäèåíò_21-21" x1="1832.47" y1="508.61" x2="1864.12" y2="479" xlink:href="#Áåçûìÿííûé_ãðàäèåíò_21"/><linearGradient id="Áåçûìÿííûé_ãðàäèåíò_23-2" x1="1543.58" y1="470.71" x2="1562.14" y2="453.35" xlink:href="#Áåçûìÿííûé_ãðàäèåíò_23"/><linearGradient id="Áåçûìÿííûé_ãðàäèåíò_21-22" x1="1368.01" y1="481.12" x2="1379.69" y2="470.19" xlink:href="#Áåçûìÿííûé_ãðàäèåíò_21"/><linearGradient id="Áåçûìÿííûé_ãðàäèåíò_23-3" x1="1079.29" y1="555.95" x2="1100.49" y2="444.78" xlink:href="#Áåçûìÿííûé_ãðàäèåíò_23"/><linearGradient id="Áåçûìÿííûé_ãðàäèåíò_21-23" x1="998.94" y1="544.34" x2="1020.5" y2="431.22" xlink:href="#Áåçûìÿííûé_ãðàäèåíò_21"/><linearGradient id="Áåçûìÿííûé_ãðàäèåíò_21-24" x1="1228.17" y1="466.88" x2="1237.67" y2="457.99" xlink:href="#Áåçûìÿííûé_ãðàäèåíò_21"/><linearGradient id="Áåçûìÿííûé_ãðàäèåíò_23-4" x1="1183.65" y1="575.51" x2="1205.01" y2="463.5" xlink:href="#Áåçûìÿííûé_ãðàäèåíò_23"/><linearGradient id="Áåçûìÿííûé_ãðàäèåíò_51" x1="98.41" y1="322.15" x2="221.22" y2="358.59" gradientUnits="userSpaceOnUse"><stop offset="0" stop-color="#53d8d3"/><stop offset="1" stop-color="#0172ca"/></linearGradient><linearGradient id="Áåçûìÿííûé_ãðàäèåíò_51-2" x1="773.54" y1="98.04" x2="899.81" y2="357.06" xlink:href="#Áåçûìÿííûé_ãðàäèåíò_51"/><linearGradient id="Áåçûìÿííûé_ãðàäèåíò_149" x1="562.81" y1="307.97" x2="880.52" y2="354.88" gradientUnits="userSpaceOnUse"><stop offset="0" stop-color="#c37cba"/><stop offset="1" stop-color="#944577"/></linearGradient><linearGradient id="Áåçûìÿííûé_ãðàäèåíò_149-2" x1="951.91" y1="151.61" x2="988.59" y2="284.08" xlink:href="#Áåçûìÿííûé_ãðàäèåíò_149"/><linearGradient id="Áåçûìÿííûé_ãðàäèåíò_149-3" x1="808.93" y1="301.29" x2="814.12" y2="320.01" xlink:href="#Áåçûìÿííûé_ãðàäèåíò_149"/><linearGradient id="Áåçûìÿííûé_ãðàäèåíò_149-4" x1="1076.12" y1="273.94" x2="1089.94" y2="323.86" xlink:href="#Áåçûìÿííûé_ãðàäèåíò_149"/><linearGradient id="Áåçûìÿííûé_ãðàäèåíò_149-5" x1="857.41" y1="225.06" x2="865.1" y2="252.83" xlink:href="#Áåçûìÿííûé_ãðàäèåíò_149"/><linearGradient id="Áåçûìÿííûé_ãðàäèåíò_11" x1="635.07" y1="307.56" x2="670.3" y2="507.19" gradientUnits="userSpaceOnUse"><stop offset="0" stop-color="#5ff5ef"/><stop offset="1" stop-color="#0a81e8"/></linearGradient><linearGradient id="Áåçûìÿííûé_ãðàäèåíò_11-2" x1="762.73" y1="282.85" x2="802.8" y2="509.89" xlink:href="#Áåçûìÿííûé_ãðàäèåíò_11"/><linearGradient id="Áåçûìÿííûé_ãðàäèåíò_11-3" x1="820.78" y1="359.6" x2="747.17" y2="276.59" xlink:href="#Áåçûìÿííûé_ãðàäèåíò_11"/><linearGradient id="Áåçûìÿííûé_ãðàäèåíò_11-4" x1="876.38" y1="123.49" x2="1034.54" y2="694.7" xlink:href="#Áåçûìÿííûé_ãðàäèåíò_11"/><linearGradient id="Áåçûìÿííûé_ãðàäèåíò_11-5" x1="980.71" y1="89.34" x2="1188.72" y2="840.61" xlink:href="#Áåçûìÿííûé_ãðàäèåíò_11"/><linearGradient id="Áåçûìÿííûé_ãðàäèåíò_51-3" x1="600.11" y1="641.62" x2="851.3" y2="219.62" xlink:href="#Áåçûìÿííûé_ãðàäèåíò_51"/><linearGradient id="Áåçûìÿííûé_ãðàäèåíò_149-6" x1="478.41" y1="411.67" x2="478.45" y2="411.68" xlink:href="#Áåçûìÿííûé_ãðàäèåíò_149"/><linearGradient id="Áåçûìÿííûé_ãðàäèåíò_149-7" x1="472.47" y1="385.66" x2="588.07" y2="419.96" xlink:href="#Áåçûìÿííûé_ãðàäèåíò_149"/><linearGradient id="Áåçûìÿííûé_ãðàäèåíò_149-8" x1="710.22" y1="326.96" x2="1118.14" y2="447.99" xlink:href="#Áåçûìÿííûé_ãðàäèåíò_149"/><linearGradient id="Áåçûìÿííûé_ãðàäèåíò_51-4" x1="1077.39" y1="181.23" x2="1101.08" y2="234.53" xlink:href="#Áåçûìÿííûé_ãðàäèåíò_51"/><linearGradient id="Áåçûìÿííûé_ãðàäèåíò_149-9" x1="1124.91" y1="175.46" x2="1152.27" y2="274.29" xlink:href="#Áåçûìÿííûé_ãðàäèåíò_149"/><linearGradient id="Áåçûìÿííûé_ãðàäèåíò_149-10" x1="1207.01" y1="257.13" x2="1209.71" y2="266.88" xlink:href="#Áåçûìÿííûé_ãðàäèåíò_149"/><linearGradient id="Áåçûìÿííûé_ãðàäèåíò_51-5" x1="1128.23" y1="202.41" x2="1130.26" y2="267.52" xlink:href="#Áåçûìÿííûé_ãðàäèåíò_51"/><linearGradient id="Áåçûìÿííûé_ãðàäèåíò_51-6" x1="1160.18" y1="201.55" x2="1162.21" y2="266.63" xlink:href="#Áåçûìÿííûé_ãðàäèåíò_51"/><linearGradient id="Áåçûìÿííûé_ãðàäèåíò_149-11" x1="770.03" y1="375.83" x2="774.94" y2="393.56" xlink:href="#Áåçûìÿííûé_ãðàäèåíò_149"/><linearGradient id="Áåçûìÿííûé_ãðàäèåíò_149-12" x1="865.88" y1="379.11" x2="869.9" y2="393.63" xlink:href="#Áåçûìÿííûé_ãðàäèåíò_149"/><linearGradient id="Áåçûìÿííûé_ãðàäèåíò_51-7" x1="946.31" y1="353.2" x2="955.95" y2="388.04" xlink:href="#Áåçûìÿííûé_ãðàäèåíò_51"/><linearGradient id="Áåçûìÿííûé_ãðàäèåíò_149-13" x1="1035.77" y1="370.79" x2="1035.78" y2="370.84" xlink:href="#Áåçûìÿííûé_ãðàäèåíò_149"/><linearGradient id="Áåçûìÿííûé_ãðàäèåíò_149-14" x1="581.36" y1="475.54" x2="524.1" y2="384.29" xlink:href="#Áåçûìÿííûé_ãðàäèåíò_149"/><linearGradient id="Áåçûìÿííûé_ãðàäèåíò_149-15" x1="621.89" y1="457.36" x2="562.53" y2="362.75" xlink:href="#Áåçûìÿííûé_ãðàäèåíò_149"/><linearGradient id="Áåçûìÿííûé_ãðàäèåíò_149-16" x1="1084.47" y1="250.69" x2="1088.68" y2="265.9" xlink:href="#Áåçûìÿííûé_ãðàäèåíò_149"/><linearGradient id="Áåçûìÿííûé_ãðàäèåíò_149-17" x1="863.12" y1="232.86" x2="869.33" y2="255.3" xlink:href="#Áåçûìÿííûé_ãðàäèåíò_149"/><linearGradient id="Áåçûìÿííûé_ãðàäèåíò_149-18" x1="538.59" y1="363.01" x2="542.87" y2="378.46" xlink:href="#Áåçûìÿííûé_ãðàäèåíò_149"/><linearGradient id="Áåçûìÿííûé_ãðàäèåíò_149-19" x1="853.67" y1="340.36" x2="863.63" y2="376.35" xlink:href="#Áåçûìÿííûé_ãðàäèåíò_149"/><linearGradient id="Áåçûìÿííûé_ãðàäèåíò_10" x1="731.96" y1="415.08" x2="732.17" y2="414.88" gradientUnits="userSpaceOnUse"><stop offset="0" stop-color="#3d56fc"/><stop offset="1"/></linearGradient><linearGradient id="Áåçûìÿííûé_ãðàäèåíò_51-8" x1="1334.76" y1="58.26" x2="1471.76" y2="358.31" xlink:href="#Áåçûìÿííûé_ãðàäèåíò_51"/><linearGradient id="Áåçûìÿííûé_ãðàäèåíò_149-20" x1="574.06" y1="286.7" x2="600.96" y2="321.25" xlink:href="#Áåçûìÿííûé_ãðàäèåíò_149"/><linearGradient id="Áåçûìÿííûé_ãðàäèåíò_11-6" x1="164.01" y1="279.6" x2="195.17" y2="476.83" xlink:href="#Áåçûìÿííûé_ãðàäèåíò_11"/><linearGradient id="Áåçûìÿííûé_ãðàäèåíò_51-9" x1="0" y1="342.13" x2="0.06" y2="342.15" xlink:href="#Áåçûìÿííûé_ãðàäèåíò_51"/><linearGradient id="Áåçûìÿííûé_ãðàäèåíò_51-10" x1="-52.76" y1="286.2" x2="534.69" y2="460.5" xlink:href="#Áåçûìÿííûé_ãðàäèåíò_51"/><linearGradient id="Áåçûìÿííûé_ãðàäèåíò_149-21" x1="505.68" y1="452.48" x2="157.23" y2="346.88" xlink:href="#Áåçûìÿííûé_ãðàäèåíò_149"/><linearGradient id="Áåçûìÿííûé_ãðàäèåíò_149-22" x1="586.25" y1="416.86" x2="443.8" y2="373.69" xlink:href="#Áåçûìÿííûé_ãðàäèåíò_149"/><linearGradient id="Áåçûìÿííûé_ãðàäèåíò_11-7" x1="260.95" y1="197.7" x2="373.56" y2="910.44" xlink:href="#Áåçûìÿííûé_ãðàäèåíò_11"/><linearGradient id="Áåçûìÿííûé_ãðàäèåíò_149-23" x1="1074.5" y1="259.82" x2="1148.04" y2="725.29" xlink:href="#Áåçûìÿííûé_ãðàäèåíò_149"/><linearGradient id="Áåçûìÿííûé_ãðàäèåíò_149-24" x1="1457.46" y1="400.01" x2="1466.81" y2="459.24" xlink:href="#Áåçûìÿííûé_ãðàäèåíò_149"/><linearGradient id="Áåçûìÿííûé_ãðàäèåíò_149-25" x1="1484.36" y1="359.04" x2="1507.49" y2="505.44" xlink:href="#Áåçûìÿííûé_ãðàäèåíò_149"/><linearGradient id="Áåçûìÿííûé_ãðàäèåíò_149-26" x1="1476.44" y1="330.61" x2="1508.02" y2="530.5" xlink:href="#Áåçûìÿííûé_ãðàäèåíò_149"/><linearGradient id="Áåçûìÿííûé_ãðàäèåíò_11-8" x1="1398.06" y1="121.83" x2="1453.99" y2="668.06" xlink:href="#Áåçûìÿííûé_ãðàäèåíò_11"/><linearGradient id="Áåçûìÿííûé_ãðàäèåíò_11-9" x1="1273.16" y1="132.17" x2="1329.46" y2="681.96" xlink:href="#Áåçûìÿííûé_ãðàäèåíò_11"/><linearGradient id="Áåçûìÿííûé_ãðàäèåíò_149-27" x1="1584.58" y1="425.26" x2="1617.3" y2="523.79" xlink:href="#Áåçûìÿííûé_ãðàäèåíò_149"/><linearGradient id="Áåçûìÿííûé_ãðàäèåíò_149-28" x1="1750.18" y1="373.82" x2="1785.19" y2="479.28" xlink:href="#Áåçûìÿííûé_ãðàäèåíò_149"/><linearGradient id="Áåçûìÿííûé_ãðàäèåíò_11-10" x1="1692.77" y1="361.53" x2="1692.77" y2="622.49" xlink:href="#Áåçûìÿííûé_ãðàäèåíò_11"/><linearGradient id="Áåçûìÿííûé_ãðàäèåíò_11-11" x1="92.66" y1="361.53" x2="92.66" y2="622.49" xlink:href="#Áåçûìÿííûé_ãðàäèåíò_11"/><linearGradient id="Áåçûìÿííûé_ãðàäèåíò_51-11" x1="60.65" y1="574.93" x2="81.66" y2="463.25" xlink:href="#Áåçûìÿííûé_ãðàäèåíò_51"/><linearGradient id="Áåçûìÿííûé_ãðàäèåíò_149-29" x1="46.15" y1="510.08" x2="58.92" y2="442.24" xlink:href="#Áåçûìÿííûé_ãðàäèåíò_149"/><linearGradient id="Áåçûìÿííûé_ãðàäèåíò_149-30" x1="166.42" y1="341.64" x2="194.76" y2="469.73" xlink:href="#Áåçûìÿííûé_ãðàäèåíò_149"/><linearGradient id="Áåçûìÿííûé_ãðàäèåíò_149-31" x1="692.64" y1="649.81" x2="551.93" y2="425.55" xlink:href="#Áåçûìÿííûé_ãðàäèåíò_149"/><linearGradient id="Áåçûìÿííûé_ãðàäèåíò_149-32" x1="1529.05" y1="613.64" x2="1416.46" y2="434.21" xlink:href="#Áåçûìÿííûé_ãðàäèåíò_149"/><linearGradient id="Áåçûìÿííûé_ãðàäèåíò_21-25" x1="56.24" y1="531.83" x2="16.44" y2="468.4" xlink:href="#Áåçûìÿííûé_ãðàäèåíò_21"/><linearGradient id="Áåçûìÿííûé_ãðàäèåíò_51-12" x1="1360.52" y1="445.45" x2="1453.05" y2="392.68" gradientTransform="matrix(-1, 0.02, 0.02, 1, 1675.42, -3.1)" xlink:href="#Áåçûìÿííûé_ãðàäèåíò_51"/><linearGradient id="Áåçûìÿííûé_ãðàäèåíò_33" x1="1733.57" y1="863.5" x2="1871.29" y2="760.42" gradientTransform="matrix(-0.96, -0.27, -0.27, 0.96, 2087.77, -88.34)" gradientUnits="userSpaceOnUse"><stop offset="0" stop-color="#54d9d4"/><stop offset="1" stop-color="#0172cb"/></linearGradient><linearGradient id="Áåçûìÿííûé_ãðàäèåíò_33-2" x1="1636.2" y1="492.02" x2="1703.44" y2="305.53" gradientTransform="matrix(-1, -0.03, -0.03, 1, 1748.63, -92.87)" xlink:href="#Áåçûìÿííûé_ãðàäèåíò_33"/><linearGradient id="Áåçûìÿííûé_ãðàäèåíò_33-3" x1="1778.43" y1="639.86" x2="1880" y2="772.58" xlink:href="#Áåçûìÿííûé_ãðàäèåíò_33"/><radialGradient id="Áåçûìÿííûé_ãðàäèåíò_100" cx="1783.66" cy="753.48" r="62.43" gradientTransform="matrix(-0.96, -0.37, -0.27, 1.33, 2087.77, -245.8)" gradientUnits="userSpaceOnUse"><stop offset="0"/><stop offset="1" stop-color="#fff"/></radialGradient><linearGradient id="Áåçûìÿííûé_ãðàäèåíò_33-4" x1="1668.47" y1="271.66" x2="1838.8" y2="389.92" gradientTransform="matrix(-1, -0.03, -0.03, 1, 1748.63, -92.87)" xlink:href="#Áåçûìÿííûé_ãðàäèåíò_33"/><linearGradient id="Áåçûìÿííûé_ãðàäèåíò_18" x1="1774.36" y1="768.96" x2="1871.6" y2="911.48" gradientTransform="matrix(-0.96, -0.27, -0.27, 0.96, 2087.77, -88.34)" gradientUnits="userSpaceOnUse"><stop offset="0" stop-color="#c57cbb"/><stop offset="1" stop-color="#954577"/></linearGradient><linearGradient id="Áåçûìÿííûé_ãðàäèåíò_18-2" x1="1666.36" y1="352.21" x2="1731.48" y2="447.65" gradientTransform="matrix(-1, -0.03, -0.03, 1, 1748.63, -92.87)" xlink:href="#Áåçûìÿííûé_ãðàäèåíò_18"/><linearGradient id="Áåçûìÿííûé_ãðàäèåíò_18-3" x1="1723.2" y1="439.92" x2="1974.27" y2="787.96" gradientTransform="matrix(-1, -0.03, -0.03, 1, 1748.63, -92.87)" xlink:href="#Áåçûìÿííûé_ãðàäèåíò_18"/><linearGradient id="Áåçûìÿííûé_ãðàäèåíò_202" x1="1853.16" y1="634.79" x2="1807.02" y2="594.78" gradientTransform="matrix(-0.96, -0.27, -0.27, 0.96, 2087.77, -88.34)" xlink:href="#Áåçûìÿííûé_ãðàäèåíò_100"/><linearGradient id="Áåçûìÿííûé_ãðàäèåíò_202-2" x1="1519.17" y1="-9.27" x2="1447.68" y2="-71.25" gradientTransform="matrix(-0.99, 0.17, 0.17, 0.99, 1519.69, -48.08)" xlink:href="#Áåçûìÿííûé_ãðàäèåíò_100"/><linearGradient id="Áåçûìÿííûé_ãðàäèåíò_479" x1="1724.15" y1="891.54" x2="2004.05" y2="713.31" gradientTransform="matrix(-0.96, -0.27, -0.27, 0.96, 2087.77, -88.34)" gradientUnits="userSpaceOnUse"><stop offset="0" stop-color="#3d56fd"/><stop offset="1"/></linearGradient><linearGradient id="Áåçûìÿííûé_ãðàäèåíò_479-2" x1="1569.68" y1="470.67" x2="1813.28" y2="315.56" gradientTransform="matrix(-1, -0.03, -0.03, 1, 1748.63, -92.87)" xlink:href="#Áåçûìÿííûé_ãðàäèåíò_479"/><linearGradient id="Áåçûìÿííûé_ãðàäèåíò_479-3" x1="1590.89" y1="488.75" x2="1812.82" y2="347.44" gradientTransform="matrix(-1, -0.03, -0.03, 1, 1748.63, -92.87)" xlink:href="#Áåçûìÿííûé_ãðàäèåíò_479"/><linearGradient id="Áåçûìÿííûé_ãðàäèåíò_205" x1="1722.58" y1="773.83" x2="1912.73" y2="771.11" gradientTransform="matrix(-0.96, -0.27, -0.27, 0.96, 2087.77, -88.34)" gradientUnits="userSpaceOnUse"><stop offset="0" stop-color="#fd0093"/><stop offset="1"/></linearGradient><linearGradient id="Áåçûìÿííûé_ãðàäèåíò_205-2" x1="1599.34" y1="409.49" x2="1698.2" y2="352.51" gradientTransform="matrix(-1, -0.03, -0.03, 1, 1748.63, -92.87)" xlink:href="#Áåçûìÿííûé_ãðàäèåíò_205"/><linearGradient id="Áåçûìÿííûé_ãðàäèåíò_51-13" x1="1519.71" y1="252.98" x2="1743.43" y2="452.98" gradientTransform="matrix(-1, 0, 0, 1, 1688.27, 0)" xlink:href="#Áåçûìÿííûé_ãðàäèåíò_51"/><linearGradient id="Áåçûìÿííûé_ãðàäèåíò_51-14" x1="1366.06" y1="187.27" x2="1482.74" y2="414.83" gradientTransform="matrix(-1, 0, 0, 1, 1688.27, 0)" xlink:href="#Áåçûìÿííûé_ãðàäèåíò_51"/><linearGradient id="Áåçûìÿííûé_ãðàäèåíò_11-12" x1="1416.65" y1="229.83" x2="1557.49" y2="508.88" gradientTransform="matrix(-1, 0, 0, 1, 1688.27, 0)" xlink:href="#Áåçûìÿííûé_ãðàäèåíò_11"/><linearGradient id="Áåçûìÿííûé_ãðàäèåíò_37" x1="1619.9" y1="297.63" x2="1784.04" y2="511.47" gradientTransform="matrix(-1, 0, 0, 1, 1688.27, 0)" gradientUnits="userSpaceOnUse"><stop offset="0" stop-color="#5ff5ef"/><stop offset="0.94" stop-color="#0f88e8"/><stop offset="1" stop-color="#0a81e8"/></linearGradient><linearGradient id="Áåçûìÿííûé_ãðàäèåíò_11-13" x1="1525.99" y1="420.11" x2="1581.15" y2="506.39" gradientTransform="matrix(-1, 0.02, 0.02, 1, 1675.42, -3.1)" xlink:href="#Áåçûìÿííûé_ãðàäèåíò_11"/><linearGradient id="Áåçûìÿííûé_ãðàäèåíò_149-33" x1="1067.58" y1="501.28" x2="1216.9" y2="416.13" gradientTransform="matrix(-1, 0, 0, 1, 1688.27, 0)" xlink:href="#Áåçûìÿííûé_ãðàäèåíò_149"/></defs><g class="cls-1"><g id="Layer_1" data-name="Layer 1"><g id="footer"><polygon class="cls-2" points="1918 397.24 1918 499 0.05 499 0.05 368.42 1918 397.24"/><polygon class="cls-3" points="159.68 462.93 149.96 499 67.67 499 53.47 454.72 80.34 447.68 159.68 462.93"/><polygon class="cls-4" points="196.8 453.55 215.99 452.38 215.02 499 198.63 499 196.8 453.55"/><polygon class="cls-5" points="329.88 458.24 367 482.88 363.53 499 227.51 499 227.51 474.67 320.93 453.55 329.88 458.24"/><polygon class="cls-6" points="375.95 485.22 419.46 480.53 415.29 499 372.44 499 375.95 485.22"/><polygon class="cls-7" points="535.92 433.61 510.04 499 428.17 499 433.54 454.72 487.29 435.95 535.92 433.61"/><polygon class="cls-8" points="542.32 471.15 557.67 467.63 544.54 499 530.72 499 542.32 471.15"/><polygon class="cls-9" points="686.92 468.8 674.69 499 597.02 499 607.58 455.9 660.05 430.09 686.92 468.8"/><polygon class="cls-10" points="750.91 473.49 752.25 499 681.55 499 684.36 485.22 750.91 473.49"/><polygon class="cls-11" points="804.66 426.57 875.04 421.88 868.21 499 765.65 499 757.31 439.47 804.66 426.57"/><polygon class="cls-12" points="940.3 438.3 920.62 499 876.59 499 884 447.68 940.3 438.3"/><polygon class="cls-13" points="578.15 451.2 628.06 435.95 622.94 424.22 576.87 418.36 578.15 451.2"/><path class="cls-14" d="M681.8,452.38l7.68,12.9s21.76,10.56,21.76,8.21,10.24-21.11,10.24-21.11Z"/><polygon class="cls-15" points="1155.3 481.7 1159.33 499 1038.97 499 1028.61 466.45 1055.48 459.42 1155.3 481.7"/><polygon class="cls-16" points="1171.93 465.28 1191.13 464.11 1190.4 499 1173.29 499 1171.93 465.28"/><polygon class="cls-17" points="1305.02 469.97 1342.13 494.61 1341.34 499 1202.64 499 1202.64 486.4 1296.06 465.28 1305.02 469.97"/><polygon class="cls-18" points="1351.09 499 1394.6 492.26 1393.2 499 1350.77 499 1351.09 499"/><polygon class="cls-19" points="1511.05 445.34 1489.89 499 1404.75 499 1408.68 466.45 1462.42 447.68 1511.05 445.34"/><polygon class="cls-20" points="1517.45 482.88 1532.81 479.36 1524.72 499 1510.9 499 1517.45 482.88"/><polygon class="cls-21" points="1635.18 441.82 1662.06 480.53 1654.71 499 1575.09 499 1582.72 467.63 1635.18 441.82"/><polygon class="cls-22" points="1726.04 485.22 1726.75 499 1663.71 499 1690.21 434.78 1726.04 485.22"/><polygon class="cls-23" points="1852.73 430.09 1844.92 499 1739.12 499 1732.44 451.2 1782.35 434.78 1852.73 430.09"/><polygon class="cls-24" points="1912.88 435.95 1897.51 499 1852.44 499 1859.13 432.44 1912.88 435.95"/><polygon class="cls-25" points="1553.28 462.93 1603.19 447.68 1598.07 435.95 1552 430.09 1553.28 462.93"/><path class="cls-26" d="M1363.89,460.59l7.68,12.9s21.75,10.56,21.75,8.21,10.24-21.11,10.24-21.11Z"/><polygon class="cls-27" points="1067 448.86 1130.98 472.32 1136.1 414.84 1069.56 419.53 1067 448.86"/><path class="cls-28" d="M992.77,423.05l9,25.81s41,7,41,5.86,10.24-39.88,10.24-39.88Z"/><polygon class="cls-29" points="1234.64 444.17 1232.08 461.76 1239.76 465.28 1260.23 453.55 1234.64 444.17"/><polygon class="cls-30" points="1192.41 413.67 1179.61 448.86 1212.88 458.24 1243.6 408.97 1192.41 413.67"/><polygon class="cls-31" points="113.61 319.82 130.25 362.05 219.83 370.26 228.79 330.38 113.61 319.82"/><path class="cls-32" d="M1235.92,256.6l-11.76,16.56-5.69,1.2-35.6,95.81-34.11,6-10.38-1.8-84-14.53-159.59-.69-121.29-1.49L471.73,327.71l-13.2-27.43,285.92,13.29-12.52-34.9,84.72,1.9-17.36-44h0l430.1-52.18,0,.09c0,.09-.07.27-.12.52h0c-1,4-6.73,27.54-10.8,42.49-1.83,6.74-3.33,11.74-3.89,12.47C1212.6,242.42,1235.92,256.6,1235.92,256.6Z"/><polygon class="cls-33" points="536.76 311.86 535.98 340.64 700.81 360.06 701.95 355.84 712.59 316.17 722 317.61 697.41 355.43 790.9 351.59 810.48 307.91 536.76 311.86"/><polygon class="cls-34" points="839.05 240.67 844.89 283.56 902.35 294.63 884.49 353.29 842.29 351.07 854.63 338.62 747.51 336.13 738.42 349.97 1040.08 361.59 1146.55 375.43 1182.87 370.17 1217.97 274.15 1224.16 273.17 1235.91 256.6 1194.6 252.57 1214.56 239.93 1229.39 184.36 851.38 229.32 839.05 240.67"/><polygon class="cls-35" points="810.48 307.91 796.2 330.78 838.62 333 810.48 307.91"/><polygon class="cls-36" points="1108.25 283.83 1070.03 363.81 1076.12 366.02 1116.04 369.34 1116.04 306.25 1108.25 283.83"/><polygon class="cls-37" points="886.76 227.39 876.05 279.13 844.89 283.56 839.05 240.67 886.76 227.39"/><path class="cls-38" d="M458.61,301.27l53.24-15.5,298.63,22.14s-57.13,21-159.7,21S458.61,301.27,458.61,301.27Z"/><path class="cls-39" d="M1149.15,375.42l-2.8.25h0c-19,1.6-234.63,11.05-344.13,19.88-20.48,1.66-40.87,3.29-60.55,4.84l-.46,0c-27.59,2.18-53.78,4.21-76.83,5.94l-67.89-8.16-12.19-1.46c-.93.23-9.3-.88-18.31-2.2l-.11,0-3.47-.41-14.5,3c-4.48-2.21-9.34-4.62-14.51-7.15-13.51-6.64-29-14.18-44.55-21.71-43.63-21.12-87.53-42.13-88.64-42.65h0c79.22-16.61,307.72,17.71,307.72,17.71l321.79,2.21Z"/><polygon class="cls-40" points="747.51 336.13 788.41 322.02 846.84 330.32 854.63 338.62 771.86 343.6 747.51 336.13"/><polygon class="cls-41" points="731.93 278.85 902.35 294.63 1108.25 283.83 871.18 277.19 731.93 278.85"/><polygon class="cls-42" points="886.76 227.39 1050.8 234.03 1229.37 184.44 1158.89 184.22 799.12 236.52 839.05 240.67 886.76 227.39"/><path class="cls-43" d="M1146.56,375.42h0l-.21.24L1121.87,402l-354.59,12.4-17.83.88-12.32-.16h0l-4.66-.55-.32.49.31-.5-68-8.17-67.89-8.16-12.19-1.46c-.93.23-9.3-.88-18.31-2.2l-.11,0-3.47-.41-14.5,3-69.48,14.53h0l-44.47-34-33.74-52h0l74.34,18,4.17.68h0l31.61,5.19,11.1,1.81,1.62.26,21.41,3.52,57,9.33,146.75,24h.52l.81,0,71.91-3.18,2.28-.1,52.21-2.3,155.21-2.27Z"/><polygon class="cls-44" points="478.41 411.67 478.42 411.67 478.45 411.67 478.41 411.67 478.41 411.67"/><path class="cls-45" d="M596.48,398.21l-12.19-1.46c-.93.23-9.3-.88-18.31-2.2l-.11,0-3.47-.41-14.5,3-69.48,14.53h0L496,385.11,533.39,390l9,1.17,8.53,1.11h0l.34,0,33.14,4.33Z"/><polygon class="cls-46" points="1146.56 375.42 1146.56 375.43 1146.55 375.43 1146.34 375.67 1121.87 401.99 767.28 414.39 749.45 415.27 737.1 415.1 732.43 414.55 741.66 400.39 749.49 388.38 821.4 385.2 823.68 385.1 875.89 382.8 1031.1 380.52 1146.56 375.42"/><polygon class="cls-47" points="1060.91 217.12 1105.93 218.56 1097.49 252.62 1095.8 282.84 1101.43 254.06 1124.22 213.64 1060.91 217.12"/><path class="cls-48" d="M1195.59,263.65l28.57,9.51-6.19,1-35.1,96-36.31,5.26-.08,0-16.11-4.19-2.63-.67-2-.52-5.75-1.49-46.75-12.15,35-72.56L1056,280.92,1050.8,234l54-15.79.76.73,10.11,9.83,8.11-14.68,1.42-.39,16.61-4.59,44.58-12.33,11.41-3.16,31.42-8.68h0c-1,4-6.73,27.54-10.8,42.49l-3.89,12.47-20,12.63Z"/><polygon class="cls-49" points="1218.47 274.36 1196.15 263.81 1224.16 273.16 1218.47 274.36"/><polygon class="cls-50" points="1141.82 209.13 1125.79 370.03 1120.04 368.54 1131.25 257.89 1127.87 256.45 1125.21 213.73 1141.82 209.13"/><path class="cls-51" d="M1197.81,193.65c-19.32,45.32-57.55,178.89-57.55,178.89l-9.89-1.32-2.78-.36s.06-.11.15-.31c3.46-7.21,65.84-137.87,58.66-173.74Z"/><polygon class="cls-52" points="821.4 385.2 802.21 395.56 767.28 414.39 749.45 415.27 737.1 415.1 732.43 414.55 732.11 415.04 732.42 414.54 741.2 400.43 748.68 388.42 749.49 388.38 821.4 385.2"/><path class="cls-53" d="M875.89,382.8a59,59,0,0,1-7.57,26.6l-3,.14c4.42-8.15,7.18-17.19,6.28-26.55Z"/><path class="cls-54" d="M1031.1,380.52c-3.09,7.26-7.18,17.44-10.76,26.48h0l-135.91,1.6,4.41-26.37h0Z"/><path class="cls-55" d="M1035.88,370.86h-.19C1035.79,370.78,1035.85,370.77,1035.88,370.86Z"/><path class="cls-56" d="M523.05,351.55c-5.11,11.77-14.65,33.73-15.2,34.9-.75,1.6-1.87,0-1.87,0l4.35-37Z"/><path class="cls-57" d="M601.41,364.4c-6.47,12.56-16.7,31.06-17,32.24a.06.06,0,0,0,0,0s0,.05-.09.07c-.93.23-9.3-.88-18.31-2.2l-.11,0c-5.09-.74-10.35-1.55-14.62-2.22l-.34,0-8.52-1.34h0l.06-1.07,1.2-20.63.83-14.15Z"/><path class="cls-58" d="M1093.26,280.68s-13.23.8-13,0,17.39-27.9,17.39-27.9Z"/><polygon class="cls-59" points="876.23 277.08 885.51 235.11 872.29 272.52 856.53 274.92 853.72 277.56 876.23 277.08"/><polygon class="cls-60" points="542.36 391.88 543.11 367.58 550.99 392.52 542.36 391.88"/><polygon class="cls-61" points="888.84 382.23 822.77 362.46 902.11 381.65 884.42 408.6 888.84 382.23"/><polygon class="cls-62" points="732.43 414.55 732.11 415.04 732.42 414.54 732.43 414.55"/><polygon class="cls-63" points="1918 376.13 1918 421.88 1454.75 421.88 1456.63 418.43 1462.42 407.8 1412.8 405.52 1139.72 393.01 1136.64 392.87 1129.7 392.55 1130.75 391.35 1145.06 374.95 1027.33 344.45 1024.77 335.07 1303.74 374.95 1315.26 345.63 1468.77 361.64 1528.97 367.92 1520.59 385.48 1520.01 386.69 1547.2 388.13 1568.04 389.23 1567.46 389.82 1564.8 392.55 1584.75 391.62 1590.66 391.34 1674.65 387.45 1869.69 378.37 1918 376.13"/><path class="cls-64" d="M520.57,286.19c17.45,3.78,97.68,41.26,97.68,41.26s45.18,5.27,43.61,3.83-137.1-44.61-137.1-44.61Z"/><path class="cls-65" d="M113.62,319.82c57.58,17.6,115.17,10.56,115.17,10.56s-24.32-11.73-58.87-17.6S113.62,319.82,113.62,319.82Z"/><path class="cls-66" d="M.05,342.11v.08C0,342.16,0,342.13.05,342.11Z"/><path class="cls-67" d="M571.75,369.09l-1.37,3-12.71,27.54s-48.11,8.2-110.61,17.08l-8.41,1.2-3.82.52c-12.55,1.75-25.58,3.51-38.81,5.22C343.67,430.37,288,436.36,244.5,438.12c-6.84.29-13.38.46-19.55.51-3.72,0-7.31,0-10.74,0s-6.64-.16-9.74-.31c-98.53-4.69-204.42-34-204.42-34V342.19c2.71,1.28,123.92,7.09,254.26,13,72.22,3.26,147.14,6.54,206.05,9.11l8.09.35,98,4.23Z"/><path class="cls-68" d="M460.36,364.29l-21.71,53.58-3.82.52,16.63-50.47-51.19,7s-2.78,32.51-4.25,48.66C343.67,430.37,288,436.36,244.5,438.12l2.2-66.68L225,370.26v68.37c-3.72,0-7.31,0-10.74,0l-20-82.42,60.07-1C326.53,358.44,401.45,361.72,460.36,364.29Z"/><path class="cls-69" d="M570.38,372.05l-12.71,27.54s-48.11,8.2-110.61,17.08l21.39-52,98,4.23Z"/><path class="cls-70" d="M.05,342.11s309.36-4.69,370.79-7,200.91,34,200.91,34-156.12,14.08-319.93,11.73S.05,342.11.05,342.11Z"/><polygon class="cls-71" points="1153.75 371.41 1139.72 393.01 1139.36 393.57 1136.64 392.87 1130.75 391.35 1145.06 374.95 1027.33 344.45 1024.77 335.07 1153.75 371.41"/><polygon class="cls-72" points="1456.63 418.43 1462.42 407.8 1457.31 418.36 1456.63 418.43"/><polygon class="cls-73" points="1568.04 389.23 1567.46 389.82 1467.54 397.24 1462.42 407.8 1412.8 405.52 1415.13 391.18 1547.2 388.13 1568.04 389.23"/><polygon class="cls-74" points="1528.97 367.92 1520.59 385.48 1438.11 383.17 1445.79 364.4 1468.77 361.64 1528.97 367.92"/><path class="cls-75" d="M1315.26,345.63l129.25,25.81,84.46-3.52s-35.83-11.73-89.58-22.29S1315.26,342.11,1315.26,345.63Z"/><polygon class="cls-76" points="1024.77 335.07 1151.46 370.26 1411.24 391.38 1568.64 389.03 1024.77 335.07"/><polygon class="cls-77" points="1590.66 391.34 1572.28 421.88 1566.12 421.88 1584.75 391.62 1590.66 391.34"/><polygon class="cls-78" points="1869.69 378.37 1858.74 421.88 1648.14 421.88 1674.65 387.45 1869.69 378.37"/><polygon class="cls-79" points="1467.54 397.24 1610.87 386.69 1918 367.92 1918 397.24 1467.54 397.24"/><polygon class="cls-80" points="0.05 368.42 185.28 403.11 0.05 397.24 0.05 368.42"/><polygon class="cls-81" points="0.05 421.73 41.95 421.73 176.32 459.42 185.28 403.11 0.05 397.77 0.05 421.73"/><polygon class="cls-82" points="44.7 398.96 43.4 421.33 81.3 433.31 89.3 399.59 44.7 398.96"/><polygon class="cls-83" points="185.28 403.11 238.73 436.7 222.06 499 149.96 499 162.11 455.57 177.6 460.59 185.28 403.11"/><polygon class="cls-84" points="633.18 414.84 569.22 369.61 557.67 399.59 545.69 401.36 510.04 499 614.96 499 633.18 414.84"/><path class="cls-85" d="M1390.76,495.78c0-2.35,12.93-89.63,12.93-89.63l58.73,1.65-7.67,14.08,18.21-.15L1457.31,499Z"/><polygon class="cls-86" points="4.84 462.93 21.48 458.24 36.83 472.32 36.83 487.57 6.12 480.53 4.84 462.93"/></g><polygon class="cls-87" points="157.21 357.37 36.71 351.16 56.41 323.08 163.65 338.81 157.21 357.37"/><polygon class="cls-88" points="116.96 115.62 116.95 115.68 110.75 161.76 109.79 168.88 109.25 172.98 109.25 172.99 102.07 226.43 99.49 245.68 86 346.02 111.85 346.47 125.89 346.72 134.71 318.57 141.82 295.92 195.15 125.91 195.07 125.72 195.07 125.7 141.1 31.55 129.14 91.86 116.97 115.6 116.96 115.62"/><polygon class="cls-89" points="21.42 173.05 30.49 225.88 34.48 249 39.84 280.26 40.98 286.93 49.28 335.24 49.29 335.27 61.61 332.89 76.63 329.97 78.14 286.74 78.14 286.73 78.35 280.65 80.47 220.03 81.57 188.34 82.35 166.21 82.34 166.21 45.09 170.39 45.08 170.39 28.3 172.27 28.29 172.27 21.42 173.05"/><polygon class="cls-90" points="116.95 115.68 146.53 158.6 155.76 171.98 169.03 156.46 195.15 125.91 199.77 101.21 180.85 20.75 180.42 17.36 180.34 17.22 171.29 0.19 141.1 31.55 116.97 115.6 116.96 115.63 116.95 115.68"/><polygon class="cls-91" points="116.87 115.49 116.96 115.62 116.96 115.63 116.96 115.63 146.58 158.59 155.68 171.79 168.76 156.49 195.07 125.72 195.07 125.7 199.69 101.02 180.82 20.76 180.77 20.55 180.34 17.22 180.33 17.16 171.21 0 141.02 31.35 116.87 115.49"/><polygon class="cls-92" points="22.81 98.16 21.42 173.05 35 191.67 64.24 197 64.25 197 75.05 198.97 78.67 182.71 82.34 166.21 74.52 151.46 33.91 84.2 22.81 98.16"/><path class="cls-93" d="M117,115.68l-6.2,46.08s0,0,0,0l-1,7.1-.54,4.1h0l-7.18,53.43-2.59,19.25h0L86,346l25.85.45,16.25-64.6h0L131.84,267l23.78-94.51h0l.13-.53-9.22-13.38h0Z"/><polygon class="cls-94" points="21.42 173.05 30.18 225.75 34.05 249.01 39.24 280.27 40.34 286.93 48.4 335.45 49.29 335.27 61.61 332.89 61.49 332.26 52.97 287.01 52.03 282.04 45.97 249.91 42.92 233.72 35 191.67 21.42 173.05"/><polygon class="cls-95" points="79.22 182.16 64.21 197.04 75.05 198.97 79.22 182.16"/><polygon class="cls-96" points="21.42 173.05 30.18 225.75 34.05 249.01 39.24 280.27 40.34 286.93 48.4 335.45 49.28 335.24 61.49 332.26 74.14 329.18 74.49 279.13 74.53 273.97 74.92 218.39 75.02 204.18 75.02 204.15 75.05 198.97 64.25 197 64.24 197 35 191.67 21.42 173.05"/><polygon class="cls-97" points="141.1 31.55 180.82 20.76 180.85 20.75 180.42 17.36 180.34 17.22 171.29 0.19 141.1 31.55"/><polygon class="cls-98" points="62.65 133.36 35 191.67 25.84 175.48 61.04 129.61 62.65 133.36"/><polygon class="cls-95" points="170.16 156.36 146.44 158.61 154.79 173.45 170.16 156.36"/><path class="cls-99" d="M110.75,161.76l-1,7.12-.54,4.1h0c6,32.53,12.64,72.45,8.91,72.19-2.65-.18-9.3-8.84-16.09-18.76l-2.59,19.25h0c12.18,10.26,24.27,22.73,28,34.18.21.65.41,1.31.61,2h0c3.05,10.22,5.17,23.86,6.61,36.7l7.11-22.65L133,270.25s-.41-1.13-1.11-3.21c-4.54-13.23-21.24-64.88-21.08-105.26C110.75,161.77,110.75,161.77,110.75,161.76Z"/><path class="cls-100" d="M30.17,225.75,34.05,249l.43,0a44.44,44.44,0,0,1,11.49.91,29.42,29.42,0,0,1,12.13,5.62c5.7,4.53,11.46,13.84,16.39,23.6,1.27,2.52,2.49,5.09,3.65,7.6l.21-6.08c-1.19-2.16-2.47-4.4-3.82-6.68-8.31-14.13-19.4-30.13-31.61-40.25a50.44,50.44,0,0,0-12.43-7.85A2.38,2.38,0,0,0,30.17,225.75Z"/><path class="cls-101" d="M39.24,280.27l1.1,6.66H41L53,287l12.34.08A66.16,66.16,0,0,0,52,282a52.21,52.21,0,0,0-12.19-1.77Z"/><polygon class="cls-102" points="141.02 31.35 116.87 115.49 116.96 115.62 116.95 115.68 110.75 161.76 109.79 168.88 109.25 172.98 109.25 172.99 102.07 226.43 99.48 245.68 99.49 245.68 86 346.02 111.85 346.47 125.89 346.72 134.71 318.57 141.82 295.92 195.15 125.91 199.77 101.21 180.85 20.75 180.42 17.36 180.34 17.22 180.33 17.16 171.21 0 141.02 31.35"/><polygon class="cls-103" points="22.81 98.16 21.42 173.05 30.18 225.75 34.05 249.01 39.24 280.27 40.34 286.93 48.4 335.45 49.29 335.27 61.61 332.89 76.63 329.97 78.14 286.74 78.14 286.73 78.35 280.65 80.47 220.03 81.57 188.34 82.35 166.21 82.34 166.21 74.52 151.46 33.91 84.2 22.81 98.16"/><polygon class="cls-104" points="93.5 376.43 53.67 378.34 2.61 369.51 17.41 331.75 84.26 305.87 84.26 305.89 84.27 305.89 93.5 376.43"/><polygon class="cls-105" points="357.97 363.69 215.78 370.52 213.27 370.65 125.39 363.73 167.51 242.81 344.13 279.45 344.13 279.45 357.97 363.69"/><polygon class="cls-106" points="344.13 279.45 214.71 339.82 167.51 242.81 344.13 279.45"/><polygon class="cls-107" points="214.71 339.82 213.27 370.65 125.39 363.73 167.51 242.81 214.71 339.82"/><polygon class="cls-108" points="84.26 305.89 57.58 343.95 17.41 331.75 84.26 305.89"/><polygon class="cls-107" points="57.58 343.95 53.67 378.34 2.61 369.51 17.41 331.75 57.58 343.95"/><polygon class="cls-109" points="256.84 320.05 207.51 325.37 214.71 339.82 256.84 320.05"/><polygon class="cls-110" points="327.81 369.14 321.12 295.56 254.23 258.77 194.04 249.58 314.43 304.76 327.81 369.14"/></g></g></svg>