<svg xmlns="http://www.w3.org/2000/svg" xmlns:xlink="http://www.w3.org/1999/xlink" viewBox="0 0 1918 668.61"><defs><style>.cls-1{fill:none;clip-rule:evenodd;}.cls-2{isolation:isolate;}.cls-3{clip-path:url(#clip-path);}.cls-10,.cls-100,.cls-101,.cls-102,.cls-11,.cls-111,.cls-112,.cls-113,.cls-114,.cls-115,.cls-116,.cls-117,.cls-118,.cls-119,.cls-12,.cls-120,.cls-121,.cls-122,.cls-123,.cls-124,.cls-125,.cls-126,.cls-127,.cls-128,.cls-129,.cls-13,.cls-130,.cls-131,.cls-132,.cls-133,.cls-134,.cls-135,.cls-136,.cls-137,.cls-138,.cls-139,.cls-14,.cls-140,.cls-141,.cls-142,.cls-143,.cls-144,.cls-145,.cls-146,.cls-147,.cls-148,.cls-149,.cls-15,.cls-150,.cls-151,.cls-152,.cls-153,.cls-154,.cls-155,.cls-156,.cls-157,.cls-158,.cls-159,.cls-16,.cls-160,.cls-161,.cls-162,.cls-163,.cls-164,.cls-165,.cls-166,.cls-167,.cls-168,.cls-169,.cls-17,.cls-170,.cls-171,.cls-172,.cls-173,.cls-174,.cls-175,.cls-176,.cls-177,.cls-178,.cls-179,.cls-18,.cls-180,.cls-181,.cls-182,.cls-183,.cls-184,.cls-185,.cls-186,.cls-187,.cls-188,.cls-189,.cls-19,.cls-190,.cls-191,.cls-193,.cls-194,.cls-195,.cls-196,.cls-197,.cls-198,.cls-199,.cls-20,.cls-200,.cls-201,.cls-202,.cls-203,.cls-204,.cls-205,.cls-206,.cls-207,.cls-21,.cls-22,.cls-23,.cls-24,.cls-25,.cls-26,.cls-27,.cls-28,.cls-29,.cls-30,.cls-31,.cls-32,.cls-33,.cls-34,.cls-35,.cls-36,.cls-37,.cls-38,.cls-39,.cls-4,.cls-40,.cls-41,.cls-42,.cls-43,.cls-44,.cls-45,.cls-46,.cls-47,.cls-48,.cls-49,.cls-5,.cls-50,.cls-51,.cls-52,.cls-53,.cls-54,.cls-55,.cls-56,.cls-57,.cls-58,.cls-59,.cls-6,.cls-60,.cls-61,.cls-62,.cls-63,.cls-64,.cls-65,.cls-66,.cls-67,.cls-68,.cls-69,.cls-7,.cls-70,.cls-71,.cls-72,.cls-73,.cls-74,.cls-75,.cls-76,.cls-77,.cls-78,.cls-79,.cls-8,.cls-80,.cls-81,.cls-82,.cls-83,.cls-84,.cls-85,.cls-87,.cls-88,.cls-89,.cls-9,.cls-90,.cls-91,.cls-92,.cls-93,.cls-94,.cls-95,.cls-96,.cls-97,.cls-98,.cls-99{fill-rule:evenodd;}.cls-4{fill:url(#Áåçûìÿííûé_ãðàäèåíò_12);}.cls-5{fill:url(#Áåçûìÿííûé_ãðàäèåíò_21);}.cls-6{fill:url(#Áåçûìÿííûé_ãðàäèåíò_21-2);}.cls-7{fill:url(#Áåçûìÿííûé_ãðàäèåíò_21-3);}.cls-8{fill:url(#Áåçûìÿííûé_ãðàäèåíò_21-4);}.cls-9{fill:url(#Áåçûìÿííûé_ãðàäèåíò_21-5);}.cls-10{fill:url(#Áåçûìÿííûé_ãðàäèåíò_21-6);}.cls-11{fill:url(#Áåçûìÿííûé_ãðàäèåíò_21-7);}.cls-12{fill:url(#Áåçûìÿííûé_ãðàäèåíò_21-8);}.cls-13{fill:url(#Áåçûìÿííûé_ãðàäèåíò_21-9);}.cls-14{fill:url(#Áåçûìÿííûé_ãðàäèåíò_21-10);}.cls-15{fill:url(#Áåçûìÿííûé_ãðàäèåíò_23);}.cls-16{fill:url(#Áåçûìÿííûé_ãðàäèåíò_21-11);}.cls-17{fill:url(#Áåçûìÿííûé_ãðàäèåíò_21-12);}.cls-18{fill:url(#Áåçûìÿííûé_ãðàäèåíò_21-13);}.cls-19{fill:url(#Áåçûìÿííûé_ãðàäèåíò_21-14);}.cls-20{fill:url(#Áåçûìÿííûé_ãðàäèåíò_21-15);}.cls-21{fill:url(#Áåçûìÿííûé_ãðàäèåíò_21-16);}.cls-22{fill:url(#Áåçûìÿííûé_ãðàäèåíò_21-17);}.cls-23{fill:url(#Áåçûìÿííûé_ãðàäèåíò_21-18);}.cls-24{fill:url(#Áåçûìÿííûé_ãðàäèåíò_21-19);}.cls-25{fill:url(#Áåçûìÿííûé_ãðàäèåíò_21-20);}.cls-26{fill:url(#Áåçûìÿííûé_ãðàäèåíò_21-21);}.cls-27{fill:url(#Áåçûìÿííûé_ãðàäèåíò_23-2);}.cls-28{fill:url(#Áåçûìÿííûé_ãðàäèåíò_21-22);}.cls-29{fill:url(#Áåçûìÿííûé_ãðàäèåíò_23-3);}.cls-30{fill:url(#Áåçûìÿííûé_ãðàäèåíò_21-23);}.cls-31{fill:url(#Áåçûìÿííûé_ãðàäèåíò_21-24);}.cls-32{fill:url(#Áåçûìÿííûé_ãðàäèåíò_23-4);}.cls-33{fill:url(#Áåçûìÿííûé_ãðàäèåíò_51);}.cls-34{fill:url(#Áåçûìÿííûé_ãðàäèåíò_51-2);}.cls-101,.cls-102,.cls-106,.cls-142,.cls-154,.cls-155,.cls-157,.cls-167,.cls-168,.cls-169,.cls-170,.cls-179,.cls-180,.cls-181,.cls-182,.cls-185,.cls-186,.cls-196,.cls-198,.cls-199,.cls-200,.cls-201,.cls-202,.cls-206,.cls-207,.cls-35,.cls-47,.cls-48,.cls-50,.cls-60,.cls-61,.cls-62,.cls-63,.cls-73,.cls-74,.cls-75,.cls-76,.cls-79,.cls-80,.cls-90,.cls-92,.cls-93,.cls-95,.cls-96,.cls-97{opacity:0.5;}.cls-106,.cls-109,.cls-142,.cls-143,.cls-144,.cls-145,.cls-146,.cls-153,.cls-154,.cls-155,.cls-157,.cls-158,.cls-161,.cls-162,.cls-164,.cls-165,.cls-166,.cls-167,.cls-168,.cls-169,.cls-170,.cls-173,.cls-176,.cls-177,.cls-179,.cls-180,.cls-181,.cls-182,.cls-185,.cls-186,.cls-190,.cls-198,.cls-199,.cls-200,.cls-213,.cls-35,.cls-36,.cls-37,.cls-38,.cls-39,.cls-46,.cls-47,.cls-48,.cls-50,.cls-51,.cls-54,.cls-55,.cls-57,.cls-58,.cls-59,.cls-60,.cls-61,.cls-62,.cls-63,.cls-66,.cls-70,.cls-71,.cls-73,.cls-74,.cls-75,.cls-76,.cls-79,.cls-80,.cls-84,.cls-92,.cls-93,.cls-95{mix-blend-mode:multiply;}.cls-35{fill:url(#Áåçûìÿííûé_ãðàäèåíò_149);}.cls-143,.cls-144,.cls-145,.cls-146,.cls-153,.cls-158,.cls-159,.cls-160,.cls-163,.cls-36,.cls-37,.cls-38,.cls-39,.cls-46,.cls-51,.cls-52,.cls-53,.cls-56{opacity:0.3;}.cls-36{fill:url(#Áåçûìÿííûé_ãðàäèåíò_149-2);}.cls-37{fill:url(#Áåçûìÿííûé_ãðàäèåíò_149-3);}.cls-38{fill:url(#Áåçûìÿííûé_ãðàäèåíò_149-4);}.cls-39{fill:url(#Áåçûìÿííûé_ãðàäèåíò_149-5);}.cls-40{fill:url(#Áåçûìÿííûé_ãðàäèåíò_11);}.cls-41{fill:url(#Áåçûìÿííûé_ãðàäèåíò_11-2);}.cls-42{fill:url(#Áåçûìÿííûé_ãðàäèåíò_11-3);}.cls-43{fill:url(#Áåçûìÿííûé_ãðàäèåíò_11-4);}.cls-44{fill:url(#Áåçûìÿííûé_ãðàäèåíò_11-5);}.cls-45{fill:url(#Áåçûìÿííûé_ãðàäèåíò_51-3);}.cls-46{fill:url(#Áåçûìÿííûé_ãðàäèåíò_149-6);}.cls-47{fill:url(#Áåçûìÿííûé_ãðàäèåíò_149-7);}.cls-48{fill:url(#Áåçûìÿííûé_ãðàäèåíò_149-8);}.cls-49{fill:url(#Áåçûìÿííûé_ãðàäèåíò_51-4);}.cls-50{fill:url(#Áåçûìÿííûé_ãðàäèåíò_149-9);}.cls-51{fill:url(#Áåçûìÿííûé_ãðàäèåíò_149-10);}.cls-100,.cls-101,.cls-102,.cls-159,.cls-160,.cls-163,.cls-196,.cls-201,.cls-202,.cls-203,.cls-204,.cls-205,.cls-206,.cls-207,.cls-52,.cls-53,.cls-56,.cls-90,.cls-96,.cls-97,.cls-98,.cls-99{mix-blend-mode:screen;}.cls-52{fill:url(#Áåçûìÿííûé_ãðàäèåíò_51-5);}.cls-53{fill:url(#Áåçûìÿííûé_ãðàäèåíò_51-6);}.cls-109,.cls-161,.cls-162,.cls-164,.cls-165,.cls-166,.cls-173,.cls-176,.cls-177,.cls-190,.cls-213,.cls-54,.cls-55,.cls-57,.cls-58,.cls-59,.cls-66,.cls-70,.cls-71,.cls-84{opacity:0.15;}.cls-54{fill:url(#Áåçûìÿííûé_ãðàäèåíò_149-11);}.cls-55{fill:url(#Áåçûìÿííûé_ãðàäèåíò_149-12);}.cls-56{fill:url(#Áåçûìÿííûé_ãðàäèåíò_51-7);}.cls-57{fill:url(#Áåçûìÿííûé_ãðàäèåíò_149-13);}.cls-58{fill:url(#Áåçûìÿííûé_ãðàäèåíò_149-14);}.cls-59{fill:url(#Áåçûìÿííûé_ãðàäèåíò_149-15);}.cls-60{fill:url(#Áåçûìÿííûé_ãðàäèåíò_149-16);}.cls-61{fill:url(#Áåçûìÿííûé_ãðàäèåíò_149-17);}.cls-62{fill:url(#Áåçûìÿííûé_ãðàäèåíò_149-18);}.cls-63{fill:url(#Áåçûìÿííûé_ãðàäèåíò_149-19);}.cls-64{fill:url(#Áåçûìÿííûé_ãðàäèåíò_10);}.cls-65{fill:url(#Áåçûìÿííûé_ãðàäèåíò_51-8);}.cls-66{fill:url(#Áåçûìÿííûé_ãðàäèåíò_149-20);}.cls-67{fill:url(#Áåçûìÿííûé_ãðàäèåíò_11-6);}.cls-68{fill:url(#Áåçûìÿííûé_ãðàäèåíò_51-9);}.cls-69{fill:url(#Áåçûìÿííûé_ãðàäèåíò_51-10);}.cls-70{fill:url(#Áåçûìÿííûé_ãðàäèåíò_149-21);}.cls-71{fill:url(#Áåçûìÿííûé_ãðàäèåíò_149-22);}.cls-72{fill:url(#Áåçûìÿííûé_ãðàäèåíò_11-7);}.cls-73{fill:url(#Áåçûìÿííûé_ãðàäèåíò_149-23);}.cls-74{fill:url(#Áåçûìÿííûé_ãðàäèåíò_149-24);}.cls-75{fill:url(#Áåçûìÿííûé_ãðàäèåíò_149-25);}.cls-76{fill:url(#Áåçûìÿííûé_ãðàäèåíò_149-26);}.cls-77{fill:url(#Áåçûìÿííûé_ãðàäèåíò_11-8);}.cls-78{fill:url(#Áåçûìÿííûé_ãðàäèåíò_11-9);}.cls-79{fill:url(#Áåçûìÿííûé_ãðàäèåíò_149-27);}.cls-80{fill:url(#Áåçûìÿííûé_ãðàäèåíò_149-28);}.cls-81{fill:url(#Áåçûìÿííûé_ãðàäèåíò_11-10);}.cls-82{fill:url(#Áåçûìÿííûé_ãðàäèåíò_11-11);}.cls-83{fill:url(#Áåçûìÿííûé_ãðàäèåíò_51-11);}.cls-84{fill:url(#Áåçûìÿííûé_ãðàäèåíò_149-29);}.cls-85{fill:url(#Áåçûìÿííûé_ãðàäèåíò_21-25);}.cls-86{fill:url(#Áåçûìÿííûé_ãðàäèåíò_51-12);}.cls-87{fill:url(#Áåçûìÿííûé_ãðàäèåíò_33);}.cls-88{fill:url(#Áåçûìÿííûé_ãðàäèåíò_33-2);}.cls-89{fill:url(#Áåçûìÿííûé_ãðàäèåíò_33-3);}.cls-90{fill:url(#Áåçûìÿííûé_ãðàäèåíò_100);}.cls-91{fill:url(#Áåçûìÿííûé_ãðàäèåíò_33-4);}.cls-92{fill:url(#Áåçûìÿííûé_ãðàäèåíò_18);}.cls-93{fill:url(#Áåçûìÿííûé_ãðàäèåíò_18-2);}.cls-94{fill:#84fff4;}.cls-95{fill:url(#Áåçûìÿííûé_ãðàäèåíò_18-3);}.cls-96{fill:url(#Áåçûìÿííûé_ãðàäèåíò_202);}.cls-97{fill:url(#Áåçûìÿííûé_ãðàäèåíò_202-2);}.cls-100,.cls-203,.cls-204,.cls-205,.cls-98,.cls-99{opacity:0.6;}.cls-98{fill:url(#Áåçûìÿííûé_ãðàäèåíò_479);}.cls-99{fill:url(#Áåçûìÿííûé_ãðàäèåíò_479-2);}.cls-100{fill:url(#Áåçûìÿííûé_ãðàäèåíò_479-3);}.cls-101{fill:url(#Áåçûìÿííûé_ãðàäèåíò_205);}.cls-102{fill:url(#Áåçûìÿííûé_ãðàäèåíò_205-2);}.cls-103{fill:url(#Áåçûìÿííûé_ãðàäèåíò_51-13);}.cls-104{fill:url(#Áåçûìÿííûé_ãðàäèåíò_51-14);}.cls-105{fill:url(#Áåçûìÿííûé_ãðàäèåíò_11-12);}.cls-106{fill:#b83d64;}.cls-107{fill:url(#Áåçûìÿííûé_ãðàäèåíò_37);}.cls-108{fill:url(#Áåçûìÿííûé_ãðàäèåíò_11-13);}.cls-109{fill:url(#Áåçûìÿííûé_ãðàäèåíò_149-30);}.cls-110{clip-path:url(#clip-path-2);}.cls-111{fill:url(#Áåçûìÿííûé_ãðàäèåíò_12-2);}.cls-112{fill:url(#Áåçûìÿííûé_ãðàäèåíò_21-26);}.cls-113{fill:url(#Áåçûìÿííûé_ãðàäèåíò_21-27);}.cls-114{fill:url(#Áåçûìÿííûé_ãðàäèåíò_21-28);}.cls-115{fill:url(#Áåçûìÿííûé_ãðàäèåíò_21-29);}.cls-116{fill:url(#Áåçûìÿííûé_ãðàäèåíò_21-30);}.cls-117{fill:url(#Áåçûìÿííûé_ãðàäèåíò_21-31);}.cls-118{fill:url(#Áåçûìÿííûé_ãðàäèåíò_21-32);}.cls-119{fill:url(#Áåçûìÿííûé_ãðàäèåíò_21-33);}.cls-120{fill:url(#Áåçûìÿííûé_ãðàäèåíò_21-34);}.cls-121{fill:url(#Áåçûìÿííûé_ãðàäèåíò_21-35);}.cls-122{fill:url(#Áåçûìÿííûé_ãðàäèåíò_23-5);}.cls-123{fill:url(#Áåçûìÿííûé_ãðàäèåíò_21-36);}.cls-124{fill:url(#Áåçûìÿííûé_ãðàäèåíò_21-37);}.cls-125{fill:url(#Áåçûìÿííûé_ãðàäèåíò_21-38);}.cls-126{fill:url(#Áåçûìÿííûé_ãðàäèåíò_21-39);}.cls-127{fill:url(#Áåçûìÿííûé_ãðàäèåíò_21-40);}.cls-128{fill:url(#Áåçûìÿííûé_ãðàäèåíò_21-41);}.cls-129{fill:url(#Áåçûìÿííûé_ãðàäèåíò_21-42);}.cls-130{fill:url(#Áåçûìÿííûé_ãðàäèåíò_21-43);}.cls-131{fill:url(#Áåçûìÿííûé_ãðàäèåíò_21-44);}.cls-132{fill:url(#Áåçûìÿííûé_ãðàäèåíò_21-45);}.cls-133{fill:url(#Áåçûìÿííûé_ãðàäèåíò_21-46);}.cls-134{fill:url(#Áåçûìÿííûé_ãðàäèåíò_23-6);}.cls-135{fill:url(#Áåçûìÿííûé_ãðàäèåíò_21-47);}.cls-136{fill:url(#Áåçûìÿííûé_ãðàäèåíò_23-7);}.cls-137{fill:url(#Áåçûìÿííûé_ãðàäèåíò_21-48);}.cls-138{fill:url(#Áåçûìÿííûé_ãðàäèåíò_21-49);}.cls-139{fill:url(#Áåçûìÿííûé_ãðàäèåíò_23-8);}.cls-140{fill:url(#Áåçûìÿííûé_ãðàäèåíò_51-15);}.cls-141{fill:url(#Áåçûìÿííûé_ãðàäèåíò_51-16);}.cls-142{fill:url(#Áåçûìÿííûé_ãðàäèåíò_149-31);}.cls-143{fill:url(#Áåçûìÿííûé_ãðàäèåíò_149-32);}.cls-144{fill:url(#Áåçûìÿííûé_ãðàäèåíò_149-33);}.cls-145{fill:url(#Áåçûìÿííûé_ãðàäèåíò_149-34);}.cls-146{fill:url(#Áåçûìÿííûé_ãðàäèåíò_149-35);}.cls-147{fill:url(#Áåçûìÿííûé_ãðàäèåíò_11-14);}.cls-148{fill:url(#Áåçûìÿííûé_ãðàäèåíò_11-15);}.cls-149{fill:url(#Áåçûìÿííûé_ãðàäèåíò_11-16);}.cls-150{fill:url(#Áåçûìÿííûé_ãðàäèåíò_11-17);}.cls-151{fill:url(#Áåçûìÿííûé_ãðàäèåíò_11-18);}.cls-152{fill:url(#Áåçûìÿííûé_ãðàäèåíò_51-17);}.cls-153{fill:url(#Áåçûìÿííûé_ãðàäèåíò_149-36);}.cls-154{fill:url(#Áåçûìÿííûé_ãðàäèåíò_149-37);}.cls-155{fill:url(#Áåçûìÿííûé_ãðàäèåíò_149-38);}.cls-156{fill:url(#Áåçûìÿííûé_ãðàäèåíò_51-18);}.cls-157{fill:url(#Áåçûìÿííûé_ãðàäèåíò_149-39);}.cls-158{fill:url(#Áåçûìÿííûé_ãðàäèåíò_149-40);}.cls-159{fill:url(#Áåçûìÿííûé_ãðàäèåíò_51-19);}.cls-160{fill:url(#Áåçûìÿííûé_ãðàäèåíò_51-20);}.cls-161{fill:url(#Áåçûìÿííûé_ãðàäèåíò_149-41);}.cls-162{fill:url(#Áåçûìÿííûé_ãðàäèåíò_149-42);}.cls-163{fill:url(#Áåçûìÿííûé_ãðàäèåíò_51-21);}.cls-164{fill:url(#Áåçûìÿííûé_ãðàäèåíò_149-43);}.cls-165{fill:url(#Áåçûìÿííûé_ãðàäèåíò_149-44);}.cls-166{fill:url(#Áåçûìÿííûé_ãðàäèåíò_149-45);}.cls-167{fill:url(#Áåçûìÿííûé_ãðàäèåíò_149-46);}.cls-168{fill:url(#Áåçûìÿííûé_ãðàäèåíò_149-47);}.cls-169{fill:url(#Áåçûìÿííûé_ãðàäèåíò_149-48);}.cls-170{fill:url(#Áåçûìÿííûé_ãðàäèåíò_149-49);}.cls-171{fill:url(#Áåçûìÿííûé_ãðàäèåíò_10-2);}.cls-172{fill:url(#Áåçûìÿííûé_ãðàäèåíò_51-22);}.cls-173{fill:url(#Áåçûìÿííûé_ãðàäèåíò_149-50);}.cls-174{fill:url(#Áåçûìÿííûé_ãðàäèåíò_11-19);}.cls-175{fill:url(#Áåçûìÿííûé_ãðàäèåíò_51-23);}.cls-176{fill:url(#Áåçûìÿííûé_ãðàäèåíò_149-51);}.cls-177{fill:url(#Áåçûìÿííûé_ãðàäèåíò_149-52);}.cls-178{fill:url(#Áåçûìÿííûé_ãðàäèåíò_11-20);}.cls-179{fill:url(#Áåçûìÿííûé_ãðàäèåíò_149-53);}.cls-180{fill:url(#Áåçûìÿííûé_ãðàäèåíò_149-54);}.cls-181{fill:url(#Áåçûìÿííûé_ãðàäèåíò_149-55);}.cls-182{fill:url(#Áåçûìÿííûé_ãðàäèåíò_149-56);}.cls-183{fill:url(#Áåçûìÿííûé_ãðàäèåíò_11-21);}.cls-184{fill:url(#Áåçûìÿííûé_ãðàäèåíò_11-22);}.cls-185{fill:url(#Áåçûìÿííûé_ãðàäèåíò_149-57);}.cls-186{fill:url(#Áåçûìÿííûé_ãðàäèåíò_149-58);}.cls-187{fill:url(#Áåçûìÿííûé_ãðàäèåíò_11-23);}.cls-188{fill:url(#Áåçûìÿííûé_ãðàäèåíò_11-24);}.cls-189{fill:url(#Áåçûìÿííûé_ãðàäèåíò_51-24);}.cls-190{fill:url(#Áåçûìÿííûé_ãðàäèåíò_149-59);}.cls-191{fill:url(#Áåçûìÿííûé_ãðàäèåíò_21-50);}.cls-192{fill:url(#Áåçûìÿííûé_ãðàäèåíò_51-25);}.cls-193{fill:url(#Áåçûìÿííûé_ãðàäèåíò_33-5);}.cls-194{fill:url(#Áåçûìÿííûé_ãðàäèåíò_33-6);}.cls-195{fill:url(#Áåçûìÿííûé_ãðàäèåíò_33-7);}.cls-196{fill:url(#Áåçûìÿííûé_ãðàäèåíò_100-2);}.cls-197{fill:url(#Áåçûìÿííûé_ãðàäèåíò_33-8);}.cls-198{fill:url(#Áåçûìÿííûé_ãðàäèåíò_18-4);}.cls-199{fill:url(#Áåçûìÿííûé_ãðàäèåíò_18-5);}.cls-200{fill:url(#Áåçûìÿííûé_ãðàäèåíò_18-6);}.cls-201{fill:url(#Áåçûìÿííûé_ãðàäèåíò_202-3);}.cls-202{fill:url(#Áåçûìÿííûé_ãðàäèåíò_202-4);}.cls-203{fill:url(#Áåçûìÿííûé_ãðàäèåíò_479-4);}.cls-204{fill:url(#Áåçûìÿííûé_ãðàäèåíò_479-5);}.cls-205{fill:url(#Áåçûìÿííûé_ãðàäèåíò_479-6);}.cls-206{fill:url(#Áåçûìÿííûé_ãðàäèåíò_205-3);}.cls-207{fill:url(#Áåçûìÿííûé_ãðàäèåíò_205-4);}.cls-208{fill:url(#Áåçûìÿííûé_ãðàäèåíò_51-26);}.cls-209{fill:url(#Áåçûìÿííûé_ãðàäèåíò_51-27);}.cls-210{fill:url(#Áåçûìÿííûé_ãðàäèåíò_11-25);}.cls-211{fill:url(#Áåçûìÿííûé_ãðàäèåíò_37-2);}.cls-212{fill:url(#Áåçûìÿííûé_ãðàäèåíò_11-26);}.cls-213{fill:url(#Áåçûìÿííûé_ãðàäèåíò_149-60);}</style><clipPath id="clip-path"><path id="SVGID" class="cls-1" d="M1918,436.64V643.11c-25,7.09-56.79,8-72.29-30.43-6.52-16.14-5.6-27.93-9-40.58-17.66-65.57-115.52-19.91-215,12.17-104.36,33.66-157.86,50.12-223,32.47-1.9-.52-1.78-.51-121-54.79-104.74-47.68-166-74.33-184-22.32-8.85,25.51-1.15,60.08-12,73-12,14.4-29.61-17.34-47-34.5-72.91-71.93-167.4,88.09-193,26.38-7.42-17.88-.1-32.53-7-50.73-21.33-56.24-101,73.13-204,87.25-118.42,16.24-168.82-133.41-261-54.78-27.55,23.5-28.66,41.64-57,56.81-62.49,33.45-101.59-31-168-46.66-32.54-7.7-81.45-6-144.66,46.66V378.16Z"/></clipPath><linearGradient id="Áåçûìÿííûé_ãðàäèåíò_12" x1="958.63" y1="401.21" x2="958.63" y2="671.21" gradientUnits="userSpaceOnUse"><stop offset="0" stop-color="#271221"/><stop offset="1" stop-color="#431920"/></linearGradient><linearGradient id="Áåçûìÿííûé_ãðàäèåíò_21" x1="40.4" y1="655.56" x2="82.93" y2="615.77" gradientUnits="userSpaceOnUse"><stop offset="0" stop-color="#42203e"/><stop offset="1" stop-color="#602433"/></linearGradient><linearGradient id="Áåçûìÿííûé_ãðàäèåíò_21-2" x1="165.33" y1="634.96" x2="193.39" y2="608.71" xlink:href="#Áåçûìÿííûé_ãðàäèåíò_21"/><linearGradient id="Áåçûìÿííûé_ãðàäèåíò_21-3" x1="223.69" y1="685.62" x2="271.33" y2="641.06" xlink:href="#Áåçûìÿííûé_ãðàäèåíò_21"/><linearGradient id="Áåçûìÿííûé_ãðàäèåíò_21-4" x1="365.67" y1="657.16" x2="387.43" y2="636.81" xlink:href="#Áåçûìÿííûé_ãðàäèåíò_21"/><linearGradient id="Áåçûìÿííûé_ãðàäèåíò_21-5" x1="521.55" y1="935.99" x2="443.38" y2="225.2" xlink:href="#Áåçûìÿííûé_ãðàäèåíò_21"/><linearGradient id="Áåçûìÿííûé_ãðàäèåíò_21-6" x1="580.54" y1="941.76" x2="498.15" y2="192.61" xlink:href="#Áåçûìÿííûé_ãðàäèåíò_21"/><linearGradient id="Áåçûìÿííûé_ãðàäèåíò_21-7" x1="674.17" y1="905.21" x2="595.55" y2="190.39" xlink:href="#Áåçûìÿííûé_ãðàäèåíò_21"/><linearGradient id="Áåçûìÿííûé_ãðàäèåíò_21-8" x1="676.5" y1="668.25" x2="707.72" y2="639.04" xlink:href="#Áåçûìÿííûé_ãðàäèåíò_21"/><linearGradient id="Áåçûìÿííûé_ãðàäèåíò_21-9" x1="853.14" y1="863.06" x2="775.96" y2="161.28" xlink:href="#Áåçûìÿííûé_ãðàäèåíò_21"/><linearGradient id="Áåçûìÿííûé_ãðàäèåíò_21-10" x1="839.48" y1="649.83" x2="886.91" y2="605.46" xlink:href="#Áåçûìÿííûé_ãðàäèåíò_21"/><linearGradient id="Áåçûìÿííûé_ãðàäèåíò_23" x1="552.74" y1="543.85" x2="578.18" y2="520.05" gradientUnits="userSpaceOnUse"><stop offset="0" stop-color="#4f284a"/><stop offset="1" stop-color="#6d2b3b"/></linearGradient><linearGradient id="Áåçûìÿííûé_ãðàäèåíò_21-11" x1="683.18" y1="582.6" x2="698.15" y2="568.6" xlink:href="#Áåçûìÿííûé_ãðàäèåíò_21"/><linearGradient id="Áåçûìÿííûé_ãðàäèåíò_21-12" x1="1028.87" y1="670.99" x2="1068.41" y2="634" xlink:href="#Áåçûìÿííûé_ãðàäèåíò_21"/><linearGradient id="Áåçûìÿííûé_ãðàäèåíò_21-13" x1="1149.02" y1="638.97" x2="1171.31" y2="618.12" xlink:href="#Áåçûìÿííûé_ãðàäèåíò_21"/><linearGradient id="Áåçûìÿííûé_ãðàäèåíò_21-14" x1="1208.26" y1="689.94" x2="1250" y2="650.9" xlink:href="#Áåçûìÿííûé_ãðàäèåíò_21"/><linearGradient id="Áåçûìÿííûé_ãðàäèåíò_21-15" x1="1353.35" y1="660.55" x2="1368.36" y2="646.51" xlink:href="#Áåçûìÿííûé_ãðàäèåíò_21"/><linearGradient id="Áåçûìÿííûé_ãðàäèåíò_21-16" x1="1422.46" y1="1010.15" x2="1498.94" y2="80.8" xlink:href="#Áåçûìÿííûé_ãðàäèåíò_21"/><linearGradient id="Áåçûìÿííûé_ãðàäèåíò_21-17" x1="1499.84" y1="646.63" x2="1515.53" y2="631.96" xlink:href="#Áåçûìÿííûé_ãðàäèåíò_21"/><linearGradient id="Áåçûìÿííûé_ãðàäèåíò_21-18" x1="1583.95" y1="1045.14" x2="1662.56" y2="89.94" xlink:href="#Áåçûìÿííûé_ãðàäèåíò_21"/><linearGradient id="Áåçûìÿííûé_ãðàäèåíò_21-19" x1="1660.46" y1="1065.61" x2="1740.62" y2="91.58" xlink:href="#Áåçûìÿííûé_ãðàäèåíò_21"/><linearGradient id="Áåçûìÿííûé_ãðàäèåíò_21-20" x1="1750.29" y1="1061.14" x2="1827.27" y2="125.66" xlink:href="#Áåçûìÿííûé_ãðàäèåíò_21"/><linearGradient id="Áåçûìÿííûé_ãðàäèåíò_21-21" x1="1807.53" y1="641.8" x2="1855.27" y2="597.14" xlink:href="#Áåçûìÿííûé_ãðàäèåíò_21"/><linearGradient id="Áåçûìÿííûé_ãðàäèåíò_23-2" x1="1527.87" y1="567.66" x2="1553.32" y2="543.85" xlink:href="#Áåçûìÿííûé_ãðàäèåíò_23"/><linearGradient id="Áåçûìÿííûé_ãðàäèåíò_21-22" x1="1365.26" y1="599.26" x2="1380.24" y2="585.26" xlink:href="#Áåçûìÿííûé_ãðàäèåíò_21"/><linearGradient id="Áåçûìÿííûé_ãðàäèåíò_23-3" x1="1056.89" y1="762.94" x2="1099.53" y2="539.27" xlink:href="#Áåçûìÿííûé_ãðàäèåíò_23"/><linearGradient id="Áåçûìÿííûé_ãðàäèåíò_21-23" x1="978.94" y1="724.58" x2="1020.03" y2="509.06" xlink:href="#Áåçûìÿííûé_ãðàäèåíò_21"/><linearGradient id="Áåçûìÿííûé_ãðàäèåíò_21-24" x1="1221.68" y1="567.78" x2="1233.28" y2="556.94" xlink:href="#Áåçûìÿííûé_ãðàäèåíò_21"/><linearGradient id="Áåçûìÿííûé_ãðàäèåíò_23-4" x1="1156.92" y1="785.56" x2="1197.92" y2="570.53" xlink:href="#Áåçûìÿííûé_ãðàäèåíò_23"/><linearGradient id="Áåçûìÿííûé_ãðàäèåíò_51" x1="97.94" y1="340.56" x2="221.56" y2="377.23" gradientUnits="userSpaceOnUse"><stop offset="0" stop-color="#53d8d3"/><stop offset="1" stop-color="#0172ca"/></linearGradient><linearGradient id="Áåçûìÿííûé_ãðàäèåíò_51-2" x1="774.31" y1="113.32" x2="901.69" y2="374.64" xlink:href="#Áåçûìÿííûé_ãðàäèåíò_51"/><linearGradient id="Áåçûìÿííûé_ãðàäèåíò_149" x1="562.71" y1="325.32" x2="880.38" y2="372.23" gradientUnits="userSpaceOnUse"><stop offset="0" stop-color="#c37cba"/><stop offset="1" stop-color="#944577"/></linearGradient><linearGradient id="Áåçûìÿííûé_ãðàäèåíò_149-2" x1="950.97" y1="162.53" x2="988.84" y2="299.31" xlink:href="#Áåçûìÿííûé_ãðàäèåíò_149"/><linearGradient id="Áåçûìÿííûé_ãðàäèåíò_149-3" x1="808.53" y1="317.61" x2="813.93" y2="337.09" xlink:href="#Áåçûìÿííûé_ãðàäèåíò_149"/><linearGradient id="Áåçûìÿííûé_ãðàäèåíò_149-4" x1="1075.16" y1="288.42" x2="1089.71" y2="340.95" xlink:href="#Áåçûìÿííûé_ãðàäèåíò_149"/><linearGradient id="Áåçûìÿííûé_ãðàäèåíò_149-5" x1="856.87" y1="236.79" x2="864.99" y2="266.15" xlink:href="#Áåçûìÿííûé_ãðàäèåíò_149"/><linearGradient id="Áåçûìÿííûé_ãðàäèåíò_11" x1="635.08" y1="323.9" x2="671.14" y2="528.26" gradientUnits="userSpaceOnUse"><stop offset="0" stop-color="#5ff5ef"/><stop offset="1" stop-color="#0a81e8"/></linearGradient><linearGradient id="Áåçûìÿííûé_ãðàäèåíò_11-2" x1="762.55" y1="300.6" x2="803.21" y2="531.03" xlink:href="#Áåçûìÿííûé_ãðàäèåíò_11"/><linearGradient id="Áåçûìÿííûé_ãðàäèåíò_11-3" x1="820.8" y1="377.71" x2="747.09" y2="294.58" xlink:href="#Áåçûìÿííûé_ãðàäèåíò_11"/><linearGradient id="Áåçûìÿííûé_ãðàäèåíò_11-4" x1="876.28" y1="138.18" x2="1034.82" y2="710.78" xlink:href="#Áåçûìÿííûé_ãðàäèåíò_11"/><linearGradient id="Áåçûìÿííûé_ãðàäèåíò_11-5" x1="981.11" y1="102.09" x2="1188.72" y2="851.86" xlink:href="#Áåçûìÿííûé_ãðàäèåíò_11"/><linearGradient id="Áåçûìÿííûé_ãðàäèåíò_51-3" x1="598.36" y1="663.34" x2="850.67" y2="239.45" xlink:href="#Áåçûìÿííûé_ãðàäèåíò_51"/><linearGradient id="Áåçûìÿííûé_ãðàäèåíò_149-6" x1="478.41" y1="433.72" x2="478.45" y2="433.73" xlink:href="#Áåçûìÿííûé_ãðàäèåíò_149"/><linearGradient id="Áåçûìÿííûé_ãðàäèåíò_149-7" x1="472.59" y1="407.39" x2="587.97" y2="441.62" xlink:href="#Áåçûìÿííûé_ãðàäèåíò_149"/><linearGradient id="Áåçûìÿííûé_ãðàäèåíò_149-8" x1="710.57" y1="348.22" x2="1117.86" y2="469.07" xlink:href="#Áåçûìÿííûé_ãðàäèåíò_149"/><linearGradient id="Áåçûìÿííûé_ãðàäèåíò_51-4" x1="1076.96" y1="191.81" x2="1101.68" y2="247.43" xlink:href="#Áåçûìÿííûé_ãðàäèåíò_51"/><linearGradient id="Áåçûìÿííûé_ãðàäèåíò_149-9" x1="1123.55" y1="185.05" x2="1152.29" y2="288.86" xlink:href="#Áåçûìÿííûé_ãðàäèåíò_149"/><linearGradient id="Áåçûìÿííûé_ãðàäèåíò_149-10" x1="1206.92" y1="271.18" x2="1209.7" y2="281.21" xlink:href="#Áåçûìÿííûé_ãðàäèåíò_149"/><linearGradient id="Áåçûìÿííûé_ãðàäèåíò_51-5" x1="1128.08" y1="213.23" x2="1130.23" y2="281.85" xlink:href="#Áåçûìÿííûé_ãðàäèåíò_51"/><linearGradient id="Áåçûìÿííûé_ãðàäèåíò_51-6" x1="1160.04" y1="212.29" x2="1162.19" y2="280.89" xlink:href="#Áåçûìÿííûé_ãðàäèåíò_51"/><linearGradient id="Áåçûìÿííûé_ãðàäèåíò_149-11" x1="769.79" y1="396.41" x2="774.92" y2="414.92" xlink:href="#Áåçûìÿííûé_ãðàäèåíò_149"/><linearGradient id="Áåçûìÿííûé_ãðàäèåíò_149-12" x1="865.62" y1="399.4" x2="869.86" y2="414.72" xlink:href="#Áåçûìÿííûé_ãðàäèåíò_149"/><linearGradient id="Áåçûìÿííûé_ãðàäèåíò_51-7" x1="946.06" y1="373.46" x2="955.92" y2="409.06" xlink:href="#Áåçûìÿííûé_ãðàäèåíò_51"/><linearGradient id="Áåçûìÿííûé_ãðàäèåíò_149-13" x1="1035.76" y1="390.66" x2="1035.78" y2="390.7" xlink:href="#Áåçûìÿííûé_ãðàäèåíò_149"/><linearGradient id="Áåçûìÿííûé_ãðàäèåíò_149-14" x1="585.22" y1="501.46" x2="524.73" y2="405.06" xlink:href="#Áåçûìÿííûé_ãðàäèåíò_149"/><linearGradient id="Áåçûìÿííûé_ãðàäèåíò_149-15" x1="623.62" y1="480.34" x2="562.27" y2="382.57" xlink:href="#Áåçûìÿííûé_ãðàäèåíò_149"/><linearGradient id="Áåçûìÿííûé_ãðàäèåíò_149-16" x1="1084.19" y1="263.99" x2="1088.64" y2="280.05" xlink:href="#Áåçûìÿííûé_ãðàäèåíò_149"/><linearGradient id="Áåçûìÿííûé_ãðàäèåíò_149-17" x1="862.7" y1="245.09" x2="869.27" y2="268.81" xlink:href="#Áåçûìÿííûé_ãðàäèåíò_149"/><linearGradient id="Áåçûìÿííûé_ãðàäèåíò_149-18" x1="538.18" y1="382.53" x2="542.67" y2="398.74" xlink:href="#Áåçûìÿííûé_ãðàäèåíò_149"/><linearGradient id="Áåçûìÿííûé_ãðàäèåíò_149-19" x1="853.4" y1="359.32" x2="863.75" y2="396.72" xlink:href="#Áåçûìÿííûé_ãðàäèåíò_149"/><linearGradient id="Áåçûìÿííûé_ãðàäèåíò_10" x1="731.95" y1="437.31" x2="732.16" y2="437.11" gradientUnits="userSpaceOnUse"><stop offset="0" stop-color="#3d56fc"/><stop offset="1"/></linearGradient><linearGradient id="Áåçûìÿííûé_ãðàäèåíò_51-8" x1="1333.76" y1="75.39" x2="1472.06" y2="378.26" xlink:href="#Áåçûìÿííûé_ãðàäèåíò_51"/><linearGradient id="Áåçûìÿííûé_ãðàäèåíò_149-20" x1="573.79" y1="302.89" x2="601.11" y2="337.99" xlink:href="#Áåçûìÿííûé_ãðàäèåíò_149"/><linearGradient id="Áåçûìÿííûé_ãðàäèåíò_11-6" x1="163.78" y1="295.52" x2="195.86" y2="498.61" xlink:href="#Áåçûìÿííûé_ãðàäèåíò_11"/><linearGradient id="Áåçûìÿííûé_ãðàäèåíò_51-9" x1="-0.01" y1="360.46" x2="0.06" y2="360.48" xlink:href="#Áåçûìÿííûé_ãðàäèåíò_51"/><linearGradient id="Áåçûìÿííûé_ãðàäèåíò_51-10" x1="-53.46" y1="306.71" x2="534.43" y2="481.14" xlink:href="#Áåçûìÿííûé_ãðàäèåíò_51"/><linearGradient id="Áåçûìÿííûé_ãðàäèåíò_149-21" x1="505.16" y1="473.82" x2="156.54" y2="368.18" xlink:href="#Áåçûìÿííûé_ãðàäèåíò_149"/><linearGradient id="Áåçûìÿííûé_ãðàäèåíò_149-22" x1="585.77" y1="437.75" x2="444.25" y2="394.87" xlink:href="#Áåçûìÿííûé_ãðàäèåíò_149"/><linearGradient id="Áåçûìÿííûé_ãðàäèåíò_11-7" x1="260.64" y1="214.8" x2="374.64" y2="936.33" xlink:href="#Áåçûìÿííûé_ãðàäèåíò_11"/><linearGradient id="Áåçûìÿííûé_ãðàäèåíò_149-23" x1="1073.92" y1="275.11" x2="1150.47" y2="759.61" xlink:href="#Áåçûìÿííûé_ãðàäèåíò_149"/><linearGradient id="Áåçûìÿííûé_ãðàäèåíò_149-24" x1="1457.34" y1="421.38" x2="1467.24" y2="484.05" xlink:href="#Áåçûìÿííûé_ãðàäèåíò_149"/><linearGradient id="Áåçûìÿííûé_ãðàäèåíò_149-25" x1="1484.19" y1="379.24" x2="1508.17" y2="531.06" xlink:href="#Áåçûìÿííûé_ãðàäèåíò_149"/><linearGradient id="Áåçûìÿííûé_ãðàäèåíò_149-26" x1="1476.2" y1="349.18" x2="1508.86" y2="555.93" xlink:href="#Áåçûìÿííûé_ãðàäèåíò_149"/><linearGradient id="Áåçûìÿííûé_ãðàäèåíò_11-8" x1="1397.32" y1="133.75" x2="1454.95" y2="696.55" xlink:href="#Áåçûìÿííûé_ãðàäèåíò_11"/><linearGradient id="Áåçûìÿííûé_ãðàäèåíò_11-9" x1="1272.54" y1="145.5" x2="1330.32" y2="709.79" xlink:href="#Áåçûìÿííûé_ãðàäèåíò_11"/><linearGradient id="Áåçûìÿííûé_ãðàäèåíò_149-27" x1="1584.97" y1="448.19" x2="1619.71" y2="552.84" xlink:href="#Áåçûìÿííûé_ãðàäèåíò_149"/><linearGradient id="Áåçûìÿííûé_ãðàäèåíò_149-28" x1="1750.04" y1="394.84" x2="1785.73" y2="502.33" xlink:href="#Áåçûìÿííûé_ãðàäèåíò_149"/><linearGradient id="Áåçûìÿííûé_ãðàäèåíò_11-10" x1="1692.77" y1="380.89" x2="1692.77" y2="655.84" xlink:href="#Áåçûìÿííûé_ãðàäèåíò_11"/><linearGradient id="Áåçûìÿííûé_ãðàäèåíò_11-11" x1="92.66" y1="380.89" x2="92.66" y2="655.84" xlink:href="#Áåçûìÿííûé_ãðàäèåíò_11"/><linearGradient id="Áåçûìÿííûé_ãðàäèåíò_51-11" x1="59.05" y1="606.38" x2="81.16" y2="488.89" xlink:href="#Áåçûìÿííûé_ãðàäèåíò_51"/><linearGradient id="Áåçûìÿííûé_ãðàäèåíò_149-29" x1="45.04" y1="537.36" x2="58.46" y2="466.04" xlink:href="#Áåçûìÿííûé_ãðàäèåíò_149"/><linearGradient id="Áåçûìÿííûé_ãðàäèåíò_21-25" x1="57.26" y1="558.97" x2="16.29" y2="493.68" xlink:href="#Áåçûìÿííûé_ãðàäèåíò_21"/><linearGradient id="Áåçûìÿííûé_ãðàäèåíò_51-12" x1="792.78" y1="469.37" x2="885.44" y2="416.53" gradientTransform="matrix(-1, 0.02, 0.02, 1, 1107.9, 2.03)" xlink:href="#Áåçûìÿííûé_ãðàäèåíò_51"/><linearGradient id="Áåçûìÿííûé_ãðàäèåíò_33" x1="1119.08" y1="794.72" x2="1264.47" y2="685.9" gradientTransform="matrix(-0.96, -0.27, -0.27, 0.96, 1480.74, -170.45)" gradientUnits="userSpaceOnUse"><stop offset="0" stop-color="#54d9d4"/><stop offset="1" stop-color="#0172cb"/></linearGradient><linearGradient id="Áåçûìÿííûé_ãðàäèåíò_33-2" x1="1058.23" y1="501.97" x2="1128.71" y2="306.53" gradientTransform="matrix(-1, -0.03, -0.03, 1, 1172.84, -101.33)" xlink:href="#Áåçûìÿííûé_ãðàäèåíò_33"/><linearGradient id="Áåçûìÿííûé_ãðàäèåíò_33-3" x1="1168.75" y1="560.3" x2="1275.19" y2="699.37" xlink:href="#Áåçûìÿííûé_ãðàäèåíò_33"/><radialGradient id="Áåçûìÿííûé_ãðàäèåíò_100" cx="1183.91" cy="645.02" r="62.43" gradientTransform="matrix(-0.96, -0.38, -0.27, 1.4, 1480.74, -338.35)" gradientUnits="userSpaceOnUse"><stop offset="0"/><stop offset="1" stop-color="#fff"/></radialGradient><linearGradient id="Áåçûìÿííûé_ãðàäèåíò_33-4" x1="1090.82" y1="269.62" x2="1268.66" y2="393.09" gradientTransform="matrix(-1, -0.03, -0.03, 1, 1172.84, -101.33)" xlink:href="#Áåçûìÿííûé_ãðàäèåíò_33"/><linearGradient id="Áåçûìÿííûé_ãðàäèåíò_18" x1="1161.81" y1="695.47" x2="1263.55" y2="844.59" gradientTransform="matrix(-0.96, -0.27, -0.27, 0.96, 1480.74, -170.45)" gradientUnits="userSpaceOnUse"><stop offset="0" stop-color="#c57cbb"/><stop offset="1" stop-color="#954577"/></linearGradient><linearGradient id="Áåçûìÿííûé_ãðàäèåíò_18-2" x1="1088.25" y1="354.42" x2="1157.33" y2="455.68" gradientTransform="matrix(-1, -0.03, -0.03, 1, 1172.84, -101.33)" xlink:href="#Áåçûìÿííûé_ãðàäèåíò_18"/><linearGradient id="Áåçûìÿííûé_ãðàäèåíò_18-3" x1="1148.87" y1="447.44" x2="1411.64" y2="811.69" gradientTransform="matrix(-1, -0.03, -0.03, 1, 1172.84, -101.33)" xlink:href="#Áåçûìÿííûé_ãðàäèåíò_18"/><linearGradient id="Áåçûìÿííûé_ãðàäèåíò_202" x1="1246.42" y1="553.57" x2="1199.91" y2="513.25" gradientTransform="matrix(-0.96, -0.27, -0.27, 0.96, 1480.74, -170.45)" xlink:href="#Áåçûìÿííûé_ãðàäèåíò_100"/><linearGradient id="Áåçûìÿííûé_ãðàäèåíò_202-2" x1="984.16" y1="45.25" x2="909.83" y2="-19.2" gradientTransform="matrix(-0.99, 0.17, 0.17, 0.99, 981.91, -3.19)" xlink:href="#Áåçûìÿííûé_ãðàäèåíò_100"/><linearGradient id="Áåçûìÿííûé_ãðàäèåíò_479" x1="1109.83" y1="824.31" x2="1402.9" y2="637.69" gradientTransform="matrix(-0.96, -0.27, -0.27, 0.96, 1480.74, -170.45)" gradientUnits="userSpaceOnUse"><stop offset="0" stop-color="#3d56fd"/><stop offset="1"/></linearGradient><linearGradient id="Áåçûìÿííûé_ãðàäèåíò_479-2" x1="990.74" y1="477.79" x2="1240.38" y2="318.83" gradientTransform="matrix(-1, -0.03, -0.03, 1, 1172.84, -101.33)" xlink:href="#Áåçûìÿííûé_ãðàäèåíò_479"/><linearGradient id="Áåçûìÿííûé_ãðàäèåíò_479-3" x1="1013.99" y1="496.08" x2="1237.71" y2="353.63" gradientTransform="matrix(-1, -0.03, -0.03, 1, 1172.84, -101.33)" xlink:href="#Áåçûìÿííûé_ãðàäèåíò_479"/><linearGradient id="Áåçûìÿííûé_ãðàäèåíò_205" x1="1112.99" y1="700.65" x2="1306.57" y2="697.88" gradientTransform="matrix(-0.96, -0.27, -0.27, 0.96, 1480.74, -170.45)" gradientUnits="userSpaceOnUse"><stop offset="0" stop-color="#fd0093"/><stop offset="1"/></linearGradient><linearGradient id="Áåçûìÿííûé_ãðàäèåíò_205-2" x1="1019.62" y1="414.33" x2="1122.34" y2="355.14" gradientTransform="matrix(-1, -0.03, -0.03, 1, 1172.84, -101.33)" xlink:href="#Áåçûìÿííûé_ãðàäèåíò_205"/><linearGradient id="Áåçûìÿííûé_ãðàäèåíò_51-13" x1="946.07" y1="269.36" x2="1174.71" y2="473.76" gradientTransform="matrix(-1, 0, 0, 1, 1117.52, 0)" xlink:href="#Áåçûìÿííûé_ãðàäèåíò_51"/><linearGradient id="Áåçûìÿííûé_ãðàäèåíò_51-14" x1="794.03" y1="201.03" x2="913.4" y2="433.83" gradientTransform="matrix(-1, 0, 0, 1, 1117.52, 0)" xlink:href="#Áåçûìÿííûé_ãðàäèåíò_51"/><linearGradient id="Áåçûìÿííûé_ãðàäèåíò_11-12" x1="846.16" y1="244.34" x2="990.62" y2="530.57" gradientTransform="matrix(-1, 0, 0, 1, 1117.52, 0)" xlink:href="#Áåçûìÿííûé_ãðàäèåíò_11"/><linearGradient id="Áåçûìÿííûé_ãðàäèåíò_37" x1="1048.35" y1="314.69" x2="1215.44" y2="532.38" gradientTransform="matrix(-1, 0, 0, 1, 1117.52, 0)" gradientUnits="userSpaceOnUse"><stop offset="0" stop-color="#5ff5ef"/><stop offset="0.94" stop-color="#0f88e8"/><stop offset="1" stop-color="#0a81e8"/></linearGradient><linearGradient id="Áåçûìÿííûé_ãðàäèåíò_11-13" x1="960.66" y1="445.53" x2="1017.11" y2="533.81" gradientTransform="matrix(-1, 0.02, 0.02, 1, 1107.9, 2.03)" xlink:href="#Áåçûìÿííûé_ãðàäèåíò_11"/><linearGradient id="Áåçûìÿííûé_ãðàäèåíò_149-30" x1="490.82" y1="522.2" x2="642.84" y2="435.51" gradientTransform="matrix(-1, 0, 0, 1, 1117.52, 0)" xlink:href="#Áåçûìÿííûé_ãðàäèåíò_149"/><clipPath id="clip-path-2"><path id="SVGID-2" data-name="SVGID" class="cls-1" d="M1917.14,435.78V642.26c-25,7.08-56.79,8-72.29-30.44-6.52-16.14-5.59-27.93-9-40.58-17.66-65.57-115.52-19.91-215,12.17-104.35,33.66-157.86,50.13-223,32.47-1.89-.51-1.78-.51-121-54.79-104.74-47.68-166-74.33-184-22.32-8.85,25.52-1.15,60.08-12,73.05-12,14.4-29.61-17.34-47-34.49-72.91-71.94-167.4,88.08-193,26.37-7.42-17.88-.1-32.53-7-50.72-21.33-56.25-101,73.13-204,87.25-118.42,16.23-168.82-133.41-261-54.79-27.55,23.5-28.66,41.65-57,56.82-62.49,33.44-101.59-31-168-46.67-32.54-7.7-81.44-6-144.66,46.67v-265Z"/></clipPath><linearGradient id="Áåçûìÿííûé_ãðàäèåíò_12-2" x1="957.78" y1="400.36" x2="957.78" y2="670.35" xlink:href="#Áåçûìÿííûé_ãðàäèåíò_12"/><linearGradient id="Áåçûìÿííûé_ãðàäèåíò_21-26" x1="39.54" y1="654.7" x2="82.07" y2="614.91" xlink:href="#Áåçûìÿííûé_ãðàäèåíò_21"/><linearGradient id="Áåçûìÿííûé_ãðàäèåíò_21-27" x1="164.47" y1="634.11" x2="192.53" y2="607.86" xlink:href="#Áåçûìÿííûé_ãðàäèåíò_21"/><linearGradient id="Áåçûìÿííûé_ãðàäèåíò_21-28" x1="222.83" y1="684.77" x2="270.47" y2="640.2" xlink:href="#Áåçûìÿííûé_ãðàäèåíò_21"/><linearGradient id="Áåçûìÿííûé_ãðàäèåíò_21-29" x1="364.81" y1="656.3" x2="386.57" y2="635.95" xlink:href="#Áåçûìÿííûé_ãðàäèåíò_21"/><linearGradient id="Áåçûìÿííûé_ãðàäèåíò_21-30" x1="520.69" y1="935.14" x2="442.52" y2="224.34" xlink:href="#Áåçûìÿííûé_ãðàäèåíò_21"/><linearGradient id="Áåçûìÿííûé_ãðàäèåíò_21-31" x1="579.68" y1="940.9" x2="497.3" y2="191.75" xlink:href="#Áåçûìÿííûé_ãðàäèåíò_21"/><linearGradient id="Áåçûìÿííûé_ãðàäèåíò_21-32" x1="673.31" y1="904.35" x2="594.7" y2="189.53" xlink:href="#Áåçûìÿííûé_ãðàäèåíò_21"/><linearGradient id="Áåçûìÿííûé_ãðàäèåíò_21-33" x1="675.64" y1="667.39" x2="706.86" y2="638.19" xlink:href="#Áåçûìÿííûé_ãðàäèåíò_21"/><linearGradient id="Áåçûìÿííûé_ãðàäèåíò_21-34" x1="852.28" y1="862.21" x2="775.1" y2="160.42" xlink:href="#Áåçûìÿííûé_ãðàäèåíò_21"/><linearGradient id="Áåçûìÿííûé_ãðàäèåíò_21-35" x1="838.62" y1="648.97" x2="886.05" y2="604.61" xlink:href="#Áåçûìÿííûé_ãðàäèåíò_21"/><linearGradient id="Áåçûìÿííûé_ãðàäèåíò_23-5" x1="551.88" y1="543" x2="577.33" y2="519.19" xlink:href="#Áåçûìÿííûé_ãðàäèåíò_23"/><linearGradient id="Áåçûìÿííûé_ãðàäèåíò_21-36" x1="682.32" y1="581.74" x2="697.3" y2="567.74" xlink:href="#Áåçûìÿííûé_ãðàäèåíò_21"/><linearGradient id="Áåçûìÿííûé_ãðàäèåíò_21-37" x1="1028.02" y1="670.13" x2="1067.55" y2="633.15" xlink:href="#Áåçûìÿííûé_ãðàäèåíò_21"/><linearGradient id="Áåçûìÿííûé_ãðàäèåíò_21-38" x1="1148.17" y1="638.11" x2="1170.45" y2="617.27" xlink:href="#Áåçûìÿííûé_ãðàäèåíò_21"/><linearGradient id="Áåçûìÿííûé_ãðàäèåíò_21-39" x1="1207.41" y1="689.09" x2="1249.15" y2="650.04" xlink:href="#Áåçûìÿííûé_ãðàäèåíò_21"/><linearGradient id="Áåçûìÿííûé_ãðàäèåíò_21-40" x1="1352.49" y1="659.69" x2="1367.5" y2="645.65" xlink:href="#Áåçûìÿííûé_ãðàäèåíò_21"/><linearGradient id="Áåçûìÿííûé_ãðàäèåíò_21-41" x1="1421.61" y1="1009.29" x2="1498.09" y2="79.94" xlink:href="#Áåçûìÿííûé_ãðàäèåíò_21"/><linearGradient id="Áåçûìÿííûé_ãðàäèåíò_21-42" x1="1498.98" y1="645.78" x2="1514.67" y2="631.1" xlink:href="#Áåçûìÿííûé_ãðàäèåíò_21"/><linearGradient id="Áåçûìÿííûé_ãðàäèåíò_21-43" x1="1583.09" y1="1044.28" x2="1661.7" y2="89.08" xlink:href="#Áåçûìÿííûé_ãðàäèåíò_21"/><linearGradient id="Áåçûìÿííûé_ãðàäèåíò_21-44" x1="1659.6" y1="1064.75" x2="1739.76" y2="90.72" xlink:href="#Áåçûìÿííûé_ãðàäèåíò_21"/><linearGradient id="Áåçûìÿííûé_ãðàäèåíò_21-45" x1="1749.43" y1="1060.28" x2="1826.41" y2="124.8" xlink:href="#Áåçûìÿííûé_ãðàäèåíò_21"/><linearGradient id="Áåçûìÿííûé_ãðàäèåíò_21-46" x1="1806.68" y1="640.95" x2="1854.42" y2="596.29" xlink:href="#Áåçûìÿííûé_ãðàäèåíò_21"/><linearGradient id="Áåçûìÿííûé_ãðàäèåíò_23-6" x1="1527.01" y1="566.8" x2="1552.46" y2="543" xlink:href="#Áåçûìÿííûé_ãðàäèåíò_23"/><linearGradient id="Áåçûìÿííûé_ãðàäèåíò_21-47" x1="1364.41" y1="598.41" x2="1379.38" y2="584.4" xlink:href="#Áåçûìÿííûé_ãðàäèåíò_21"/><linearGradient id="Áåçûìÿííûé_ãðàäèåíò_23-7" x1="1056.03" y1="762.08" x2="1098.68" y2="538.42" xlink:href="#Áåçûìÿííûé_ãðàäèåíò_23"/><linearGradient id="Áåçûìÿííûé_ãðàäèåíò_21-48" x1="978.09" y1="723.72" x2="1019.17" y2="508.21" xlink:href="#Áåçûìÿííûé_ãðàäèåíò_21"/><linearGradient id="Áåçûìÿííûé_ãðàäèåíò_21-49" x1="1220.83" y1="566.93" x2="1232.42" y2="556.08" xlink:href="#Áåçûìÿííûé_ãðàäèåíò_21"/><linearGradient id="Áåçûìÿííûé_ãðàäèåíò_23-8" x1="1156.07" y1="784.71" x2="1197.06" y2="569.67" xlink:href="#Áåçûìÿííûé_ãðàäèåíò_23"/><linearGradient id="Áåçûìÿííûé_ãðàäèåíò_51-15" x1="97.08" y1="339.7" x2="220.7" y2="376.38" xlink:href="#Áåçûìÿííûé_ãðàäèåíò_51"/><linearGradient id="Áåçûìÿííûé_ãðàäèåíò_51-16" x1="773.45" y1="112.46" x2="900.83" y2="373.78" xlink:href="#Áåçûìÿííûé_ãðàäèåíò_51"/><linearGradient id="Áåçûìÿííûé_ãðàäèåíò_149-31" x1="561.86" y1="324.47" x2="879.53" y2="371.38" xlink:href="#Áåçûìÿííûé_ãðàäèåíò_149"/><linearGradient id="Áåçûìÿííûé_ãðàäèåíò_149-32" x1="950.11" y1="161.68" x2="987.99" y2="298.45" xlink:href="#Áåçûìÿííûé_ãðàäèåíò_149"/><linearGradient id="Áåçûìÿííûé_ãðàäèåíò_149-33" x1="807.67" y1="316.75" x2="813.07" y2="336.24" xlink:href="#Áåçûìÿííûé_ãðàäèåíò_149"/><linearGradient id="Áåçûìÿííûé_ãðàäèåíò_149-34" x1="1074.3" y1="287.57" x2="1088.85" y2="340.09" xlink:href="#Áåçûìÿííûé_ãðàäèåíò_149"/><linearGradient id="Áåçûìÿííûé_ãðàäèåíò_149-35" x1="856.01" y1="235.94" x2="864.14" y2="265.29" xlink:href="#Áåçûìÿííûé_ãðàäèåíò_149"/><linearGradient id="Áåçûìÿííûé_ãðàäèåíò_11-14" x1="634.22" y1="323.05" x2="670.28" y2="527.4" xlink:href="#Áåçûìÿííûé_ãðàäèåíò_11"/><linearGradient id="Áåçûìÿííûé_ãðàäèåíò_11-15" x1="761.69" y1="299.74" x2="802.36" y2="530.17" xlink:href="#Áåçûìÿííûé_ãðàäèåíò_11"/><linearGradient id="Áåçûìÿííûé_ãðàäèåíò_11-16" x1="819.95" y1="376.85" x2="746.23" y2="293.73" xlink:href="#Áåçûìÿííûé_ãðàäèåíò_11"/><linearGradient id="Áåçûìÿííûé_ãðàäèåíò_11-17" x1="875.42" y1="137.32" x2="1033.96" y2="709.92" xlink:href="#Áåçûìÿííûé_ãðàäèåíò_11"/><linearGradient id="Áåçûìÿííûé_ãðàäèåíò_11-18" x1="980.26" y1="101.23" x2="1187.86" y2="851.01" xlink:href="#Áåçûìÿííûé_ãðàäèåíò_11"/><linearGradient id="Áåçûìÿííûé_ãðàäèåíò_51-17" x1="597.5" y1="662.48" x2="849.81" y2="238.59" xlink:href="#Áåçûìÿííûé_ãðàäèåíò_51"/><linearGradient id="Áåçûìÿííûé_ãðàäèåíò_149-36" x1="477.55" y1="432.86" x2="477.6" y2="432.88" xlink:href="#Áåçûìÿííûé_ãðàäèåíò_149"/><linearGradient id="Áåçûìÿííûé_ãðàäèåíò_149-37" x1="471.73" y1="406.53" x2="587.12" y2="440.77" xlink:href="#Áåçûìÿííûé_ãðàäèåíò_149"/><linearGradient id="Áåçûìÿííûé_ãðàäèåíò_149-38" x1="709.71" y1="347.37" x2="1117" y2="468.21" xlink:href="#Áåçûìÿííûé_ãðàäèåíò_149"/><linearGradient id="Áåçûìÿííûé_ãðàäèåíò_51-18" x1="1076.1" y1="190.95" x2="1100.82" y2="246.57" xlink:href="#Áåçûìÿííûé_ãðàäèåíò_51"/><linearGradient id="Áåçûìÿííûé_ãðàäèåíò_149-39" x1="1122.69" y1="184.19" x2="1151.43" y2="288" xlink:href="#Áåçûìÿííûé_ãðàäèåíò_149"/><linearGradient id="Áåçûìÿííûé_ãðàäèåíò_149-40" x1="1206.06" y1="270.33" x2="1208.84" y2="280.36" xlink:href="#Áåçûìÿííûé_ãðàäèåíò_149"/><linearGradient id="Áåçûìÿííûé_ãðàäèåíò_51-19" x1="1127.22" y1="212.37" x2="1129.37" y2="280.99" xlink:href="#Áåçûìÿííûé_ãðàäèåíò_51"/><linearGradient id="Áåçûìÿííûé_ãðàäèåíò_51-20" x1="1159.19" y1="211.43" x2="1161.33" y2="280.03" xlink:href="#Áåçûìÿííûé_ãðàäèåíò_51"/><linearGradient id="Áåçûìÿííûé_ãðàäèåíò_149-41" x1="768.94" y1="395.55" x2="774.06" y2="414.07" xlink:href="#Áåçûìÿííûé_ãðàäèåíò_149"/><linearGradient id="Áåçûìÿííûé_ãðàäèåíò_149-42" x1="864.76" y1="398.54" x2="869.01" y2="413.86" xlink:href="#Áåçûìÿííûé_ãðàäèåíò_149"/><linearGradient id="Áåçûìÿííûé_ãðàäèåíò_51-21" x1="945.21" y1="372.6" x2="955.06" y2="408.2" xlink:href="#Áåçûìÿííûé_ãðàäèåíò_51"/><linearGradient id="Áåçûìÿííûé_ãðàäèåíò_149-43" x1="1034.91" y1="389.8" x2="1034.92" y2="389.85" xlink:href="#Áåçûìÿííûé_ãðàäèåíò_149"/><linearGradient id="Áåçûìÿííûé_ãðàäèåíò_149-44" x1="584.36" y1="500.6" x2="523.88" y2="404.21" xlink:href="#Áåçûìÿííûé_ãðàäèåíò_149"/><linearGradient id="Áåçûìÿííûé_ãðàäèåíò_149-45" x1="622.76" y1="479.48" x2="561.41" y2="381.71" xlink:href="#Áåçûìÿííûé_ãðàäèåíò_149"/><linearGradient id="Áåçûìÿííûé_ãðàäèåíò_149-46" x1="1083.34" y1="263.13" x2="1087.78" y2="279.19" xlink:href="#Áåçûìÿííûé_ãðàäèåíò_149"/><linearGradient id="Áåçûìÿííûé_ãðàäèåíò_149-47" x1="861.84" y1="244.23" x2="868.41" y2="267.95" xlink:href="#Áåçûìÿííûé_ãðàäèåíò_149"/><linearGradient id="Áåçûìÿííûé_ãðàäèåíò_149-48" x1="537.32" y1="381.68" x2="541.81" y2="397.88" xlink:href="#Áåçûìÿííûé_ãðàäèåíò_149"/><linearGradient id="Áåçûìÿííûé_ãðàäèåíò_149-49" x1="852.54" y1="358.46" x2="862.9" y2="395.86" xlink:href="#Áåçûìÿííûé_ãðàäèåíò_149"/><linearGradient id="Áåçûìÿííûé_ãðàäèåíò_10-2" x1="731.09" y1="436.45" x2="731.31" y2="436.25" xlink:href="#Áåçûìÿííûé_ãðàäèåíò_10"/><linearGradient id="Áåçûìÿííûé_ãðàäèåíò_51-22" x1="1332.91" y1="74.53" x2="1471.2" y2="377.41" xlink:href="#Áåçûìÿííûé_ãðàäèåíò_51"/><linearGradient id="Áåçûìÿííûé_ãðàäèåíò_149-50" x1="572.93" y1="302.04" x2="600.25" y2="337.13" xlink:href="#Áåçûìÿííûé_ãðàäèåíò_149"/><linearGradient id="Áåçûìÿííûé_ãðàäèåíò_11-19" x1="162.92" y1="294.66" x2="195.01" y2="497.76" xlink:href="#Áåçûìÿííûé_ãðàäèåíò_11"/><linearGradient id="Áåçûìÿííûé_ãðàäèåíò_51-23" x1="-54.31" y1="305.85" x2="533.57" y2="480.28" xlink:href="#Áåçûìÿííûé_ãðàäèåíò_51"/><linearGradient id="Áåçûìÿííûé_ãðàäèåíò_149-51" x1="504.3" y1="472.97" x2="155.68" y2="367.32" xlink:href="#Áåçûìÿííûé_ãðàäèåíò_149"/><linearGradient id="Áåçûìÿííûé_ãðàäèåíò_149-52" x1="584.91" y1="436.89" x2="443.39" y2="394.01" xlink:href="#Áåçûìÿííûé_ãðàäèåíò_149"/><linearGradient id="Áåçûìÿííûé_ãðàäèåíò_11-20" x1="259.79" y1="213.94" x2="373.78" y2="935.47" xlink:href="#Áåçûìÿííûé_ãðàäèåíò_11"/><linearGradient id="Áåçûìÿííûé_ãðàäèåíò_149-53" x1="1073.06" y1="274.25" x2="1149.61" y2="758.76" xlink:href="#Áåçûìÿííûé_ãðàäèåíò_149"/><linearGradient id="Áåçûìÿííûé_ãðàäèåíò_149-54" x1="1456.48" y1="420.52" x2="1466.38" y2="483.19" xlink:href="#Áåçûìÿííûé_ãðàäèåíò_149"/><linearGradient id="Áåçûìÿííûé_ãðàäèåíò_149-55" x1="1483.33" y1="378.39" x2="1507.32" y2="530.2" xlink:href="#Áåçûìÿííûé_ãðàäèåíò_149"/><linearGradient id="Áåçûìÿííûé_ãðàäèåíò_149-56" x1="1475.34" y1="348.32" x2="1508" y2="555.07" xlink:href="#Áåçûìÿííûé_ãðàäèåíò_149"/><linearGradient id="Áåçûìÿííûé_ãðàäèåíò_11-21" x1="1396.46" y1="132.89" x2="1454.09" y2="695.69" xlink:href="#Áåçûìÿííûé_ãðàäèåíò_11"/><linearGradient id="Áåçûìÿííûé_ãðàäèåíò_11-22" x1="1271.69" y1="144.64" x2="1329.46" y2="708.94" xlink:href="#Áåçûìÿííûé_ãðàäèåíò_11"/><linearGradient id="Áåçûìÿííûé_ãðàäèåíò_149-57" x1="1584.11" y1="447.34" x2="1618.85" y2="551.98" xlink:href="#Áåçûìÿííûé_ãðàäèåíò_149"/><linearGradient id="Áåçûìÿííûé_ãðàäèåíò_149-58" x1="1749.19" y1="393.98" x2="1784.87" y2="501.48" xlink:href="#Áåçûìÿííûé_ãðàäèåíò_149"/><linearGradient id="Áåçûìÿííûé_ãðàäèåíò_11-23" x1="1691.91" y1="380.04" x2="1691.91" y2="654.98" xlink:href="#Áåçûìÿííûé_ãðàäèåíò_11"/><linearGradient id="Áåçûìÿííûé_ãðàäèåíò_11-24" x1="91.81" y1="380.04" x2="91.81" y2="654.98" xlink:href="#Áåçûìÿííûé_ãðàäèåíò_11"/><linearGradient id="Áåçûìÿííûé_ãðàäèåíò_51-24" x1="58.19" y1="605.53" x2="80.3" y2="488.03" xlink:href="#Áåçûìÿííûé_ãðàäèåíò_51"/><linearGradient id="Áåçûìÿííûé_ãðàäèåíò_149-59" x1="44.18" y1="536.51" x2="57.61" y2="465.19" xlink:href="#Áåçûìÿííûé_ãðàäèåíò_149"/><linearGradient id="Áåçûìÿííûé_ãðàäèåíò_21-50" x1="56.4" y1="558.12" x2="15.43" y2="492.82" xlink:href="#Áåçûìÿííûé_ãðàäèåíò_21"/><linearGradient id="Áåçûìÿííûé_ãðàäèåíò_51-25" x1="793.62" y1="468.5" x2="886.29" y2="415.66" gradientTransform="matrix(-1, 0.02, 0.02, 1, 1107.9, 2.03)" xlink:href="#Áåçûìÿííûé_ãðàäèåíò_51"/><linearGradient id="Áåçûìÿííûé_ãðàäèåíò_33-5" x1="1120.14" y1="794.12" x2="1265.52" y2="685.3" xlink:href="#Áåçûìÿííûé_ãðàäèåíò_33"/><linearGradient id="Áåçûìÿííûé_ãðàäèåíò_33-6" x1="1059.11" y1="501.14" x2="1129.59" y2="305.7" gradientTransform="matrix(-1, -0.03, -0.03, 1, 1172.84, -101.33)" xlink:href="#Áåçûìÿííûé_ãðàäèåíò_33"/><linearGradient id="Áåçûìÿííûé_ãðàäèåíò_33-7" x1="1169.8" y1="559.7" x2="1276.24" y2="698.77" xlink:href="#Áåçûìÿííûé_ãðàäèåíò_33"/><radialGradient id="Áåçûìÿííûé_ãðàäèåíò_100-2" cx="1184.9" cy="644.68" r="62.43" xlink:href="#Áåçûìÿííûé_ãðàäèåíò_100"/><linearGradient id="Áåçûìÿííûé_ãðàäèåíò_33-8" x1="1091.7" y1="268.79" x2="1269.54" y2="392.26" gradientTransform="matrix(-1, -0.03, -0.03, 1, 1172.84, -101.33)" xlink:href="#Áåçûìÿííûé_ãðàäèåíò_33"/><linearGradient id="Áåçûìÿííûé_ãðàäèåíò_18-4" x1="1162.87" y1="694.87" x2="1264.61" y2="843.99" xlink:href="#Áåçûìÿííûé_ãðàäèåíò_18"/><linearGradient id="Áåçûìÿííûé_ãðàäèåíò_18-5" x1="1089.13" y1="353.59" x2="1158.21" y2="454.85" gradientTransform="matrix(-1, -0.03, -0.03, 1, 1172.84, -101.33)" xlink:href="#Áåçûìÿííûé_ãðàäèåíò_18"/><linearGradient id="Áåçûìÿííûé_ãðàäèåíò_18-6" x1="1149.75" y1="446.61" x2="1412.52" y2="810.86" gradientTransform="matrix(-1, -0.03, -0.03, 1, 1172.84, -101.33)" xlink:href="#Áåçûìÿííûé_ãðàäèåíò_18"/><linearGradient id="Áåçûìÿííûé_ãðàäèåíò_202-3" x1="1247.47" y1="552.97" x2="1200.97" y2="512.65" gradientTransform="matrix(-0.96, -0.27, -0.27, 0.96, 1480.74, -170.45)" xlink:href="#Áåçûìÿííûé_ãðàäèåíò_100"/><linearGradient id="Áåçûìÿííûé_ãðàäèåíò_202-4" x1="984.86" y1="44.26" x2="910.53" y2="-20.19" gradientTransform="matrix(-0.99, 0.17, 0.17, 0.99, 981.91, -3.19)" xlink:href="#Áåçûìÿííûé_ãðàäèåíò_100"/><linearGradient id="Áåçûìÿííûé_ãðàäèåíò_479-4" x1="1110.88" y1="823.71" x2="1403.96" y2="637.09" xlink:href="#Áåçûìÿííûé_ãðàäèåíò_479"/><linearGradient id="Áåçûìÿííûé_ãðàäèåíò_479-5" x1="991.62" y1="476.96" x2="1241.26" y2="318" gradientTransform="matrix(-1, -0.03, -0.03, 1, 1172.84, -101.33)" xlink:href="#Áåçûìÿííûé_ãðàäèåíò_479"/><linearGradient id="Áåçûìÿííûé_ãðàäèåíò_479-6" x1="1014.87" y1="495.25" x2="1238.59" y2="352.79" gradientTransform="matrix(-1, -0.03, -0.03, 1, 1172.84, -101.33)" xlink:href="#Áåçûìÿííûé_ãðàäèåíò_479"/><linearGradient id="Áåçûìÿííûé_ãðàäèåíò_205-3" x1="1114.04" y1="700.05" x2="1307.62" y2="697.28" xlink:href="#Áåçûìÿííûé_ãðàäèåíò_205"/><linearGradient id="Áåçûìÿííûé_ãðàäèåíò_205-4" x1="1020.51" y1="413.5" x2="1123.22" y2="354.31" gradientTransform="matrix(-1, -0.03, -0.03, 1, 1172.84, -101.33)" xlink:href="#Áåçûìÿííûé_ãðàäèåíò_205"/><linearGradient id="Áåçûìÿííûé_ãðàäèåíò_51-26" x1="946.93" y1="268.51" x2="1175.57" y2="472.91" gradientTransform="matrix(-1, 0, 0, 1, 1117.52, 0)" xlink:href="#Áåçûìÿííûé_ãðàäèåíò_51"/><linearGradient id="Áåçûìÿííûé_ãðàäèåíò_51-27" x1="794.89" y1="200.17" x2="914.26" y2="432.97" gradientTransform="matrix(-1, 0, 0, 1, 1117.52, 0)" xlink:href="#Áåçûìÿííûé_ãðàäèåíò_51"/><linearGradient id="Áåçûìÿííûé_ãðàäèåíò_11-25" x1="847.02" y1="243.48" x2="991.47" y2="529.71" gradientTransform="matrix(-1, 0, 0, 1, 1117.52, 0)" xlink:href="#Áåçûìÿííûé_ãðàäèåíò_11"/><linearGradient id="Áåçûìÿííûé_ãðàäèåíò_37-2" x1="1049.21" y1="313.84" x2="1216.3" y2="531.52" xlink:href="#Áåçûìÿííûé_ãðàäèåíò_37"/><linearGradient id="Áåçûìÿííûé_ãðàäèåíò_11-26" x1="961.5" y1="444.66" x2="1017.95" y2="532.94" gradientTransform="matrix(-1, 0.02, 0.02, 1, 1107.9, 2.03)" xlink:href="#Áåçûìÿííûé_ãðàäèåíò_11"/><linearGradient id="Áåçûìÿííûé_ãðàäèåíò_149-60" x1="491.68" y1="521.34" x2="643.69" y2="434.65" gradientTransform="matrix(-1, 0, 0, 1, 1117.52, 0)" xlink:href="#Áåçûìÿííûé_ãðàäèåíò_149"/></defs><g class="cls-2"><g id="Layer_1" data-name="Layer 1"><g id="footer"><g class="cls-3"><path class="cls-4" d="M1917.61,436.88V643.36c-25,7.08-56.79,7.95-72.29-30.44-6.52-16.14-5.6-27.93-9-40.58-17.66-65.57-115.52-19.91-215,12.17-104.36,33.66-157.86,50.13-223,32.47-1.89-.51-1.78-.51-121-54.79-104.74-47.68-166-74.33-184-22.32-8.85,25.51-1.15,60.08-12,73-12,14.4-29.61-17.34-47-34.49-72.91-71.94-167.4,88.08-193,26.37-7.42-17.88-.1-32.53-7-50.72-21.33-56.25-101,73.13-204,87.25-118.42,16.23-168.82-133.41-261-54.79-27.55,23.5-28.66,41.65-57,56.82-62.49,33.44-101.59-31-168-46.67-32.54-7.7-81.45-6-144.66,46.67v-265Z"/><polygon class="cls-5" points="159.68 569.93 149.96 643.11 67.67 643.11 53.47 553.27 80.34 538.99 159.68 569.93"/><polygon class="cls-6" points="196.8 550.89 215.99 548.51 215.02 643.11 198.63 643.11 196.8 550.89"/><polygon class="cls-7" points="329.88 560.41 367 610.4 363.53 643.11 227.51 643.11 227.51 593.74 320.93 550.89 329.88 560.41"/><polygon class="cls-8" points="375.95 615.16 419.46 605.64 415.29 643.11 372.44 643.11 375.95 615.16"/><polygon class="cls-9" points="535.92 510.43 510.04 643.11 428.17 643.11 433.54 553.27 487.29 515.19 535.92 510.43"/><polygon class="cls-10" points="542.32 586.6 557.67 579.46 544.54 643.11 530.72 643.11 542.32 586.6"/><polygon class="cls-11" points="686.92 581.84 674.69 643.11 597.02 643.11 607.58 555.65 660.05 503.29 686.92 581.84"/><polygon class="cls-12" points="750.91 591.36 752.25 643.11 681.55 643.11 684.36 615.16 750.91 591.36"/><polygon class="cls-13" points="804.66 496.15 875.04 486.63 868.21 643.11 765.65 643.11 757.31 522.33 804.66 496.15"/><polygon class="cls-14" points="940.3 519.95 920.62 643.11 876.59 643.11 884 538.99 940.3 519.95"/><polygon class="cls-15" points="578.15 546.13 628.06 515.19 622.94 491.39 576.87 479.48 578.15 546.13"/><path class="cls-16" d="M681.8,548.51l7.68,26.18s21.76,21.43,21.76,16.67,10.24-42.85,10.24-42.85Z"/><polygon class="cls-17" points="1155.3 608.02 1159.33 643.11 1038.97 643.11 1028.61 577.07 1055.48 562.79 1155.3 608.02"/><polygon class="cls-18" points="1171.93 574.69 1191.13 572.31 1190.4 643.11 1173.29 643.11 1171.93 574.69"/><polygon class="cls-19" points="1305.02 584.22 1342.13 634.2 1341.34 643.11 1202.64 643.11 1202.64 617.54 1296.06 574.69 1305.02 584.22"/><polygon class="cls-20" points="1351.09 643.11 1394.6 629.44 1393.2 643.11 1350.77 643.11 1351.09 643.11"/><polygon class="cls-21" points="1511.05 534.23 1489.89 643.11 1404.75 643.11 1408.68 577.07 1462.42 538.99 1511.05 534.23"/><polygon class="cls-22" points="1517.45 610.4 1532.81 603.26 1524.72 643.11 1510.9 643.11 1517.45 610.4"/><polygon class="cls-23" points="1635.18 527.09 1662.06 605.64 1654.71 643.11 1575.09 643.11 1582.72 579.46 1635.18 527.09"/><polygon class="cls-24" points="1726.04 615.16 1726.75 643.11 1663.71 643.11 1690.21 512.81 1726.04 615.16"/><polygon class="cls-25" points="1852.73 503.29 1844.92 643.11 1739.12 643.11 1732.44 546.13 1782.35 512.81 1852.73 503.29"/><polygon class="cls-26" points="1912.88 515.19 1897.51 643.11 1852.44 643.11 1859.13 508.05 1912.88 515.19"/><polygon class="cls-27" points="1553.28 569.93 1603.19 538.99 1598.07 515.19 1552 503.29 1553.28 569.93"/><path class="cls-28" d="M1363.89,565.17l7.68,26.19s21.75,21.42,21.75,16.66,10.24-42.85,10.24-42.85Z"/><polygon class="cls-29" points="1067 541.37 1130.98 588.98 1136.1 472.34 1069.56 481.87 1067 541.37"/><path class="cls-30" d="M992.77,489l9,52.36s41,14.28,41,11.9,10.24-80.93,10.24-80.93Z"/><polygon class="cls-31" points="1234.64 531.85 1232.08 567.55 1239.76 574.69 1260.23 550.89 1234.64 531.85"/><polygon class="cls-32" points="1192.41 469.96 1179.61 541.37 1212.88 560.41 1243.6 460.44 1192.41 469.96"/></g><polygon class="cls-33" points="113.61 336.95 130.25 381.45 219.83 390.1 228.79 348.08 113.61 336.95"/><path class="cls-34" d="M1235.92,270.35l-11.76,17.45-5.69,1.26L1182.87,390l-34.11,6.31-10.38-1.89-84-15.31-159.59-.73-121.29-1.57L471.73,345.27l-13.2-28.9,285.92,14L731.93,293.6l84.72,2-17.36-46.4h0l430.1-55,0,.09c0,.1-.07.29-.12.54h0c-1,4.27-6.73,29-10.8,44.78-1.83,7.09-3.33,12.37-3.89,13.13C1212.6,255.4,1235.92,270.35,1235.92,270.35Z"/><polygon class="cls-35" points="536.76 328.56 535.98 358.89 700.81 379.35 701.95 374.9 712.59 333.11 722 334.63 697.41 374.47 790.9 370.43 810.48 324.4 536.76 328.56"/><polygon class="cls-36" points="839.05 253.56 844.89 298.75 902.35 310.41 884.49 372.21 842.29 369.88 854.63 356.76 747.51 354.14 738.42 368.72 1040.08 380.96 1146.55 395.54 1182.87 390 1217.97 288.84 1224.16 287.8 1235.91 270.34 1194.6 266.1 1214.56 252.79 1229.39 194.23 851.38 241.61 839.05 253.56"/><polygon class="cls-37" points="810.48 324.4 796.2 348.5 838.62 350.83 810.48 324.4"/><polygon class="cls-38" points="1108.25 299.04 1070.03 383.31 1076.12 385.63 1116.04 389.12 1116.04 322.65 1108.25 299.04"/><polygon class="cls-39" points="886.76 239.57 876.05 294.08 844.89 298.75 839.05 253.56 886.76 239.57"/><path class="cls-40" d="M458.61,317.41l53.24-16.33L810.48,324.4s-57.13,22.16-159.7,22.16S458.61,317.41,458.61,317.41Z"/><path class="cls-41" d="M1149.15,395.54l-2.8.25h0c-19,1.69-234.63,11.64-344.13,21-20.48,1.74-40.87,3.46-60.55,5.09l-.46,0c-27.59,2.3-53.78,4.44-76.83,6.26l-67.89-8.59L584.29,418c-.93.25-9.3-.93-18.31-2.31l-.11,0-3.47-.44-14.5,3.19c-4.48-2.34-9.34-4.87-14.51-7.53-13.51-7-29-14.95-44.55-22.88-43.63-22.25-87.53-44.38-88.64-44.94h0c79.22-17.49,307.72,18.66,307.72,18.66l321.79,2.33Z"/><polygon class="cls-42" points="747.51 354.14 788.41 339.27 846.84 348.02 854.63 356.76 771.86 362.01 747.51 354.14"/><polygon class="cls-43" points="731.93 293.79 902.35 310.41 1108.25 299.04 871.18 292.04 731.93 293.79"/><polygon class="cls-44" points="886.76 239.57 1050.8 246.56 1229.37 194.32 1158.89 194.09 799.12 249.19 839.05 253.56 886.76 239.57"/><path class="cls-45" d="M1146.56,395.54h0l-.21.24-24.47,27.73L767.28,436.59l-17.83.93-12.32-.17h0l-4.66-.58-.32.51.31-.52-68-8.61-67.89-8.59L584.29,418c-.93.25-9.3-.93-18.31-2.31l-.11,0-3.47-.44-14.5,3.19-69.48,15.3h0l-44.47-35.85-33.74-54.8h0l74.34,19,4.17.72h0l31.61,5.46,11.1,1.91,1.62.28,21.41,3.7,57,9.83,146.75,25.32.52,0,.81,0,71.91-3.34,2.28-.11,52.21-2.42,155.21-2.4Z"/><polygon class="cls-46" points="478.41 433.72 478.42 433.72 478.45 433.73 478.41 433.73 478.41 433.72"/><path class="cls-47" d="M596.48,419.55,584.29,418c-.93.25-9.3-.93-18.31-2.31l-.11,0-3.47-.44-14.5,3.19-69.48,15.3h0l17.54-28,37.44,5.15,9,1.22,8.53,1.17h0l.34,0,33.14,4.55Z"/><polygon class="cls-48" points="1146.56 395.54 1146.56 395.55 1146.55 395.55 1146.34 395.79 1121.87 423.52 767.28 436.59 749.45 437.52 737.1 437.34 732.43 436.76 741.66 421.84 749.49 409.18 821.4 405.84 823.68 405.73 875.89 403.31 1031.1 400.91 1146.56 395.54"/><polygon class="cls-49" points="1060.91 228.75 1105.93 230.27 1097.49 266.15 1095.8 297.99 1101.43 267.67 1124.22 225.09 1060.91 228.75"/><path class="cls-50" d="M1195.59,277.77l28.57,10-6.19,1L1182.87,390l-36.31,5.54-.08,0-16.11-4.41-2.63-.71-2-.55-5.75-1.57-46.75-12.8,35-76.44L1056,296l-5.23-49.4,54-16.64.76.77,10.11,10.35,8.11-15.46,1.42-.41,16.61-4.84,44.58-13,11.41-3.32,31.42-9.16h0c-1,4.27-6.73,29-10.8,44.78l-3.89,13.13-20,13.31Z"/><polygon class="cls-51" points="1218.47 289.06 1196.15 277.94 1224.16 287.8 1218.47 289.06"/><polygon class="cls-52" points="1141.82 220.34 1125.79 389.85 1120.04 388.28 1131.25 271.7 1127.87 270.19 1125.21 225.18 1141.82 220.34"/><path class="cls-53" d="M1197.81,204c-19.32,47.74-57.55,188.47-57.55,188.47l-9.89-1.39-2.78-.39a2.62,2.62,0,0,0,.15-.32c3.46-7.59,65.84-145.26,58.66-183Z"/><polygon class="cls-54" points="821.4 405.84 802.21 416.75 767.28 436.59 749.45 437.52 737.1 437.34 732.43 436.76 732.11 437.27 732.42 436.75 741.2 421.88 748.68 409.22 749.49 409.18 821.4 405.84"/><path class="cls-55" d="M875.89,403.3a64.74,64.74,0,0,1-7.57,28l-3,.15c4.42-8.59,7.18-18.11,6.28-28Z"/><path class="cls-56" d="M1031.1,400.91c-3.09,7.64-7.18,18.37-10.76,27.9h0l-135.91,1.68,4.41-27.78h0Z"/><path class="cls-57" d="M1035.88,390.72h-.19C1035.79,390.65,1035.85,390.64,1035.88,390.72Z"/><path class="cls-58" d="M523.05,370.39c-5.11,12.4-14.65,35.53-15.2,36.76-.75,1.69-1.87,0-1.87,0l4.35-38.95Z"/><path class="cls-59" d="M601.41,383.92c-6.47,13.24-16.7,32.73-17,34a.11.11,0,0,0,0,.05s0,.05-.09.07c-.93.25-9.3-.93-18.31-2.31l-.11,0c-5.09-.79-10.35-1.64-14.62-2.34l-.34-.05-8.52-1.4h0l.06-1.13,1.2-21.75.83-14.9Z"/><path class="cls-60" d="M1093.26,295.72s-13.23.84-13,0,17.39-29.4,17.39-29.4Z"/><polygon class="cls-61" points="876.23 291.92 885.51 247.7 872.29 287.12 856.53 289.65 853.72 292.43 876.23 291.92"/><polygon class="cls-62" points="542.36 412.88 543.11 387.27 550.99 413.55 542.36 412.88"/><polygon class="cls-63" points="888.84 402.71 822.77 381.88 902.11 402.1 884.42 430.49 888.84 402.71"/><polygon class="cls-64" points="732.43 436.76 732.11 437.27 732.42 436.75 732.43 436.76"/><polygon class="cls-65" points="1918 396.28 1918 444.48 1454.75 444.48 1456.63 440.84 1462.42 429.65 1412.8 427.25 1139.72 414.06 1136.64 413.91 1129.7 413.58 1130.75 412.32 1145.06 395.04 1027.33 362.91 1024.77 353.02 1303.74 395.04 1315.26 364.14 1468.77 381.01 1528.97 387.63 1520.59 406.13 1520.01 407.4 1547.2 408.92 1568.04 410.08 1567.46 410.7 1564.8 413.58 1584.75 412.6 1590.66 412.31 1674.65 408.2 1869.69 398.64 1918 396.28"/><path class="cls-66" d="M520.57,301.53c17.45,4,97.68,43.46,97.68,43.46s45.18,5.56,43.61,4-137.1-47-137.1-47Z"/><path class="cls-67" d="M113.62,337c57.58,18.54,115.17,11.13,115.17,11.13s-24.32-12.36-58.87-18.54S113.62,337,113.62,337Z"/><path class="cls-68" d="M.05,360.44v.08C0,360.48,0,360.46.05,360.44Z"/><path class="cls-69" d="M571.75,388.86,570.38,392l-12.71,29s-48.11,8.64-110.61,18l-8.41,1.26-3.82.56c-12.55,1.84-25.58,3.69-38.81,5.5C343.67,453.43,288,459.74,244.5,461.59c-6.84.3-13.38.49-19.55.54-3.72,0-7.31,0-10.74,0s-6.64-.16-9.74-.32C105.94,456.84.05,425.94.05,425.94V360.52C2.76,361.87,124,368,254.31,374.2c72.22,3.44,147.14,6.9,206.05,9.61l8.09.37,98,4.45C569.92,388.77,571.75,388.86,571.75,388.86Z"/><path class="cls-70" d="M460.36,383.81l-21.71,56.44-3.82.56,16.63-53.18L400.27,395s-2.78,34.25-4.25,51.27C343.67,453.43,288,459.74,244.5,461.59l2.2-70.26L225,390.1v72c-3.72,0-7.31,0-10.74,0l-20-86.83,60.07-1.07C326.53,377.64,401.45,381.1,460.36,383.81Z"/><path class="cls-71" d="M570.38,392l-12.71,29s-48.11,8.64-110.61,18l21.39-54.81,98,4.45Z"/><path class="cls-72" d="M.05,360.44s309.36-4.95,370.79-7.42,200.91,35.84,200.91,35.84-156.12,14.83-319.93,12.36S.05,360.44.05,360.44Z"/><polygon class="cls-73" points="1153.75 391.31 1139.72 414.06 1139.36 414.65 1136.64 413.91 1130.75 412.32 1145.06 395.04 1027.33 362.91 1024.77 353.02 1153.75 391.31"/><polygon class="cls-74" points="1456.63 440.84 1462.42 429.65 1457.31 440.77 1456.63 440.84"/><polygon class="cls-75" points="1568.04 410.08 1567.46 410.7 1467.54 418.52 1462.42 429.65 1412.8 427.25 1415.13 412.13 1547.2 408.92 1568.04 410.08"/><polygon class="cls-76" points="1528.97 387.63 1520.59 406.13 1438.11 403.69 1445.79 383.92 1468.77 381.01 1528.97 387.63"/><path class="cls-77" d="M1315.26,364.14l129.25,27.19,84.46-3.7s-35.83-12.36-89.58-23.49S1315.26,360.44,1315.26,364.14Z"/><polygon class="cls-78" points="1024.77 353.02 1151.46 390.1 1411.24 412.34 1568.64 409.87 1024.77 353.02"/><polygon class="cls-79" points="1590.66 412.31 1572.28 444.48 1566.12 444.48 1584.75 412.6 1590.66 412.31"/><polygon class="cls-80" points="1869.69 398.64 1858.74 444.48 1648.14 444.48 1674.65 408.2 1869.69 398.64"/><polygon class="cls-81" points="1467.54 418.52 1610.87 407.4 1918 387.63 1918 418.52 1467.54 418.52"/><polygon class="cls-82" points="0.05 388.16 185.28 424.7 0.05 418.52 0.05 388.16"/><polygon class="cls-83" points="0.05 444.32 41.95 444.32 176.32 484.03 185.28 424.7 0.05 419.08 0.05 444.32"/><polygon class="cls-84" points="44.7 420.34 43.4 443.9 81.3 456.52 89.3 421 44.7 420.34"/><polygon class="cls-85" points="4.84 487.73 21.48 482.79 36.83 497.62 36.83 513.69 6.12 506.27 4.84 487.73"/></g><polygon class="cls-86" points="157.21 376.51 36.71 369.98 56.41 340.38 163.65 356.96 157.21 376.51"/><polygon class="cls-87" points="116.96 121.81 116.95 121.88 110.75 170.42 109.79 177.93 109.25 182.24 109.25 182.25 102.07 238.56 99.49 258.84 86 364.56 111.85 365.03 125.89 365.3 134.71 335.64 141.82 311.77 195.15 132.65 195.07 132.45 195.07 132.43 141.1 33.24 129.14 96.78 116.97 121.8 116.96 121.81"/><polygon class="cls-88" points="21.42 182.32 30.49 237.97 34.48 262.34 39.84 295.28 40.98 302.3 49.28 353.2 49.29 353.24 61.61 350.72 76.63 347.65 78.14 302.1 78.14 302.09 78.35 295.68 80.47 231.82 81.57 198.43 82.35 175.12 82.34 175.12 45.09 179.52 45.08 179.52 28.3 181.5 28.29 181.5 21.42 182.32"/><polygon class="cls-89" points="116.95 121.88 146.53 167.09 155.76 181.19 169.03 164.84 195.15 132.65 199.77 106.63 180.85 21.86 180.42 18.29 180.34 18.14 171.29 0.2 141.1 33.24 116.97 121.8 116.96 121.82 116.95 121.88"/><polygon class="cls-90" points="116.87 121.68 116.96 121.81 116.96 121.82 116.96 121.82 146.58 167.09 155.68 181 168.76 164.87 195.07 132.45 195.07 132.43 199.69 106.43 180.82 21.87 180.77 21.65 180.34 18.14 180.33 18.08 171.21 0 141.02 33.03 116.87 121.68"/><polygon class="cls-91" points="22.81 103.42 21.42 182.32 35 201.93 64.24 207.56 64.25 207.56 75.05 209.63 78.67 192.5 82.34 175.12 74.52 159.57 33.91 88.71 22.81 103.42"/><path class="cls-92" d="M117,121.87l-6.2,48.55s0,0,0,0l-1,7.48-.54,4.31h0l-7.18,56.3-2.59,20.29h0L86,364.56l25.85.47L128.1,297h0l3.74-15.62,23.78-99.57h0l.13-.56-9.22-14.09h0Z"/><polygon class="cls-93" points="21.42 182.32 30.18 237.85 34.05 262.36 39.24 295.28 40.34 302.3 48.4 353.42 49.29 353.24 61.61 350.72 61.49 350.06 52.97 302.39 52.03 297.15 45.97 263.3 42.92 246.24 35 201.93 21.42 182.32"/><polygon class="cls-94" points="79.22 191.91 64.21 207.6 75.05 209.63 79.22 191.91"/><polygon class="cls-95" points="21.42 182.32 30.18 237.85 34.05 262.36 39.24 295.28 40.34 302.3 48.4 353.42 49.28 353.2 61.49 350.06 74.14 346.81 74.49 294.09 74.53 288.64 74.92 230.09 75.02 215.12 75.02 215.08 75.05 209.63 64.25 207.56 64.24 207.56 35 201.93 21.42 182.32"/><polygon class="cls-96" points="141.1 33.24 180.82 21.87 180.85 21.86 180.42 18.29 180.34 18.14 171.29 0.2 141.1 33.24"/><polygon class="cls-97" points="62.65 140.5 35 201.94 25.84 184.88 61.04 136.55 62.65 140.5"/><polygon class="cls-94" points="170.16 164.74 146.44 167.11 154.79 182.74 170.16 164.74"/><path class="cls-98" d="M110.75,170.42l-1,7.51-.54,4.31h0c6,34.28,12.64,76.34,8.91,76.07-2.65-.19-9.3-9.31-16.09-19.77l-2.59,20.29h0c12.18,10.81,24.27,24,28,36,.21.69.41,1.38.61,2.11h0c3.05,10.76,5.17,25.13,6.61,38.67l7.11-23.87-8.87-27s-.41-1.2-1.11-3.39C127.3,267.4,110.6,213,110.76,170.45,110.75,170.43,110.75,170.43,110.75,170.42Z"/><path class="cls-99" d="M30.17,237.85l3.88,24.51.43,0a42.05,42.05,0,0,1,11.49,1,28.74,28.74,0,0,1,12.13,5.92c5.7,4.77,11.46,14.58,16.39,24.87,1.27,2.65,2.49,5.36,3.65,8l.21-6.41c-1.19-2.27-2.47-4.63-3.82-7-8.31-14.88-19.4-31.74-31.61-42.4A49.65,49.65,0,0,0,30.49,238,1.53,1.53,0,0,0,30.17,237.85Z"/><path class="cls-100" d="M39.24,295.28l1.1,7H41l12,.09,12.34.08A63.64,63.64,0,0,0,52,297.15a50.11,50.11,0,0,0-12.19-1.87Z"/><polygon class="cls-101" points="141.02 33.03 116.87 121.68 116.96 121.81 116.95 121.88 110.75 170.42 109.79 177.93 109.25 182.24 109.25 182.25 102.07 238.56 99.48 258.84 99.49 258.84 86 364.56 111.85 365.03 125.89 365.3 134.71 335.64 141.82 311.77 195.15 132.65 199.77 106.63 180.85 21.86 180.42 18.29 180.34 18.14 180.33 18.08 171.21 0 141.02 33.03"/><polygon class="cls-102" points="22.81 103.42 21.42 182.32 30.18 237.85 34.05 262.36 39.24 295.28 40.34 302.3 48.4 353.42 49.29 353.24 61.61 350.72 76.63 347.65 78.14 302.1 78.14 302.09 78.35 295.68 80.47 231.82 81.57 198.43 82.35 175.12 82.34 175.12 74.52 159.57 33.91 88.71 22.81 103.42"/><polygon class="cls-103" points="93.5 396.59 53.67 398.61 2.61 389.31 17.41 349.52 84.26 322.26 84.26 322.28 84.27 322.28 93.5 396.59"/><polygon class="cls-104" points="357.97 383.17 215.78 390.37 213.27 390.5 125.39 383.21 167.51 255.81 344.13 294.43 344.13 294.43 357.97 383.17"/><polygon class="cls-105" points="344.13 294.43 214.71 358.02 167.51 255.81 344.13 294.43"/><polygon class="cls-106" points="214.71 358.02 213.27 390.5 125.39 383.21 167.51 255.81 214.71 358.02"/><polygon class="cls-107" points="84.26 322.28 57.58 362.38 17.41 349.52 84.26 322.28"/><polygon class="cls-106" points="57.58 362.38 53.67 398.61 2.61 389.31 17.41 349.52 57.58 362.38"/><polygon class="cls-108" points="256.84 337.19 207.51 342.8 214.71 358.02 256.84 337.19"/><polygon class="cls-109" points="327.81 388.92 321.12 311.4 254.23 272.64 194.04 262.95 314.43 321.09 327.81 388.92"/><g id="footer-2" data-name="footer"><g class="cls-110"><path class="cls-111" d="M1916.75,436V642.5c-25,7.09-56.79,8-72.29-30.44-6.52-16.14-5.59-27.93-9-40.58-17.66-65.57-115.52-19.91-215,12.18-104.35,33.65-157.86,50.12-223,32.46-1.89-.51-1.78-.51-121-54.78-104.73-47.69-166-74.34-184-22.32-8.85,25.51-1.15,60.07-12,73-12,14.4-29.61-17.33-47-34.49-72.91-71.93-167.4,88.09-193,26.38-7.42-17.88-.1-32.54-7-50.73-21.33-56.25-101,73.13-204,87.25C511,656.7,460.64,507.06,368.46,585.68c-27.55,23.5-28.66,41.65-57,56.82-62.49,33.45-101.59-31-168-46.67-32.54-7.7-81.44-6-144.66,46.67v-265Z"/><polygon class="cls-112" points="158.83 569.08 149.1 642.26 66.82 642.26 52.61 552.41 79.49 538.13 158.83 569.08"/><polygon class="cls-113" points="195.94 550.03 215.13 547.65 214.16 642.26 197.77 642.26 195.94 550.03"/><polygon class="cls-114" points="329.03 559.56 366.14 609.54 362.67 642.26 226.65 642.26 226.65 592.88 320.07 550.03 329.03 559.56"/><polygon class="cls-115" points="375.1 614.3 418.61 604.78 414.44 642.26 371.58 642.26 375.1 614.3"/><polygon class="cls-116" points="535.06 509.57 509.19 642.26 427.31 642.26 432.69 552.41 486.43 514.33 535.06 509.57"/><polygon class="cls-117" points="541.46 585.74 556.82 578.6 543.69 642.26 529.87 642.26 541.46 585.74"/><polygon class="cls-118" points="686.07 580.98 673.83 642.26 596.17 642.26 606.72 554.79 659.19 502.43 686.07 580.98"/><polygon class="cls-119" points="750.05 590.5 751.39 642.26 680.69 642.26 683.51 614.3 750.05 590.5"/><polygon class="cls-120" points="803.8 495.29 874.18 485.77 867.35 642.26 764.79 642.26 756.45 521.47 803.8 495.29"/><polygon class="cls-121" points="939.45 519.09 919.77 642.26 875.73 642.26 883.14 538.13 939.45 519.09"/><polygon class="cls-122" points="577.29 545.27 627.2 514.33 622.08 490.53 576.01 478.63 577.29 545.27"/><path class="cls-123" d="M681,547.65l7.68,26.19s21.75,21.42,21.75,16.66,10.24-42.85,10.24-42.85Z"/><polygon class="cls-124" points="1154.44 607.16 1158.47 642.26 1038.11 642.26 1027.75 576.22 1054.62 561.94 1154.44 607.16"/><polygon class="cls-125" points="1171.07 573.84 1190.27 571.46 1189.54 642.26 1172.43 642.26 1171.07 573.84"/><polygon class="cls-126" points="1304.16 583.36 1341.28 633.34 1340.48 642.26 1201.79 642.26 1201.79 616.68 1295.21 573.84 1304.16 583.36"/><polygon class="cls-127" points="1350.23 642.26 1393.74 628.58 1392.35 642.26 1349.91 642.26 1350.23 642.26"/><polygon class="cls-128" points="1510.2 533.37 1489.03 642.26 1403.89 642.26 1407.82 576.22 1461.57 538.13 1510.2 533.37"/><polygon class="cls-129" points="1516.6 609.54 1531.95 602.4 1523.86 642.26 1510.04 642.26 1516.6 609.54"/><polygon class="cls-130" points="1634.33 526.23 1661.2 604.78 1653.86 642.26 1574.23 642.26 1581.86 578.6 1634.33 526.23"/><polygon class="cls-131" points="1725.19 614.3 1725.89 642.26 1662.85 642.26 1689.36 511.95 1725.19 614.3"/><polygon class="cls-132" points="1851.88 502.43 1844.06 642.26 1738.27 642.26 1731.59 545.27 1781.49 511.95 1851.88 502.43"/><polygon class="cls-133" points="1912.02 514.33 1896.65 642.26 1851.58 642.26 1858.28 507.19 1912.02 514.33"/><polygon class="cls-134" points="1552.43 569.08 1602.34 538.13 1597.22 514.33 1551.15 502.43 1552.43 569.08"/><path class="cls-135" d="M1363,564.32l7.68,26.18s21.75,21.42,21.75,16.66,10.24-42.84,10.24-42.84Z"/><polygon class="cls-136" points="1066.14 540.51 1130.12 588.12 1135.24 471.49 1068.7 481.01 1066.14 540.51"/><path class="cls-137" d="M991.92,488.15l9,52.36s40.95,14.28,40.95,11.9,10.24-80.92,10.24-80.92Z"/><polygon class="cls-138" points="1233.78 530.99 1231.22 566.7 1238.9 573.84 1259.37 550.03 1233.78 530.99"/><polygon class="cls-139" points="1191.55 469.11 1178.75 540.51 1212.03 559.56 1242.74 459.58 1191.55 469.11"/></g><polygon class="cls-140" points="112.76 336.1 129.39 380.59 218.97 389.24 227.93 347.22 112.76 336.1"/><path class="cls-141" d="M1235.06,269.49l-11.76,17.45-5.69,1.26L1182,389.14l-34.1,6.31-10.38-1.89-84-15.31-159.59-.72L772.63,376,470.87,344.41l-13.2-28.9,285.92,14-12.52-36.78,84.72,2-17.35-46.4h0l430.1-55,0,.09c0,.1-.06.29-.12.55h0c-1,4.26-6.73,29-10.8,44.77-1.83,7.1-3.32,12.37-3.89,13.13C1211.74,254.55,1235.06,269.49,1235.06,269.49Z"/><polygon class="cls-142" points="535.9 327.71 535.12 358.03 699.95 378.5 701.09 374.04 711.73 332.25 721.15 333.77 696.55 373.61 790.05 369.57 809.63 323.55 535.9 327.71"/><polygon class="cls-143" points="838.19 252.7 844.03 297.89 901.49 309.55 883.63 371.36 841.44 369.03 853.77 355.91 746.65 353.28 737.56 367.86 1039.23 380.1 1145.7 394.68 1182.01 389.14 1217.11 287.98 1223.3 286.94 1235.06 269.49 1193.74 265.24 1213.7 251.93 1228.53 193.38 850.52 240.75 838.19 252.7"/><polygon class="cls-144" points="809.63 323.55 795.34 347.65 837.76 349.98 809.63 323.55"/><polygon class="cls-145" points="1107.39 298.18 1069.17 382.45 1075.26 384.77 1115.18 388.27 1115.18 321.8 1107.39 298.18"/><polygon class="cls-146" points="885.91 238.71 875.2 293.23 844.03 297.89 838.19 252.7 885.91 238.71"/><path class="cls-147" d="M457.76,316.55,511,300.22l298.64,23.33S752.5,345.7,649.92,345.7,457.76,316.55,457.76,316.55Z"/><path class="cls-148" d="M1148.3,394.68l-2.81.26h0c-19,1.68-234.62,11.64-344.13,20.95-20.47,1.74-40.87,3.46-60.54,5.09a3.73,3.73,0,0,1-.46,0c-27.6,2.3-53.78,4.44-76.84,6.26l-67.89-8.59-12.18-1.55c-.94.25-9.31-.93-18.32-2.31l-.11,0-3.46-.44-14.5,3.19c-4.48-2.33-9.35-4.87-14.51-7.53-13.52-7-29-14.95-44.56-22.87-43.63-22.26-87.53-44.39-88.63-44.94h0c79.21-17.5,307.71,18.65,307.71,18.65l321.79,2.34Z"/><polygon class="cls-149" points="746.65 353.28 787.55 338.41 845.98 347.16 853.77 355.91 771 361.15 746.65 353.28"/><polygon class="cls-150" points="731.07 292.94 901.49 309.55 1107.39 298.18 870.33 291.19 731.07 292.94"/><polygon class="cls-151" points="885.91 238.71 1049.94 245.71 1228.51 193.46 1158.03 193.23 798.26 248.33 838.19 252.7 885.91 238.71"/><path class="cls-152" d="M1145.7,394.68h0l-.21.25L1121,422.67,766.43,435.73l-17.83.93-12.33-.17h0l-4.67-.58-.31.51.3-.52-68-8.61-67.89-8.59-12.18-1.55c-.94.25-9.31-.93-18.32-2.31l-.11,0-3.46-.44-14.5,3.19-69.48,15.3h0L433.08,397l-33.73-54.79h0l74.33,19,4.17.72h0l31.62,5.46,11.1,1.91,1.62.28,21.4,3.7,57,9.83,146.76,25.33.52,0,.81,0,71.9-3.35,2.28-.11L875,402.45l155.21-2.4Z"/><polygon class="cls-153" points="477.56 432.86 477.57 432.86 477.6 432.87 477.56 432.87 477.56 432.86"/><path class="cls-154" d="M595.62,418.69l-12.18-1.55c-.94.25-9.31-.93-18.32-2.31l-.11,0-3.46-.44-14.5,3.19-69.48,15.3h0l17.53-28L532.54,410l9,1.23,8.53,1.16h0l.35,0L583.54,417Z"/><polygon class="cls-155" points="1145.7 394.68 1145.7 394.69 1145.69 394.69 1145.48 394.94 1121.02 422.67 766.43 435.73 748.6 436.66 736.24 436.48 731.58 435.9 740.81 420.99 748.64 408.33 820.54 404.98 822.82 404.87 875.03 402.45 1030.24 400.05 1145.7 394.68"/><polygon class="cls-156" points="1060.06 227.9 1105.07 229.41 1096.63 265.29 1094.94 297.13 1100.57 266.81 1123.36 224.23 1060.06 227.9"/><path class="cls-157" d="M1194.73,276.91l28.57,10-6.19,1L1182,389.14l-36.31,5.55-.08,0-16.11-4.42-2.63-.71-2-.54-5.75-1.58-46.75-12.79,35-76.45-52.22-3.07-5.24-49.4,54-16.64.76.77,10.12,10.36,8.11-15.46,1.42-.42,16.6-4.84,44.58-13,11.41-3.33,31.42-9.15h0c-1,4.26-6.73,29-10.8,44.77l-3.89,13.13-20,13.32Z"/><polygon class="cls-158" points="1217.61 288.2 1195.29 277.08 1223.3 286.94 1217.61 288.2"/><polygon class="cls-159" points="1140.96 219.48 1124.93 389 1119.18 387.42 1130.4 270.85 1127.01 269.33 1124.36 224.32 1140.96 219.48"/><path class="cls-160" d="M1197,203.17c-19.31,47.74-57.55,188.47-57.55,188.47l-9.89-1.39-2.77-.38.14-.33c3.46-7.59,65.84-145.26,58.66-183Z"/><polygon class="cls-161" points="820.54 404.98 801.35 415.89 766.43 435.73 748.6 436.66 736.24 436.48 731.58 435.9 731.26 436.42 731.57 435.89 740.35 421.02 747.83 408.37 748.64 408.33 820.54 404.98"/><path class="cls-162" d="M875,402.45a64.56,64.56,0,0,1-7.57,28l-3,.15c4.41-8.59,7.17-18.11,6.28-28Z"/><path class="cls-163" d="M1030.24,400.05c-3.09,7.64-7.17,18.37-10.76,27.9h0l-135.91,1.68L888,401.85h0Z"/><path class="cls-164" d="M1035,389.87h-.19C1034.93,389.79,1035,389.78,1035,389.87Z"/><path class="cls-165" d="M522.19,369.53c-5.1,12.4-14.65,35.53-15.2,36.77-.75,1.68-1.87,0-1.87,0l4.35-39Z"/><path class="cls-166" d="M600.55,383.06c-6.47,13.24-16.69,32.73-17,34a.11.11,0,0,0,0,.05s0,.05-.09.06c-.94.25-9.31-.93-18.32-2.31l-.11,0c-5.08-.78-10.35-1.63-14.61-2.34l-.35-.05-8.52-1.4h0l.06-1.13,1.2-21.74.83-14.91Z"/><path class="cls-167" d="M1092.4,294.86s-13.23.84-13,0,17.39-29.4,17.39-29.4Z"/><polygon class="cls-168" points="875.37 291.07 884.66 246.85 871.43 286.27 855.68 288.79 852.86 291.57 875.37 291.07"/><polygon class="cls-169" points="541.5 412.02 542.25 386.41 550.13 412.69 541.5 412.02"/><polygon class="cls-170" points="887.98 401.85 821.92 381.02 901.26 401.24 883.56 429.63 887.98 401.85"/><polygon class="cls-171" points="731.58 435.9 731.26 436.42 731.57 435.89 731.58 435.9"/><polygon class="cls-172" points="1917.14 395.42 1917.14 443.62 1453.89 443.62 1455.77 439.99 1461.57 428.79 1411.94 426.39 1138.87 413.2 1135.78 413.06 1128.84 412.72 1129.89 411.46 1144.2 394.18 1026.47 362.05 1023.91 352.16 1302.88 394.18 1314.4 363.29 1467.91 380.16 1528.11 386.77 1519.73 405.27 1519.15 406.54 1546.35 408.06 1567.18 409.23 1566.61 409.84 1563.94 412.72 1583.89 411.75 1589.81 411.45 1673.79 407.35 1868.83 397.78 1917.14 395.42"/><path class="cls-173" d="M519.71,300.67c17.45,4,97.68,43.46,97.68,43.46s45.18,5.56,43.61,4-137.1-47-137.1-47Z"/><path class="cls-174" d="M112.76,336.1c57.58,18.53,115.17,11.12,115.17,11.12s-24.31-12.36-58.87-18.54S112.76,336.1,112.76,336.1Z"/><path class="cls-175" d="M570.89,388l-1.37,3.12-12.7,29s-48.12,8.64-110.62,18l-8.41,1.26L434,440c-12.56,1.84-25.58,3.7-38.82,5.5-52.35,7.12-108.06,13.43-151.51,15.29-6.85.29-13.39.48-19.56.53-3.72,0-7.3,0-10.73,0s-6.65-.16-9.74-.32C105.08,456-.81,425.08-.81,425.08V359.67c2.71,1.34,123.92,7.46,254.26,13.68,72.23,3.43,147.14,6.89,206.06,9.6l8.08.37,98,4.45Z"/><path class="cls-176" d="M459.51,383l-21.72,56.44L434,440l16.62-53.18-51.19,7.41s-2.77,34.25-4.25,51.27c-52.35,7.12-108.06,13.43-151.51,15.29l2.2-70.26-21.76-1.24v72c-3.72,0-7.3,0-10.73,0l-20-86.83,60.07-1.06C325.68,376.78,400.59,380.24,459.51,383Z"/><path class="cls-177" d="M569.52,391.12l-12.7,29s-48.12,8.64-110.62,18l21.39-54.81,98,4.45Z"/><path class="cls-178" d="M-.81,359.58s309.36-4.95,370.79-7.42S570.89,388,570.89,388,414.77,402.84,251,400.36-.81,359.58-.81,359.58Z"/><polygon class="cls-179" points="1152.89 390.45 1138.87 413.2 1138.51 413.8 1135.78 413.06 1129.89 411.46 1144.2 394.18 1026.47 362.05 1023.91 352.16 1152.89 390.45"/><polygon class="cls-180" points="1455.77 439.99 1461.57 428.79 1456.45 439.91 1455.77 439.99"/><polygon class="cls-181" points="1567.18 409.23 1566.61 409.84 1466.69 417.67 1461.57 428.79 1411.94 426.39 1414.27 411.28 1546.35 408.06 1567.18 409.23"/><polygon class="cls-182" points="1528.11 386.77 1519.73 405.27 1437.25 402.83 1444.93 383.06 1467.91 380.16 1528.11 386.77"/><path class="cls-183" d="M1314.4,363.29l129.25,27.19,84.46-3.71s-35.83-12.36-89.58-23.48S1314.4,359.58,1314.4,363.29Z"/><polygon class="cls-184" points="1023.91 352.16 1150.6 389.24 1410.38 411.49 1567.78 409.01 1023.91 352.16"/><polygon class="cls-185" points="1589.81 411.45 1571.42 443.62 1565.26 443.62 1583.89 411.75 1589.81 411.45"/><polygon class="cls-186" points="1868.83 397.78 1857.88 443.62 1647.28 443.62 1673.79 407.35 1868.83 397.78"/><polygon class="cls-187" points="1466.69 417.67 1610.01 406.54 1917.14 386.77 1917.14 417.67 1466.69 417.67"/><polygon class="cls-188" points="-0.81 387.3 184.42 423.85 -0.81 417.67 -0.81 387.3"/><polygon class="cls-189" points="-0.81 443.46 41.09 443.46 175.46 483.17 184.42 423.85 -0.81 418.22 -0.81 443.46"/><polygon class="cls-190" points="43.84 419.48 42.54 443.04 80.44 455.66 88.44 420.14 43.84 419.48"/><polygon class="cls-191" points="3.98 486.88 20.62 481.93 35.98 496.76 35.98 512.83 5.26 505.42 3.98 486.88"/></g><polygon class="cls-192" points="156.35 375.65 35.86 369.12 55.56 339.53 162.79 356.1 156.35 375.65"/><polygon class="cls-193" points="116.1 120.95 116.09 121.02 109.89 169.57 108.93 177.07 108.39 181.39 108.39 181.4 101.21 237.7 98.63 257.98 85.15 363.7 110.99 364.17 125.03 364.44 133.85 334.78 140.96 310.92 194.29 131.79 194.21 131.59 194.21 131.57 140.24 32.38 128.28 95.92 116.11 120.94 116.1 120.95"/><polygon class="cls-194" points="20.57 181.47 29.64 237.12 33.62 261.48 38.98 294.42 40.13 301.44 48.42 352.34 48.43 352.38 60.76 349.86 75.77 346.79 77.28 301.24 77.28 301.23 77.49 294.82 79.61 230.96 80.72 197.57 81.49 174.26 81.48 174.26 44.23 178.66 44.22 178.66 27.44 180.64 27.43 180.64 20.57 181.47"/><polygon class="cls-195" points="116.09 121.02 145.67 166.24 154.9 180.34 168.17 163.99 194.29 131.79 198.92 105.77 179.99 21 179.56 17.43 179.49 17.28 170.44 -0.66 140.24 32.38 116.11 120.94 116.11 120.97 116.09 121.02"/><polygon class="cls-196" points="116.01 120.82 116.1 120.95 116.1 120.96 116.11 120.97 145.72 166.23 154.82 180.14 167.9 164.02 194.21 131.59 194.21 131.57 198.84 105.57 179.96 21.01 179.91 20.8 179.49 17.28 179.48 17.22 170.35 -0.86 140.17 32.17 116.01 120.82"/><polygon class="cls-197" points="21.95 102.56 20.57 181.47 34.14 201.08 63.39 206.7 63.39 206.7 74.2 208.77 77.82 191.64 81.48 174.26 73.66 158.72 33.05 87.86 21.95 102.56"/><path class="cls-198" d="M116.09,121l-6.2,48.55s0,0,0,0l-1,7.48-.54,4.32h0l-7.18,56.31L98.62,258h0L85.15,363.7l25.84.47,16.25-68.05v0L131,280.49l23.78-99.57h0l.14-.56-9.23-14.1h0Z"/><polygon class="cls-199" points="20.57 181.47 29.32 236.99 33.19 261.5 38.38 294.43 39.49 301.44 47.55 352.56 48.43 352.38 60.76 349.86 60.64 349.2 52.11 301.53 51.17 296.3 45.12 262.44 42.07 245.38 34.14 201.08 20.57 181.47"/><polygon class="cls-94" points="78.36 191.06 63.35 206.74 74.19 208.78 78.36 191.06"/><polygon class="cls-200" points="20.57 181.47 29.32 236.99 33.19 261.5 38.38 294.43 39.49 301.44 47.55 352.56 48.42 352.34 60.64 349.2 73.28 345.95 73.63 293.23 73.67 287.79 74.06 229.23 74.16 214.26 74.16 214.22 74.2 208.77 63.39 206.7 63.39 206.7 34.14 201.08 20.57 181.47"/><polygon class="cls-201" points="140.24 32.38 179.96 21.01 179.99 21 179.56 17.43 179.49 17.28 170.44 -0.66 140.24 32.38"/><polygon class="cls-202" points="61.79 139.65 34.14 201.08 24.98 184.02 60.18 135.7 61.79 139.65"/><polygon class="cls-94" points="169.3 163.88 145.58 166.25 153.93 181.89 169.3 163.88"/><path class="cls-203" d="M109.89,169.57l-1,7.5-.54,4.32h0c6,34.29,12.64,76.34,8.91,76.07-2.65-.19-9.3-9.31-16.09-19.76L98.62,258h0c12.18,10.82,24.27,23.95,28,36,.21.69.42,1.39.61,2.11v0c3,10.76,5.17,25.13,6.62,38.66l7.1-23.86-8.86-27.05s-.42-1.2-1.12-3.38c-4.54-13.94-21.24-68.35-21.08-110.9C109.89,169.58,109.89,169.58,109.89,169.57Z"/><path class="cls-204" d="M29.32,237l3.87,24.51.43,0a42.15,42.15,0,0,1,11.5,1,28.68,28.68,0,0,1,12.12,5.91c5.71,4.77,11.46,14.58,16.39,24.87,1.27,2.66,2.49,5.36,3.65,8l.21-6.41c-1.19-2.27-2.47-4.63-3.82-7-8.31-14.89-19.39-31.74-31.6-42.41a50.29,50.29,0,0,0-12.43-8.26C29.53,237.08,29.43,237,29.32,237Z"/><path class="cls-205" d="M38.38,294.42l1.11,7h.64l12,.09,12.34.08a64,64,0,0,0-13.27-5.31A49.7,49.7,0,0,0,39,294.42Z"/><polygon class="cls-206" points="140.17 32.17 116.01 120.82 116.1 120.95 116.09 121.02 109.89 169.57 108.93 177.07 108.39 181.39 108.39 181.4 101.21 237.7 98.62 257.98 98.63 257.98 85.15 363.7 110.99 364.17 125.03 364.44 133.85 334.78 140.96 310.92 194.29 131.79 198.92 105.77 179.99 21 179.56 17.43 179.49 17.28 179.48 17.22 170.35 -0.86 140.17 32.17"/><polygon class="cls-207" points="21.95 102.56 20.57 181.47 29.32 236.99 33.19 261.5 38.38 294.43 39.49 301.44 47.55 352.56 48.43 352.38 60.76 349.86 75.77 346.79 77.28 301.24 77.28 301.23 77.49 294.82 79.61 230.96 80.72 197.57 81.49 174.26 81.48 174.26 73.66 158.72 33.05 87.86 21.95 102.56"/><polygon class="cls-208" points="92.64 395.74 52.81 397.75 1.75 388.45 16.56 348.67 83.41 321.4 83.41 321.42 83.41 321.42 92.64 395.74"/><polygon class="cls-209" points="357.11 382.31 214.93 389.51 212.42 389.64 124.53 382.36 166.66 254.96 343.27 293.57 343.28 293.57 357.11 382.31"/><polygon class="cls-210" points="343.27 293.57 213.85 357.16 166.66 254.96 343.27 293.57"/><polygon class="cls-106" points="213.85 357.16 212.42 389.64 124.53 382.36 166.66 254.96 213.85 357.16"/><polygon class="cls-211" points="83.41 321.42 56.72 361.52 16.56 348.67 83.41 321.42"/><polygon class="cls-106" points="56.72 361.52 52.81 397.75 1.75 388.45 16.56 348.67 56.72 361.52"/><polygon class="cls-212" points="255.98 336.33 206.65 341.94 213.85 357.16 255.98 336.33"/><polygon class="cls-213" points="326.95 388.06 320.26 310.54 253.38 271.78 193.18 262.09 313.57 320.23 326.95 388.06"/></g></g></svg>