<svg xmlns="http://www.w3.org/2000/svg" xmlns:xlink="http://www.w3.org/1999/xlink" viewBox="0 0 1918 530.66"><defs><style>.cls-1{fill:none;clip-rule:evenodd;}.cls-2{isolation:isolate;}.cls-3{clip-path:url(#clip-path);}.cls-10,.cls-100,.cls-101,.cls-102,.cls-11,.cls-12,.cls-13,.cls-14,.cls-15,.cls-16,.cls-17,.cls-18,.cls-19,.cls-20,.cls-21,.cls-22,.cls-23,.cls-24,.cls-25,.cls-26,.cls-27,.cls-28,.cls-29,.cls-30,.cls-31,.cls-32,.cls-33,.cls-34,.cls-35,.cls-36,.cls-37,.cls-38,.cls-39,.cls-4,.cls-40,.cls-41,.cls-42,.cls-43,.cls-44,.cls-45,.cls-46,.cls-47,.cls-48,.cls-49,.cls-5,.cls-50,.cls-51,.cls-52,.cls-53,.cls-54,.cls-55,.cls-56,.cls-57,.cls-58,.cls-59,.cls-6,.cls-60,.cls-61,.cls-62,.cls-63,.cls-64,.cls-65,.cls-66,.cls-67,.cls-68,.cls-69,.cls-7,.cls-70,.cls-71,.cls-72,.cls-73,.cls-74,.cls-75,.cls-76,.cls-77,.cls-78,.cls-79,.cls-8,.cls-80,.cls-81,.cls-82,.cls-83,.cls-84,.cls-85,.cls-87,.cls-88,.cls-89,.cls-9,.cls-90,.cls-91,.cls-92,.cls-93,.cls-94,.cls-95,.cls-96,.cls-97,.cls-98,.cls-99{fill-rule:evenodd;}.cls-4{fill:url(#Áåçûìÿííûé_ãðàäèåíò_12);}.cls-5{fill:url(#Áåçûìÿííûé_ãðàäèåíò_21);}.cls-6{fill:url(#Áåçûìÿííûé_ãðàäèåíò_21-2);}.cls-7{fill:url(#Áåçûìÿííûé_ãðàäèåíò_21-3);}.cls-8{fill:url(#Áåçûìÿííûé_ãðàäèåíò_21-4);}.cls-9{fill:url(#Áåçûìÿííûé_ãðàäèåíò_21-5);}.cls-10{fill:url(#Áåçûìÿííûé_ãðàäèåíò_21-6);}.cls-11{fill:url(#Áåçûìÿííûé_ãðàäèåíò_21-7);}.cls-12{fill:url(#Áåçûìÿííûé_ãðàäèåíò_21-8);}.cls-13{fill:url(#Áåçûìÿííûé_ãðàäèåíò_21-9);}.cls-14{fill:url(#Áåçûìÿííûé_ãðàäèåíò_21-10);}.cls-15{fill:url(#Áåçûìÿííûé_ãðàäèåíò_23);}.cls-16{fill:url(#Áåçûìÿííûé_ãðàäèåíò_21-11);}.cls-17{fill:url(#Áåçûìÿííûé_ãðàäèåíò_21-12);}.cls-18{fill:url(#Áåçûìÿííûé_ãðàäèåíò_21-13);}.cls-19{fill:url(#Áåçûìÿííûé_ãðàäèåíò_21-14);}.cls-20{fill:url(#Áåçûìÿííûé_ãðàäèåíò_21-15);}.cls-21{fill:url(#Áåçûìÿííûé_ãðàäèåíò_21-16);}.cls-22{fill:url(#Áåçûìÿííûé_ãðàäèåíò_21-17);}.cls-23{fill:url(#Áåçûìÿííûé_ãðàäèåíò_21-18);}.cls-24{fill:url(#Áåçûìÿííûé_ãðàäèåíò_21-19);}.cls-25{fill:url(#Áåçûìÿííûé_ãðàäèåíò_21-20);}.cls-26{fill:url(#Áåçûìÿííûé_ãðàäèåíò_21-21);}.cls-27{fill:url(#Áåçûìÿííûé_ãðàäèåíò_23-2);}.cls-28{fill:url(#Áåçûìÿííûé_ãðàäèåíò_21-22);}.cls-29{fill:url(#Áåçûìÿííûé_ãðàäèåíò_23-3);}.cls-30{fill:url(#Áåçûìÿííûé_ãðàäèåíò_21-23);}.cls-31{fill:url(#Áåçûìÿííûé_ãðàäèåíò_21-24);}.cls-32{fill:url(#Áåçûìÿííûé_ãðàäèåíò_23-4);}.cls-33{fill:url(#Áåçûìÿííûé_ãðàäèåíò_51);}.cls-34{fill:url(#Áåçûìÿííûé_ãðàäèåíò_51-2);}.cls-101,.cls-102,.cls-106,.cls-35,.cls-47,.cls-48,.cls-50,.cls-60,.cls-61,.cls-62,.cls-63,.cls-73,.cls-74,.cls-75,.cls-76,.cls-79,.cls-80,.cls-90,.cls-92,.cls-93,.cls-95,.cls-96,.cls-97{opacity:0.5;}.cls-106,.cls-109,.cls-35,.cls-36,.cls-37,.cls-38,.cls-39,.cls-46,.cls-47,.cls-48,.cls-50,.cls-51,.cls-54,.cls-55,.cls-57,.cls-58,.cls-59,.cls-60,.cls-61,.cls-62,.cls-63,.cls-66,.cls-70,.cls-71,.cls-73,.cls-74,.cls-75,.cls-76,.cls-79,.cls-80,.cls-84,.cls-92,.cls-93,.cls-95{mix-blend-mode:multiply;}.cls-35{fill:url(#Áåçûìÿííûé_ãðàäèåíò_149);}.cls-36,.cls-37,.cls-38,.cls-39,.cls-46,.cls-51,.cls-52,.cls-53,.cls-56{opacity:0.3;}.cls-36{fill:url(#Áåçûìÿííûé_ãðàäèåíò_149-2);}.cls-37{fill:url(#Áåçûìÿííûé_ãðàäèåíò_149-3);}.cls-38{fill:url(#Áåçûìÿííûé_ãðàäèåíò_149-4);}.cls-39{fill:url(#Áåçûìÿííûé_ãðàäèåíò_149-5);}.cls-40{fill:url(#Áåçûìÿííûé_ãðàäèåíò_11);}.cls-41{fill:url(#Áåçûìÿííûé_ãðàäèåíò_11-2);}.cls-42{fill:url(#Áåçûìÿííûé_ãðàäèåíò_11-3);}.cls-43{fill:url(#Áåçûìÿííûé_ãðàäèåíò_11-4);}.cls-44{fill:url(#Áåçûìÿííûé_ãðàäèåíò_11-5);}.cls-45{fill:url(#Áåçûìÿííûé_ãðàäèåíò_51-3);}.cls-46{fill:url(#Áåçûìÿííûé_ãðàäèåíò_149-6);}.cls-47{fill:url(#Áåçûìÿííûé_ãðàäèåíò_149-7);}.cls-48{fill:url(#Áåçûìÿííûé_ãðàäèåíò_149-8);}.cls-49{fill:url(#Áåçûìÿííûé_ãðàäèåíò_51-4);}.cls-50{fill:url(#Áåçûìÿííûé_ãðàäèåíò_149-9);}.cls-51{fill:url(#Áåçûìÿííûé_ãðàäèåíò_149-10);}.cls-100,.cls-101,.cls-102,.cls-52,.cls-53,.cls-56,.cls-90,.cls-96,.cls-97,.cls-98,.cls-99{mix-blend-mode:screen;}.cls-52{fill:url(#Áåçûìÿííûé_ãðàäèåíò_51-5);}.cls-53{fill:url(#Áåçûìÿííûé_ãðàäèåíò_51-6);}.cls-109,.cls-54,.cls-55,.cls-57,.cls-58,.cls-59,.cls-66,.cls-70,.cls-71,.cls-84{opacity:0.15;}.cls-54{fill:url(#Áåçûìÿííûé_ãðàäèåíò_149-11);}.cls-55{fill:url(#Áåçûìÿííûé_ãðàäèåíò_149-12);}.cls-56{fill:url(#Áåçûìÿííûé_ãðàäèåíò_51-7);}.cls-57{fill:url(#Áåçûìÿííûé_ãðàäèåíò_149-13);}.cls-58{fill:url(#Áåçûìÿííûé_ãðàäèåíò_149-14);}.cls-59{fill:url(#Áåçûìÿííûé_ãðàäèåíò_149-15);}.cls-60{fill:url(#Áåçûìÿííûé_ãðàäèåíò_149-16);}.cls-61{fill:url(#Áåçûìÿííûé_ãðàäèåíò_149-17);}.cls-62{fill:url(#Áåçûìÿííûé_ãðàäèåíò_149-18);}.cls-63{fill:url(#Áåçûìÿííûé_ãðàäèåíò_149-19);}.cls-64{fill:url(#Áåçûìÿííûé_ãðàäèåíò_10);}.cls-65{fill:url(#Áåçûìÿííûé_ãðàäèåíò_51-8);}.cls-66{fill:url(#Áåçûìÿííûé_ãðàäèåíò_149-20);}.cls-67{fill:url(#Áåçûìÿííûé_ãðàäèåíò_11-6);}.cls-68{fill:url(#Áåçûìÿííûé_ãðàäèåíò_51-9);}.cls-69{fill:url(#Áåçûìÿííûé_ãðàäèåíò_51-10);}.cls-70{fill:url(#Áåçûìÿííûé_ãðàäèåíò_149-21);}.cls-71{fill:url(#Áåçûìÿííûé_ãðàäèåíò_149-22);}.cls-72{fill:url(#Áåçûìÿííûé_ãðàäèåíò_11-7);}.cls-73{fill:url(#Áåçûìÿííûé_ãðàäèåíò_149-23);}.cls-74{fill:url(#Áåçûìÿííûé_ãðàäèåíò_149-24);}.cls-75{fill:url(#Áåçûìÿííûé_ãðàäèåíò_149-25);}.cls-76{fill:url(#Áåçûìÿííûé_ãðàäèåíò_149-26);}.cls-77{fill:url(#Áåçûìÿííûé_ãðàäèåíò_11-8);}.cls-78{fill:url(#Áåçûìÿííûé_ãðàäèåíò_11-9);}.cls-79{fill:url(#Áåçûìÿííûé_ãðàäèåíò_149-27);}.cls-80{fill:url(#Áåçûìÿííûé_ãðàäèåíò_149-28);}.cls-81{fill:url(#Áåçûìÿííûé_ãðàäèåíò_11-10);}.cls-82{fill:url(#Áåçûìÿííûé_ãðàäèåíò_11-11);}.cls-83{fill:url(#Áåçûìÿííûé_ãðàäèåíò_51-11);}.cls-84{fill:url(#Áåçûìÿííûé_ãðàäèåíò_149-29);}.cls-85{fill:url(#Áåçûìÿííûé_ãðàäèåíò_21-25);}.cls-86{fill:url(#Áåçûìÿííûé_ãðàäèåíò_51-12);}.cls-87{fill:url(#Áåçûìÿííûé_ãðàäèåíò_33);}.cls-88{fill:url(#Áåçûìÿííûé_ãðàäèåíò_33-2);}.cls-89{fill:url(#Áåçûìÿííûé_ãðàäèåíò_33-3);}.cls-90{fill:url(#Áåçûìÿííûé_ãðàäèåíò_100);}.cls-91{fill:url(#Áåçûìÿííûé_ãðàäèåíò_33-4);}.cls-92{fill:url(#Áåçûìÿííûé_ãðàäèåíò_18);}.cls-93{fill:url(#Áåçûìÿííûé_ãðàäèåíò_18-2);}.cls-94{fill:#84fff4;}.cls-95{fill:url(#Áåçûìÿííûé_ãðàäèåíò_18-3);}.cls-96{fill:url(#Áåçûìÿííûé_ãðàäèåíò_202);}.cls-97{fill:url(#Áåçûìÿííûé_ãðàäèåíò_202-2);}.cls-100,.cls-98,.cls-99{opacity:0.6;}.cls-98{fill:url(#Áåçûìÿííûé_ãðàäèåíò_479);}.cls-99{fill:url(#Áåçûìÿííûé_ãðàäèåíò_479-2);}.cls-100{fill:url(#Áåçûìÿííûé_ãðàäèåíò_479-3);}.cls-101{fill:url(#Áåçûìÿííûé_ãðàäèåíò_205);}.cls-102{fill:url(#Áåçûìÿííûé_ãðàäèåíò_205-2);}.cls-103{fill:url(#Áåçûìÿííûé_ãðàäèåíò_51-13);}.cls-104{fill:url(#Áåçûìÿííûé_ãðàäèåíò_51-14);}.cls-105{fill:url(#Áåçûìÿííûé_ãðàäèåíò_11-12);}.cls-106{fill:#b83d64;}.cls-107{fill:url(#Áåçûìÿííûé_ãðàäèåíò_37);}.cls-108{fill:url(#Áåçûìÿííûé_ãðàäèåíò_11-13);}.cls-109{fill:url(#Áåçûìÿííûé_ãðàäèåíò_149-30);}</style><clipPath id="clip-path"><path class="cls-1" d="M1918,418.52V525.73c-25,3.68-56.79,4.13-72.29-15.8-6.52-8.38-5.6-14.5-9-21.07-17.66-34.05-115.52-10.34-215,6.32-104.36,17.47-157.86,26-223,16.86-1.9-.27-1.78-.27-121-28.45-104.74-24.76-166-38.6-184-11.59-8.85,13.25-1.15,31.19-12,37.93-12,7.48-29.61-9-47-17.91-72.91-37.35-167.4,45.74-193,13.69-7.42-9.28-.1-16.89-7-26.33-21.33-29.21-101,38-204,45.3-118.42,8.43-168.82-69.27-261-28.45-27.55,12.2-28.66,21.63-57,29.5-62.49,17.37-101.59-16.07-168-24.23-32.54-4-81.45-3.12-144.66,24.23V388.16Z"/></clipPath><linearGradient id="Áåçûìÿííûé_ãðàäèåíò_12" x1="958.63" y1="400.13" x2="958.63" y2="540.32" gradientUnits="userSpaceOnUse"><stop offset="0" stop-color="#271221"/><stop offset="1" stop-color="#431920"/></linearGradient><linearGradient id="Áåçûìÿííûé_ãðàäèåíò_21" x1="55.43" y1="545.71" x2="89.24" y2="514.08" gradientUnits="userSpaceOnUse"><stop offset="0" stop-color="#42203e"/><stop offset="1" stop-color="#602433"/></linearGradient><linearGradient id="Áåçûìÿííûé_ãðàäèåíò_21-2" x1="181.89" y1="524.26" x2="198.67" y2="508.56" xlink:href="#Áåçûìÿííûé_ãðàäèåíò_21"/><linearGradient id="Áåçûìÿííûé_ãðàäèåíò_21-3" x1="232.76" y1="571.62" x2="273.94" y2="533.1" xlink:href="#Áåçûìÿííûé_ãðàäèåíò_21"/><linearGradient id="Áåçûìÿííûé_ãðàäèåíò_21-4" x1="371.2" y1="541.32" x2="388.49" y2="525.15" xlink:href="#Áåçûìÿííûé_ãðàäèåíò_21"/><linearGradient id="Áåçûìÿííûé_ãðàäèåíò_21-5" x1="503.01" y1="681.95" x2="461.7" y2="306.32" xlink:href="#Áåçûìÿííûé_ãðàäèåíò_21"/><linearGradient id="Áåçûìÿííûé_ãðàäèåíò_21-6" x1="562.7" y1="677.48" x2="520.84" y2="296.85" xlink:href="#Áåçûìÿííûé_ãðàäèåíò_21"/><linearGradient id="Áåçûìÿííûé_ãðàäèåíò_21-7" x1="659.03" y1="664.95" x2="617.78" y2="289.88" xlink:href="#Áåçûìÿííûé_ãðàäèåíò_21"/><linearGradient id="Áåçûìÿííûé_ãðàäèåíò_21-8" x1="682.86" y1="551.63" x2="707.91" y2="528.2" xlink:href="#Áåçûìÿííûé_ãðàäèåíò_21"/><linearGradient id="Áåçûìÿííûé_ãðàäèåíò_21-9" x1="837.3" y1="645.89" x2="796.02" y2="270.52" xlink:href="#Áåçûìÿííûé_ãðàäèåíò_21"/><linearGradient id="Áåçûìÿííûé_ãðàäèåíò_21-10" x1="859.13" y1="539.1" x2="891.87" y2="508.46" xlink:href="#Áåçûìÿííûé_ãðàäèåíò_21"/><linearGradient id="Áåçûìÿííûé_ãðàäèåíò_23" x1="567.62" y1="482.63" x2="586.54" y2="464.93" gradientUnits="userSpaceOnUse"><stop offset="0" stop-color="#4f284a"/><stop offset="1" stop-color="#6d2b3b"/></linearGradient><linearGradient id="Áåçûìÿííûé_ãðàäèåíò_21-11" x1="685.79" y1="497.85" x2="697.64" y2="486.76" xlink:href="#Áåçûìÿííûé_ãðàäèåíò_21"/><linearGradient id="Áåçûìÿííûé_ãðàäèåíò_21-12" x1="1038.83" y1="560.16" x2="1074.19" y2="527.09" xlink:href="#Áåçûìÿííûé_ãðàäèåíò_21"/><linearGradient id="Áåçûìÿííûé_ãðàäèåíò_21-13" x1="1161.35" y1="526.51" x2="1175.19" y2="513.56" xlink:href="#Áåçûìÿííûé_ãðàäèåíò_21"/><linearGradient id="Áåçûìÿííûé_ãðàäèåíò_21-14" x1="1213.1" y1="574.19" x2="1251.22" y2="538.53" xlink:href="#Áåçûìÿííûé_ãðàäèåíò_21"/><linearGradient id="Áåçûìÿííûé_ãðàäèåíò_21-15" x1="1354.14" y1="542.42" x2="1367.52" y2="529.91" xlink:href="#Áåçûìÿííûé_ãðàäèåíò_21"/><linearGradient id="Áåçûìÿííûé_ãðàäèåíò_21-16" x1="1438.65" y1="731.42" x2="1481.09" y2="215.63" xlink:href="#Áåçûìÿííûé_ãðàäèåíò_21"/><linearGradient id="Áåçûìÿííûé_ãðàäèåíò_21-17" x1="1506.08" y1="531.28" x2="1517.02" y2="521.04" xlink:href="#Áåçûìÿííûé_ãðàäèåíò_21"/><linearGradient id="Áåçûìÿííûé_ãðàäèåíò_21-18" x1="1599.81" y1="744.02" x2="1642.17" y2="229.27" xlink:href="#Áåçûìÿííûé_ãðàäèåíò_21"/><linearGradient id="Áåçûìÿííûé_ãðàäèåíò_21-19" x1="1676.8" y1="749.67" x2="1719.05" y2="236.21" xlink:href="#Áåçûìÿííûé_ãðàäèåíò_21"/><linearGradient id="Áåçûìÿííûé_ãðàäèåíò_21-20" x1="1768.47" y1="757.29" x2="1810.77" y2="243.37" xlink:href="#Áåçûìÿííûé_ãðàäèåíò_21"/><linearGradient id="Áåçûìÿííûé_ãðàäèåíò_21-21" x1="1831.17" y1="534.77" x2="1863.66" y2="504.38" xlink:href="#Áåçûìÿííûé_ãðàäèåíò_21"/><linearGradient id="Áåçûìÿííûé_ãðàäèåíò_23-2" x1="1542.76" y1="494.99" x2="1561.68" y2="477.29" xlink:href="#Áåçûìÿííûé_ãðàäèåíò_23"/><linearGradient id="Áåçûìÿííûé_ãðàäèåíò_21-22" x1="1367.87" y1="506.5" x2="1379.72" y2="495.41" xlink:href="#Áåçûìÿííûé_ãðàäèåíò_21"/><linearGradient id="Áåçûìÿííûé_ãðàäèåíò_23-3" x1="1078.13" y1="585.96" x2="1100.44" y2="468.93" xlink:href="#Áåçûìÿííûé_ãðàäèåíò_23"/><linearGradient id="Áåçûìÿííûé_ãðàäèåíò_21-23" x1="997.91" y1="572.19" x2="1020.37" y2="454.36" xlink:href="#Áåçûìÿííûé_ãðàäèåíò_21"/><linearGradient id="Áåçûìÿííûé_ãðàäèåíò_21-24" x1="1227.77" y1="491.3" x2="1237.38" y2="482.31" xlink:href="#Áåçûìÿííûé_ãðàäèåíò_21"/><linearGradient id="Áåçûìÿííûé_ãðàäèåíò_23-4" x1="1182.28" y1="605.68" x2="1204.66" y2="488.3" xlink:href="#Áåçûìÿííûé_ãðàäèåíò_23"/><linearGradient id="Áåçûìÿííûé_ãðàäèåíò_51" x1="97.94" y1="340.56" x2="221.56" y2="377.23" gradientUnits="userSpaceOnUse"><stop offset="0" stop-color="#53d8d3"/><stop offset="1" stop-color="#0172ca"/></linearGradient><linearGradient id="Áåçûìÿííûé_ãðàäèåíò_51-2" x1="774.31" y1="113.32" x2="901.69" y2="374.64" xlink:href="#Áåçûìÿííûé_ãðàäèåíò_51"/><linearGradient id="Áåçûìÿííûé_ãðàäèåíò_149" x1="562.71" y1="325.32" x2="880.38" y2="372.23" gradientUnits="userSpaceOnUse"><stop offset="0" stop-color="#c37cba"/><stop offset="1" stop-color="#944577"/></linearGradient><linearGradient id="Áåçûìÿííûé_ãðàäèåíò_149-2" x1="950.97" y1="162.53" x2="988.84" y2="299.31" xlink:href="#Áåçûìÿííûé_ãðàäèåíò_149"/><linearGradient id="Áåçûìÿííûé_ãðàäèåíò_149-3" x1="808.53" y1="317.61" x2="813.93" y2="337.09" xlink:href="#Áåçûìÿííûé_ãðàäèåíò_149"/><linearGradient id="Áåçûìÿííûé_ãðàäèåíò_149-4" x1="1075.16" y1="288.42" x2="1089.71" y2="340.95" xlink:href="#Áåçûìÿííûé_ãðàäèåíò_149"/><linearGradient id="Áåçûìÿííûé_ãðàäèåíò_149-5" x1="856.87" y1="236.79" x2="864.99" y2="266.15" xlink:href="#Áåçûìÿííûé_ãðàäèåíò_149"/><linearGradient id="Áåçûìÿííûé_ãðàäèåíò_11" x1="635.08" y1="323.9" x2="671.14" y2="528.26" gradientUnits="userSpaceOnUse"><stop offset="0" stop-color="#5ff5ef"/><stop offset="1" stop-color="#0a81e8"/></linearGradient><linearGradient id="Áåçûìÿííûé_ãðàäèåíò_11-2" x1="762.55" y1="300.6" x2="803.21" y2="531.03" xlink:href="#Áåçûìÿííûé_ãðàäèåíò_11"/><linearGradient id="Áåçûìÿííûé_ãðàäèåíò_11-3" x1="820.8" y1="377.71" x2="747.09" y2="294.58" xlink:href="#Áåçûìÿííûé_ãðàäèåíò_11"/><linearGradient id="Áåçûìÿííûé_ãðàäèåíò_11-4" x1="876.28" y1="138.18" x2="1034.82" y2="710.78" xlink:href="#Áåçûìÿííûé_ãðàäèåíò_11"/><linearGradient id="Áåçûìÿííûé_ãðàäèåíò_11-5" x1="981.11" y1="102.09" x2="1188.72" y2="851.86" xlink:href="#Áåçûìÿííûé_ãðàäèåíò_11"/><linearGradient id="Áåçûìÿííûé_ãðàäèåíò_51-3" x1="598.36" y1="663.34" x2="850.67" y2="239.45" xlink:href="#Áåçûìÿííûé_ãðàäèåíò_51"/><linearGradient id="Áåçûìÿííûé_ãðàäèåíò_149-6" x1="478.41" y1="433.72" x2="478.45" y2="433.73" xlink:href="#Áåçûìÿííûé_ãðàäèåíò_149"/><linearGradient id="Áåçûìÿííûé_ãðàäèåíò_149-7" x1="472.59" y1="407.39" x2="587.97" y2="441.62" xlink:href="#Áåçûìÿííûé_ãðàäèåíò_149"/><linearGradient id="Áåçûìÿííûé_ãðàäèåíò_149-8" x1="710.57" y1="348.22" x2="1117.86" y2="469.07" xlink:href="#Áåçûìÿííûé_ãðàäèåíò_149"/><linearGradient id="Áåçûìÿííûé_ãðàäèåíò_51-4" x1="1076.96" y1="191.81" x2="1101.68" y2="247.43" xlink:href="#Áåçûìÿííûé_ãðàäèåíò_51"/><linearGradient id="Áåçûìÿííûé_ãðàäèåíò_149-9" x1="1123.55" y1="185.05" x2="1152.29" y2="288.86" xlink:href="#Áåçûìÿííûé_ãðàäèåíò_149"/><linearGradient id="Áåçûìÿííûé_ãðàäèåíò_149-10" x1="1206.92" y1="271.18" x2="1209.7" y2="281.21" xlink:href="#Áåçûìÿííûé_ãðàäèåíò_149"/><linearGradient id="Áåçûìÿííûé_ãðàäèåíò_51-5" x1="1128.08" y1="213.23" x2="1130.23" y2="281.85" xlink:href="#Áåçûìÿííûé_ãðàäèåíò_51"/><linearGradient id="Áåçûìÿííûé_ãðàäèåíò_51-6" x1="1160.04" y1="212.29" x2="1162.19" y2="280.89" xlink:href="#Áåçûìÿííûé_ãðàäèåíò_51"/><linearGradient id="Áåçûìÿííûé_ãðàäèåíò_149-11" x1="769.79" y1="396.41" x2="774.92" y2="414.92" xlink:href="#Áåçûìÿííûé_ãðàäèåíò_149"/><linearGradient id="Áåçûìÿííûé_ãðàäèåíò_149-12" x1="865.62" y1="399.4" x2="869.86" y2="414.72" xlink:href="#Áåçûìÿííûé_ãðàäèåíò_149"/><linearGradient id="Áåçûìÿííûé_ãðàäèåíò_51-7" x1="946.06" y1="373.46" x2="955.92" y2="409.06" xlink:href="#Áåçûìÿííûé_ãðàäèåíò_51"/><linearGradient id="Áåçûìÿííûé_ãðàäèåíò_149-13" x1="1035.76" y1="390.66" x2="1035.78" y2="390.7" xlink:href="#Áåçûìÿííûé_ãðàäèåíò_149"/><linearGradient id="Áåçûìÿííûé_ãðàäèåíò_149-14" x1="585.22" y1="501.46" x2="524.73" y2="405.06" xlink:href="#Áåçûìÿííûé_ãðàäèåíò_149"/><linearGradient id="Áåçûìÿííûé_ãðàäèåíò_149-15" x1="623.62" y1="480.34" x2="562.27" y2="382.57" xlink:href="#Áåçûìÿííûé_ãðàäèåíò_149"/><linearGradient id="Áåçûìÿííûé_ãðàäèåíò_149-16" x1="1084.19" y1="263.99" x2="1088.64" y2="280.05" xlink:href="#Áåçûìÿííûé_ãðàäèåíò_149"/><linearGradient id="Áåçûìÿííûé_ãðàäèåíò_149-17" x1="862.7" y1="245.09" x2="869.27" y2="268.81" xlink:href="#Áåçûìÿííûé_ãðàäèåíò_149"/><linearGradient id="Áåçûìÿííûé_ãðàäèåíò_149-18" x1="538.18" y1="382.53" x2="542.67" y2="398.74" xlink:href="#Áåçûìÿííûé_ãðàäèåíò_149"/><linearGradient id="Áåçûìÿííûé_ãðàäèåíò_149-19" x1="853.4" y1="359.32" x2="863.75" y2="396.72" xlink:href="#Áåçûìÿííûé_ãðàäèåíò_149"/><linearGradient id="Áåçûìÿííûé_ãðàäèåíò_10" x1="731.95" y1="437.31" x2="732.16" y2="437.11" gradientUnits="userSpaceOnUse"><stop offset="0" stop-color="#3d56fc"/><stop offset="1"/></linearGradient><linearGradient id="Áåçûìÿííûé_ãðàäèåíò_51-8" x1="1333.76" y1="75.39" x2="1472.06" y2="378.26" xlink:href="#Áåçûìÿííûé_ãðàäèåíò_51"/><linearGradient id="Áåçûìÿííûé_ãðàäèåíò_149-20" x1="573.79" y1="302.89" x2="601.11" y2="337.99" xlink:href="#Áåçûìÿííûé_ãðàäèåíò_149"/><linearGradient id="Áåçûìÿííûé_ãðàäèåíò_11-6" x1="163.78" y1="295.52" x2="195.86" y2="498.61" xlink:href="#Áåçûìÿííûé_ãðàäèåíò_11"/><linearGradient id="Áåçûìÿííûé_ãðàäèåíò_51-9" x1="-0.01" y1="360.46" x2="0.06" y2="360.48" xlink:href="#Áåçûìÿííûé_ãðàäèåíò_51"/><linearGradient id="Áåçûìÿííûé_ãðàäèåíò_51-10" x1="-53.46" y1="306.71" x2="534.43" y2="481.14" xlink:href="#Áåçûìÿííûé_ãðàäèåíò_51"/><linearGradient id="Áåçûìÿííûé_ãðàäèåíò_149-21" x1="505.16" y1="473.82" x2="156.54" y2="368.18" xlink:href="#Áåçûìÿííûé_ãðàäèåíò_149"/><linearGradient id="Áåçûìÿííûé_ãðàäèåíò_149-22" x1="585.77" y1="437.75" x2="444.25" y2="394.87" xlink:href="#Áåçûìÿííûé_ãðàäèåíò_149"/><linearGradient id="Áåçûìÿííûé_ãðàäèåíò_11-7" x1="260.64" y1="214.8" x2="374.64" y2="936.33" xlink:href="#Áåçûìÿííûé_ãðàäèåíò_11"/><linearGradient id="Áåçûìÿííûé_ãðàäèåíò_149-23" x1="1073.92" y1="275.11" x2="1150.47" y2="759.61" xlink:href="#Áåçûìÿííûé_ãðàäèåíò_149"/><linearGradient id="Áåçûìÿííûé_ãðàäèåíò_149-24" x1="1457.34" y1="421.38" x2="1467.24" y2="484.05" xlink:href="#Áåçûìÿííûé_ãðàäèåíò_149"/><linearGradient id="Áåçûìÿííûé_ãðàäèåíò_149-25" x1="1484.19" y1="379.24" x2="1508.17" y2="531.06" xlink:href="#Áåçûìÿííûé_ãðàäèåíò_149"/><linearGradient id="Áåçûìÿííûé_ãðàäèåíò_149-26" x1="1476.2" y1="349.18" x2="1508.86" y2="555.93" xlink:href="#Áåçûìÿííûé_ãðàäèåíò_149"/><linearGradient id="Áåçûìÿííûé_ãðàäèåíò_11-8" x1="1397.32" y1="133.75" x2="1454.95" y2="696.55" xlink:href="#Áåçûìÿííûé_ãðàäèåíò_11"/><linearGradient id="Áåçûìÿííûé_ãðàäèåíò_11-9" x1="1272.54" y1="145.5" x2="1330.32" y2="709.79" xlink:href="#Áåçûìÿííûé_ãðàäèåíò_11"/><linearGradient id="Áåçûìÿííûé_ãðàäèåíò_149-27" x1="1584.97" y1="448.19" x2="1619.71" y2="552.84" xlink:href="#Áåçûìÿííûé_ãðàäèåíò_149"/><linearGradient id="Áåçûìÿííûé_ãðàäèåíò_149-28" x1="1750.04" y1="394.84" x2="1785.73" y2="502.33" xlink:href="#Áåçûìÿííûé_ãðàäèåíò_149"/><linearGradient id="Áåçûìÿííûé_ãðàäèåíò_11-10" x1="1692.77" y1="380.89" x2="1692.77" y2="655.84" xlink:href="#Áåçûìÿííûé_ãðàäèåíò_11"/><linearGradient id="Áåçûìÿííûé_ãðàäèåíò_11-11" x1="92.66" y1="380.89" x2="92.66" y2="655.84" xlink:href="#Áåçûìÿííûé_ãðàäèåíò_11"/><linearGradient id="Áåçûìÿííûé_ãðàäèåíò_51-11" x1="59.05" y1="606.38" x2="81.16" y2="488.89" xlink:href="#Áåçûìÿííûé_ãðàäèåíò_51"/><linearGradient id="Áåçûìÿííûé_ãðàäèåíò_149-29" x1="45.04" y1="537.36" x2="58.46" y2="466.04" xlink:href="#Áåçûìÿííûé_ãðàäèåíò_149"/><linearGradient id="Áåçûìÿííûé_ãðàäèåíò_21-25" x1="57.26" y1="558.97" x2="16.29" y2="493.68" xlink:href="#Áåçûìÿííûé_ãðàäèåíò_21"/><linearGradient id="Áåçûìÿííûé_ãðàäèåíò_51-12" x1="1359.62" y1="464.23" x2="1452.29" y2="411.39" gradientTransform="matrix(-1, 0.02, 0.02, 1, 1674.72, -3.09)" xlink:href="#Áåçûìÿííûé_ãðàäèåíò_51"/><linearGradient id="Áåçûìÿííûé_ãðàäèåíò_33" x1="1736.45" y1="878.24" x2="1881.83" y2="769.42" gradientTransform="matrix(-0.96, -0.27, -0.27, 0.96, 2098.13, -86.94)" gradientUnits="userSpaceOnUse"><stop offset="0" stop-color="#54d9d4"/><stop offset="1" stop-color="#0172cb"/></linearGradient><linearGradient id="Áåçûìÿííûé_ãðàäèåíò_33-2" x1="1635.15" y1="510.46" x2="1705.62" y2="315.02" gradientTransform="matrix(-1, -0.03, -0.03, 1, 1749.78, -92.86)" xlink:href="#Áåçûìÿííûé_ãðàäèåíò_33"/><linearGradient id="Áåçûìÿííûé_ãðàäèåíò_33-3" x1="1786.12" y1="643.82" x2="1892.55" y2="782.89" xlink:href="#Áåçûìÿííûé_ãðàäèåíò_33"/><radialGradient id="Áåçûìÿííûé_ãðàäèåíò_100" cx="1783.66" cy="792.48" r="62.43" gradientTransform="matrix(-0.96, -0.38, -0.27, 1.4, 2098.13, -313.45)" gradientUnits="userSpaceOnUse"><stop offset="0"/><stop offset="1" stop-color="#fff"/></radialGradient><linearGradient id="Áåçûìÿííûé_ãðàäèåíò_33-4" x1="1667.74" y1="278.11" x2="1845.57" y2="401.58" gradientTransform="matrix(-1, -0.03, -0.03, 1, 1749.78, -92.86)" xlink:href="#Áåçûìÿííûé_ãðàäèåíò_33"/><linearGradient id="Áåçûìÿííûé_ãðàäèåíò_18" x1="1779.18" y1="778.99" x2="1880.92" y2="928.11" gradientTransform="matrix(-0.96, -0.27, -0.27, 0.96, 2098.13, -86.94)" gradientUnits="userSpaceOnUse"><stop offset="0" stop-color="#c57cbb"/><stop offset="1" stop-color="#954577"/></linearGradient><linearGradient id="Áåçûìÿííûé_ãðàäèåíò_18-2" x1="1665.16" y1="362.91" x2="1734.25" y2="464.17" gradientTransform="matrix(-1, -0.03, -0.03, 1, 1749.78, -92.86)" xlink:href="#Áåçûìÿííûé_ãðàäèåíò_18"/><linearGradient id="Áåçûìÿííûé_ãðàäèåíò_18-3" x1="1725.78" y1="455.93" x2="1988.55" y2="820.18" gradientTransform="matrix(-1, -0.03, -0.03, 1, 1749.78, -92.86)" xlink:href="#Áåçûìÿííûé_ãðàäèåíò_18"/><linearGradient id="Áåçûìÿííûé_ãðàäèåíò_202" x1="1863.79" y1="637.09" x2="1817.28" y2="596.77" gradientTransform="matrix(-0.96, -0.27, -0.27, 0.96, 2098.13, -86.94)" xlink:href="#Áåçûìÿííûé_ãðàäèåíò_100"/><linearGradient id="Áåçûìÿííûé_ãðàäèåíò_202-2" x1="1515.46" y1="0.91" x2="1441.13" y2="-63.54" gradientTransform="matrix(-0.99, 0.17, 0.17, 0.99, 1513.23, -47.55)" xlink:href="#Áåçûìÿííûé_ãðàäèåíò_100"/><linearGradient id="Áåçûìÿííûé_ãðàäèåíò_479" x1="1727.19" y1="907.83" x2="2020.27" y2="721.21" gradientTransform="matrix(-0.96, -0.27, -0.27, 0.96, 2098.13, -86.94)" gradientUnits="userSpaceOnUse"><stop offset="0" stop-color="#3d56fd"/><stop offset="1"/></linearGradient><linearGradient id="Áåçûìÿííûé_ãðàäèåíò_479-2" x1="1567.66" y1="486.28" x2="1817.29" y2="327.32" gradientTransform="matrix(-1, -0.03, -0.03, 1, 1749.78, -92.86)" xlink:href="#Áåçûìÿííûé_ãðàäèåíò_479"/><linearGradient id="Áåçûìÿííûé_ãðàäèåíò_479-3" x1="1590.9" y1="504.57" x2="1814.62" y2="362.11" gradientTransform="matrix(-1, -0.03, -0.03, 1, 1749.78, -92.86)" xlink:href="#Áåçûìÿííûé_ãðàäèåíò_479"/><linearGradient id="Áåçûìÿííûé_ãðàäèåíò_205" x1="1730.35" y1="784.17" x2="1923.93" y2="781.4" gradientTransform="matrix(-0.96, -0.27, -0.27, 0.96, 2098.13, -86.94)" gradientUnits="userSpaceOnUse"><stop offset="0" stop-color="#fd0093"/><stop offset="1"/></linearGradient><linearGradient id="Áåçûìÿííûé_ãðàäèåíò_205-2" x1="1596.54" y1="422.82" x2="1699.25" y2="363.63" gradientTransform="matrix(-1, -0.03, -0.03, 1, 1749.78, -92.86)" xlink:href="#Áåçûìÿííûé_ãðàäèåíò_205"/><linearGradient id="Áåçûìÿííûé_ãðàäèåíò_51-13" x1="1516.82" y1="269.36" x2="1745.46" y2="473.76" gradientTransform="matrix(-1, 0, 0, 1, 1688.27, 0)" xlink:href="#Áåçûìÿííûé_ãðàäèåíò_51"/><linearGradient id="Áåçûìÿííûé_ãðàäèåíò_51-14" x1="1364.79" y1="201.03" x2="1484.15" y2="433.83" gradientTransform="matrix(-1, 0, 0, 1, 1688.27, 0)" xlink:href="#Áåçûìÿííûé_ãðàäèåíò_51"/><linearGradient id="Áåçûìÿííûé_ãðàäèåíò_11-12" x1="1416.91" y1="244.34" x2="1561.37" y2="530.57" gradientTransform="matrix(-1, 0, 0, 1, 1688.27, 0)" xlink:href="#Áåçûìÿííûé_ãðàäèåíò_11"/><linearGradient id="Áåçûìÿííûé_ãðàäèåíò_37" x1="1619.11" y1="314.69" x2="1786.19" y2="532.38" gradientTransform="matrix(-1, 0, 0, 1, 1688.27, 0)" gradientUnits="userSpaceOnUse"><stop offset="0" stop-color="#5ff5ef"/><stop offset="0.94" stop-color="#0f88e8"/><stop offset="1" stop-color="#0a81e8"/></linearGradient><linearGradient id="Áåçûìÿííûé_ãðàäèåíò_11-13" x1="1527.5" y1="440.39" x2="1583.95" y2="528.68" gradientTransform="matrix(-1, 0.02, 0.02, 1, 1674.72, -3.09)" xlink:href="#Áåçûìÿííûé_ãðàäèåíò_11"/><linearGradient id="Áåçûìÿííûé_ãðàäèåíò_149-30" x1="1061.57" y1="522.2" x2="1213.59" y2="435.51" gradientTransform="matrix(-1, 0, 0, 1, 1688.27, 0)" xlink:href="#Áåçûìÿííûé_ãðàäèåíò_149"/></defs><g class="cls-2"><g id="Layer_1" data-name="Layer 1"><g id="footer"><g class="cls-3"><path class="cls-4" d="M1917.61,418.65V525.86c-25,3.68-56.79,4.13-72.29-15.81-6.52-8.38-5.6-14.5-9-21.07-17.66-34-115.52-10.34-215,6.32-104.36,17.48-157.86,26-223,16.86-1.89-.26-1.78-.26-121-28.45-104.74-24.75-166-38.59-184-11.58-8.85,13.24-1.15,31.19-12,37.92-12,7.48-29.61-9-47-17.91-72.91-37.35-167.4,45.74-193,13.7-7.42-9.28-.1-16.89-7-26.34-21.33-29.2-101,38-204,45.3-118.42,8.43-168.82-69.27-261-28.44-27.55,12.2-28.66,21.62-57,29.5-62.49,17.37-101.59-16.08-168-24.23-32.54-4-81.45-3.13-144.66,24.23V388.28Z"/><polygon class="cls-5" points="159.68 487.73 149.96 525.73 67.67 525.73 53.47 479.08 80.34 471.67 159.68 487.73"/><polygon class="cls-6" points="196.8 477.85 215.99 476.61 215.02 525.73 198.63 525.73 196.8 477.85"/><polygon class="cls-7" points="329.88 482.79 367 508.75 363.53 525.73 227.51 525.73 227.51 500.09 320.93 477.85 329.88 482.79"/><polygon class="cls-8" points="375.95 511.22 419.46 506.27 415.29 525.73 372.44 525.73 375.95 511.22"/><polygon class="cls-9" points="535.92 456.84 510.04 525.73 428.17 525.73 433.54 479.08 487.29 459.31 535.92 456.84"/><polygon class="cls-10" points="542.32 496.39 557.67 492.68 544.54 525.73 530.72 525.73 542.32 496.39"/><polygon class="cls-11" points="686.92 493.91 674.69 525.73 597.02 525.73 607.58 480.32 660.05 453.13 686.92 493.91"/><polygon class="cls-12" points="750.91 498.86 752.25 525.73 681.55 525.73 684.36 511.22 750.91 498.86"/><polygon class="cls-13" points="804.66 449.42 875.04 444.48 868.21 525.73 765.65 525.73 757.31 463.02 804.66 449.42"/><polygon class="cls-14" points="940.3 461.78 920.62 525.73 876.59 525.73 884 471.67 940.3 461.78"/><polygon class="cls-15" points="578.15 475.38 628.06 459.31 622.94 446.95 576.87 440.77 578.15 475.38"/><path class="cls-16" d="M681.8,476.61l7.68,13.6s21.76,11.12,21.76,8.65,10.24-22.25,10.24-22.25Z"/><polygon class="cls-17" points="1155.3 507.51 1159.33 525.73 1038.97 525.73 1028.61 491.44 1055.48 484.03 1155.3 507.51"/><polygon class="cls-18" points="1171.93 490.21 1191.13 488.97 1190.4 525.73 1173.29 525.73 1171.93 490.21"/><polygon class="cls-19" points="1305.02 495.15 1342.13 521.1 1341.34 525.73 1202.64 525.73 1202.64 512.45 1296.06 490.21 1305.02 495.15"/><polygon class="cls-20" points="1351.09 525.73 1394.6 518.63 1393.2 525.73 1350.77 525.73 1351.09 525.73"/><polygon class="cls-21" points="1511.05 469.2 1489.89 525.73 1404.75 525.73 1408.68 491.44 1462.42 471.67 1511.05 469.2"/><polygon class="cls-22" points="1517.45 508.75 1532.81 505.04 1524.72 525.73 1510.9 525.73 1517.45 508.75"/><polygon class="cls-23" points="1635.18 465.49 1662.06 506.27 1654.71 525.73 1575.09 525.73 1582.72 492.68 1635.18 465.49"/><polygon class="cls-24" points="1726.04 511.22 1726.75 525.73 1663.71 525.73 1690.21 458.07 1726.04 511.22"/><polygon class="cls-25" points="1852.73 453.13 1844.92 525.73 1739.12 525.73 1732.44 475.38 1782.35 458.07 1852.73 453.13"/><polygon class="cls-26" points="1912.88 459.31 1897.51 525.73 1852.44 525.73 1859.13 455.6 1912.88 459.31"/><polygon class="cls-27" points="1553.28 487.73 1603.19 471.67 1598.07 459.31 1552 453.13 1553.28 487.73"/><path class="cls-28" d="M1363.89,485.26l7.68,13.6s21.75,11.12,21.75,8.65,10.24-22.25,10.24-22.25Z"/><polygon class="cls-29" points="1067 472.9 1130.98 497.62 1136.1 437.06 1069.56 442.01 1067 472.9"/><path class="cls-30" d="M992.77,445.71l9,27.19s41,7.42,41,6.18,10.24-42,10.24-42Z"/><polygon class="cls-31" points="1234.64 467.96 1232.08 486.5 1239.76 490.21 1260.23 477.85 1234.64 467.96"/><polygon class="cls-32" points="1192.41 435.83 1179.61 472.9 1212.88 482.79 1243.6 430.88 1192.41 435.83"/></g><polygon class="cls-33" points="113.61 336.95 130.25 381.45 219.83 390.1 228.79 348.08 113.61 336.95"/><path class="cls-34" d="M1235.92,270.35l-11.76,17.45-5.69,1.26L1182.87,390l-34.11,6.31-10.38-1.89-84-15.31-159.59-.73-121.29-1.57L471.73,345.27l-13.2-28.9,285.92,14L731.93,293.6l84.72,2-17.36-46.4h0l430.1-55,0,.09c0,.1-.07.29-.12.54h0c-1,4.27-6.73,29-10.8,44.78-1.83,7.09-3.33,12.37-3.89,13.13C1212.6,255.4,1235.92,270.35,1235.92,270.35Z"/><polygon class="cls-35" points="536.76 328.56 535.98 358.89 700.81 379.35 701.95 374.9 712.59 333.11 722 334.63 697.41 374.47 790.9 370.43 810.48 324.4 536.76 328.56"/><polygon class="cls-36" points="839.05 253.56 844.89 298.75 902.35 310.41 884.49 372.21 842.29 369.88 854.63 356.76 747.51 354.14 738.42 368.72 1040.08 380.96 1146.55 395.54 1182.87 390 1217.97 288.84 1224.16 287.8 1235.91 270.34 1194.6 266.1 1214.56 252.79 1229.39 194.23 851.38 241.61 839.05 253.56"/><polygon class="cls-37" points="810.48 324.4 796.2 348.5 838.62 350.83 810.48 324.4"/><polygon class="cls-38" points="1108.25 299.04 1070.03 383.31 1076.12 385.63 1116.04 389.12 1116.04 322.65 1108.25 299.04"/><polygon class="cls-39" points="886.76 239.57 876.05 294.08 844.89 298.75 839.05 253.56 886.76 239.57"/><path class="cls-40" d="M458.61,317.41l53.24-16.33L810.48,324.4s-57.13,22.16-159.7,22.16S458.61,317.41,458.61,317.41Z"/><path class="cls-41" d="M1149.15,395.54l-2.8.25h0c-19,1.69-234.63,11.64-344.13,21-20.48,1.74-40.87,3.46-60.55,5.09l-.46,0c-27.59,2.3-53.78,4.44-76.83,6.26l-67.89-8.59L584.29,418c-.93.25-9.3-.93-18.31-2.31l-.11,0-3.47-.44-14.5,3.19c-4.48-2.34-9.34-4.87-14.51-7.53-13.51-7-29-14.95-44.55-22.88-43.63-22.25-87.53-44.38-88.64-44.94h0c79.22-17.49,307.72,18.66,307.72,18.66l321.79,2.33Z"/><polygon class="cls-42" points="747.51 354.14 788.41 339.27 846.84 348.02 854.63 356.76 771.86 362.01 747.51 354.14"/><polygon class="cls-43" points="731.93 293.79 902.35 310.41 1108.25 299.04 871.18 292.04 731.93 293.79"/><polygon class="cls-44" points="886.76 239.57 1050.8 246.56 1229.37 194.32 1158.89 194.09 799.12 249.19 839.05 253.56 886.76 239.57"/><path class="cls-45" d="M1146.56,395.54h0l-.21.24-24.47,27.73L767.28,436.59l-17.83.93-12.32-.17h0l-4.66-.58-.32.51.31-.52-68-8.61-67.89-8.59L584.29,418c-.93.25-9.3-.93-18.31-2.31l-.11,0-3.47-.44-14.5,3.19-69.48,15.3h0l-44.47-35.85-33.74-54.8h0l74.34,19,4.17.72h0l31.61,5.46,11.1,1.91,1.62.28,21.41,3.7,57,9.83,146.75,25.32.52,0,.81,0,71.91-3.34,2.28-.11,52.21-2.42,155.21-2.4Z"/><polygon class="cls-46" points="478.41 433.72 478.42 433.72 478.45 433.73 478.41 433.73 478.41 433.72"/><path class="cls-47" d="M596.48,419.55,584.29,418c-.93.25-9.3-.93-18.31-2.31l-.11,0-3.47-.44-14.5,3.19-69.48,15.3h0l17.54-28,37.44,5.15,9,1.22,8.53,1.17h0l.34,0,33.14,4.55Z"/><polygon class="cls-48" points="1146.56 395.54 1146.56 395.55 1146.55 395.55 1146.34 395.79 1121.87 423.52 767.28 436.59 749.45 437.52 737.1 437.34 732.43 436.76 741.66 421.84 749.49 409.18 821.4 405.84 823.68 405.73 875.89 403.31 1031.1 400.91 1146.56 395.54"/><polygon class="cls-49" points="1060.91 228.75 1105.93 230.27 1097.49 266.15 1095.8 297.99 1101.43 267.67 1124.22 225.09 1060.91 228.75"/><path class="cls-50" d="M1195.59,277.77l28.57,10-6.19,1L1182.87,390l-36.31,5.54-.08,0-16.11-4.41-2.63-.71-2-.55-5.75-1.57-46.75-12.8,35-76.44L1056,296l-5.23-49.4,54-16.64.76.77,10.11,10.35,8.11-15.46,1.42-.41,16.61-4.84,44.58-13,11.41-3.32,31.42-9.16h0c-1,4.27-6.73,29-10.8,44.78l-3.89,13.13-20,13.31Z"/><polygon class="cls-51" points="1218.47 289.06 1196.15 277.94 1224.16 287.8 1218.47 289.06"/><polygon class="cls-52" points="1141.82 220.34 1125.79 389.85 1120.04 388.28 1131.25 271.7 1127.87 270.19 1125.21 225.18 1141.82 220.34"/><path class="cls-53" d="M1197.81,204c-19.32,47.74-57.55,188.47-57.55,188.47l-9.89-1.39-2.78-.39a2.62,2.62,0,0,0,.15-.32c3.46-7.59,65.84-145.26,58.66-183Z"/><polygon class="cls-54" points="821.4 405.84 802.21 416.75 767.28 436.59 749.45 437.52 737.1 437.34 732.43 436.76 732.11 437.27 732.42 436.75 741.2 421.88 748.68 409.22 749.49 409.18 821.4 405.84"/><path class="cls-55" d="M875.89,403.3a64.74,64.74,0,0,1-7.57,28l-3,.15c4.42-8.59,7.18-18.11,6.28-28Z"/><path class="cls-56" d="M1031.1,400.91c-3.09,7.64-7.18,18.37-10.76,27.9h0l-135.91,1.68,4.41-27.78h0Z"/><path class="cls-57" d="M1035.88,390.72h-.19C1035.79,390.65,1035.85,390.64,1035.88,390.72Z"/><path class="cls-58" d="M523.05,370.39c-5.11,12.4-14.65,35.53-15.2,36.76-.75,1.69-1.87,0-1.87,0l4.35-38.95Z"/><path class="cls-59" d="M601.41,383.92c-6.47,13.24-16.7,32.73-17,34a.11.11,0,0,0,0,.05s0,.05-.09.07c-.93.25-9.3-.93-18.31-2.31l-.11,0c-5.09-.79-10.35-1.64-14.62-2.34l-.34-.05-8.52-1.4h0l.06-1.13,1.2-21.75.83-14.9Z"/><path class="cls-60" d="M1093.26,295.72s-13.23.84-13,0,17.39-29.4,17.39-29.4Z"/><polygon class="cls-61" points="876.23 291.92 885.51 247.7 872.29 287.12 856.53 289.65 853.72 292.43 876.23 291.92"/><polygon class="cls-62" points="542.36 412.88 543.11 387.27 550.99 413.55 542.36 412.88"/><polygon class="cls-63" points="888.84 402.71 822.77 381.88 902.11 402.1 884.42 430.49 888.84 402.71"/><polygon class="cls-64" points="732.43 436.76 732.11 437.27 732.42 436.75 732.43 436.76"/><polygon class="cls-65" points="1918 396.28 1918 444.48 1454.75 444.48 1456.63 440.84 1462.42 429.65 1412.8 427.25 1139.72 414.06 1136.64 413.91 1129.7 413.58 1130.75 412.32 1145.06 395.04 1027.33 362.91 1024.77 353.02 1303.74 395.04 1315.26 364.14 1468.77 381.01 1528.97 387.63 1520.59 406.13 1520.01 407.4 1547.2 408.92 1568.04 410.08 1567.46 410.7 1564.8 413.58 1584.75 412.6 1590.66 412.31 1674.65 408.2 1869.69 398.64 1918 396.28"/><path class="cls-66" d="M520.57,301.53c17.45,4,97.68,43.46,97.68,43.46s45.18,5.56,43.61,4-137.1-47-137.1-47Z"/><path class="cls-67" d="M113.62,337c57.58,18.54,115.17,11.13,115.17,11.13s-24.32-12.36-58.87-18.54S113.62,337,113.62,337Z"/><path class="cls-68" d="M.05,360.44v.08C0,360.48,0,360.46.05,360.44Z"/><path class="cls-69" d="M571.75,388.86,570.38,392l-12.71,29s-48.11,8.64-110.61,18l-8.41,1.26-3.82.56c-12.55,1.84-25.58,3.69-38.81,5.5C343.67,453.43,288,459.74,244.5,461.59c-6.84.3-13.38.49-19.55.54-3.72,0-7.31,0-10.74,0s-6.64-.16-9.74-.32C105.94,456.84.05,425.94.05,425.94V360.52C2.76,361.87,124,368,254.31,374.2c72.22,3.44,147.14,6.9,206.05,9.61l8.09.37,98,4.45C569.92,388.77,571.75,388.86,571.75,388.86Z"/><path class="cls-70" d="M460.36,383.81l-21.71,56.44-3.82.56,16.63-53.18L400.27,395s-2.78,34.25-4.25,51.27C343.67,453.43,288,459.74,244.5,461.59l2.2-70.26L225,390.1v72c-3.72,0-7.31,0-10.74,0l-20-86.83,60.07-1.07C326.53,377.64,401.45,381.1,460.36,383.81Z"/><path class="cls-71" d="M570.38,392l-12.71,29s-48.11,8.64-110.61,18l21.39-54.81,98,4.45Z"/><path class="cls-72" d="M.05,360.44s309.36-4.95,370.79-7.42,200.91,35.84,200.91,35.84-156.12,14.83-319.93,12.36S.05,360.44.05,360.44Z"/><polygon class="cls-73" points="1153.75 391.31 1139.72 414.06 1139.36 414.65 1136.64 413.91 1130.75 412.32 1145.06 395.04 1027.33 362.91 1024.77 353.02 1153.75 391.31"/><polygon class="cls-74" points="1456.63 440.84 1462.42 429.65 1457.31 440.77 1456.63 440.84"/><polygon class="cls-75" points="1568.04 410.08 1567.46 410.7 1467.54 418.52 1462.42 429.65 1412.8 427.25 1415.13 412.13 1547.2 408.92 1568.04 410.08"/><polygon class="cls-76" points="1528.97 387.63 1520.59 406.13 1438.11 403.69 1445.79 383.92 1468.77 381.01 1528.97 387.63"/><path class="cls-77" d="M1315.26,364.14l129.25,27.19,84.46-3.7s-35.83-12.36-89.58-23.49S1315.26,360.44,1315.26,364.14Z"/><polygon class="cls-78" points="1024.77 353.02 1151.46 390.1 1411.24 412.34 1568.64 409.87 1024.77 353.02"/><polygon class="cls-79" points="1590.66 412.31 1572.28 444.48 1566.12 444.48 1584.75 412.6 1590.66 412.31"/><polygon class="cls-80" points="1869.69 398.64 1858.74 444.48 1648.14 444.48 1674.65 408.2 1869.69 398.64"/><polygon class="cls-81" points="1467.54 418.52 1610.87 407.4 1918 387.63 1918 418.52 1467.54 418.52"/><polygon class="cls-82" points="0.05 388.16 185.28 424.7 0.05 418.52 0.05 388.16"/><polygon class="cls-83" points="0.05 444.32 41.95 444.32 176.32 484.03 185.28 424.7 0.05 419.08 0.05 444.32"/><polygon class="cls-84" points="44.7 420.34 43.4 443.9 81.3 456.52 89.3 421 44.7 420.34"/><polygon class="cls-85" points="4.84 487.73 21.48 482.79 36.83 497.62 36.83 513.69 6.12 506.27 4.84 487.73"/></g><polygon class="cls-86" points="157.21 376.51 36.71 369.98 56.41 340.38 163.65 356.96 157.21 376.51"/><polygon class="cls-87" points="116.96 121.81 116.95 121.88 110.75 170.42 109.79 177.93 109.25 182.24 109.25 182.25 102.07 238.56 99.49 258.84 86 364.56 111.85 365.03 125.89 365.3 134.71 335.64 141.82 311.77 195.15 132.65 195.07 132.45 195.07 132.43 141.1 33.24 129.14 96.78 116.97 121.8 116.96 121.81"/><polygon class="cls-88" points="21.42 182.32 30.49 237.97 34.48 262.34 39.84 295.28 40.98 302.3 49.28 353.2 49.29 353.24 61.61 350.72 76.63 347.65 78.14 302.1 78.14 302.09 78.35 295.68 80.47 231.82 81.57 198.43 82.35 175.12 82.34 175.12 45.09 179.52 45.08 179.52 28.3 181.5 28.29 181.5 21.42 182.32"/><polygon class="cls-89" points="116.95 121.88 146.53 167.09 155.76 181.19 169.03 164.84 195.15 132.65 199.77 106.63 180.85 21.86 180.42 18.29 180.34 18.14 171.29 0.2 141.1 33.24 116.97 121.8 116.96 121.82 116.95 121.88"/><polygon class="cls-90" points="116.87 121.68 116.96 121.81 116.96 121.82 116.96 121.82 146.58 167.09 155.68 181 168.76 164.87 195.07 132.45 195.07 132.43 199.69 106.43 180.82 21.87 180.77 21.65 180.34 18.14 180.33 18.08 171.21 0 141.02 33.03 116.87 121.68"/><polygon class="cls-91" points="22.81 103.42 21.42 182.32 35 201.93 64.24 207.56 64.25 207.56 75.05 209.63 78.67 192.5 82.34 175.12 74.52 159.57 33.91 88.71 22.81 103.42"/><path class="cls-92" d="M117,121.87l-6.2,48.55s0,0,0,0l-1,7.48-.54,4.31h0l-7.18,56.3-2.59,20.29h0L86,364.56l25.85.47L128.1,297h0l3.74-15.62,23.78-99.57h0l.13-.56-9.22-14.09h0Z"/><polygon class="cls-93" points="21.42 182.32 30.18 237.85 34.05 262.36 39.24 295.28 40.34 302.3 48.4 353.42 49.29 353.24 61.61 350.72 61.49 350.06 52.97 302.39 52.03 297.15 45.97 263.3 42.92 246.24 35 201.93 21.42 182.32"/><polygon class="cls-94" points="79.22 191.91 64.21 207.6 75.05 209.63 79.22 191.91"/><polygon class="cls-95" points="21.42 182.32 30.18 237.85 34.05 262.36 39.24 295.28 40.34 302.3 48.4 353.42 49.28 353.2 61.49 350.06 74.14 346.81 74.49 294.09 74.53 288.64 74.92 230.09 75.02 215.12 75.02 215.08 75.05 209.63 64.25 207.56 64.24 207.56 35 201.93 21.42 182.32"/><polygon class="cls-96" points="141.1 33.24 180.82 21.87 180.85 21.86 180.42 18.29 180.34 18.14 171.29 0.2 141.1 33.24"/><polygon class="cls-97" points="62.65 140.5 35 201.94 25.84 184.88 61.04 136.55 62.65 140.5"/><polygon class="cls-94" points="170.16 164.74 146.44 167.11 154.79 182.74 170.16 164.74"/><path class="cls-98" d="M110.75,170.42l-1,7.51-.54,4.31h0c6,34.28,12.64,76.34,8.91,76.07-2.65-.19-9.3-9.31-16.09-19.77l-2.59,20.29h0c12.18,10.81,24.27,24,28,36,.21.69.41,1.38.61,2.11h0c3.05,10.76,5.17,25.13,6.61,38.67l7.11-23.87-8.87-27s-.41-1.2-1.11-3.39C127.3,267.4,110.6,213,110.76,170.45,110.75,170.43,110.75,170.43,110.75,170.42Z"/><path class="cls-99" d="M30.17,237.85l3.88,24.51.43,0a42.05,42.05,0,0,1,11.49,1,28.74,28.74,0,0,1,12.13,5.92c5.7,4.77,11.46,14.58,16.39,24.87,1.27,2.65,2.49,5.36,3.65,8l.21-6.41c-1.19-2.27-2.47-4.63-3.82-7-8.31-14.88-19.4-31.74-31.61-42.4A49.65,49.65,0,0,0,30.49,238,1.53,1.53,0,0,0,30.17,237.85Z"/><path class="cls-100" d="M39.24,295.28l1.1,7H41l12,.09,12.34.08A63.64,63.64,0,0,0,52,297.15a50.11,50.11,0,0,0-12.19-1.87Z"/><polygon class="cls-101" points="141.02 33.03 116.87 121.68 116.96 121.81 116.95 121.88 110.75 170.42 109.79 177.93 109.25 182.24 109.25 182.25 102.07 238.56 99.48 258.84 99.49 258.84 86 364.56 111.85 365.03 125.89 365.3 134.71 335.64 141.82 311.77 195.15 132.65 199.77 106.63 180.85 21.86 180.42 18.29 180.34 18.14 180.33 18.08 171.21 0 141.02 33.03"/><polygon class="cls-102" points="22.81 103.42 21.42 182.32 30.18 237.85 34.05 262.36 39.24 295.28 40.34 302.3 48.4 353.42 49.29 353.24 61.61 350.72 76.63 347.65 78.14 302.1 78.14 302.09 78.35 295.68 80.47 231.82 81.57 198.43 82.35 175.12 82.34 175.12 74.52 159.57 33.91 88.71 22.81 103.42"/><polygon class="cls-103" points="93.5 396.59 53.67 398.61 2.61 389.31 17.41 349.52 84.26 322.26 84.26 322.28 84.27 322.28 93.5 396.59"/><polygon class="cls-104" points="357.97 383.17 215.78 390.37 213.27 390.5 125.39 383.21 167.51 255.81 344.13 294.43 344.13 294.43 357.97 383.17"/><polygon class="cls-105" points="344.13 294.43 214.71 358.02 167.51 255.81 344.13 294.43"/><polygon class="cls-106" points="214.71 358.02 213.27 390.5 125.39 383.21 167.51 255.81 214.71 358.02"/><polygon class="cls-107" points="84.26 322.28 57.58 362.38 17.41 349.52 84.26 322.28"/><polygon class="cls-106" points="57.58 362.38 53.67 398.61 2.61 389.31 17.41 349.52 57.58 362.38"/><polygon class="cls-108" points="256.84 337.19 207.51 342.8 214.71 358.02 256.84 337.19"/><polygon class="cls-109" points="327.81 388.92 321.12 311.4 254.23 272.64 194.04 262.95 314.43 321.09 327.81 388.92"/></g></g></svg>