<svg xmlns="http://www.w3.org/2000/svg" xmlns:xlink="http://www.w3.org/1999/xlink" viewBox="0 0 525.44 94.3"><defs><style>.cls-1{mask:url(#mask);filter:url(#luminosity-noclip-2);}.cls-10,.cls-11,.cls-12,.cls-13,.cls-14,.cls-15,.cls-16,.cls-17,.cls-18,.cls-19,.cls-2,.cls-20,.cls-21,.cls-22,.cls-23,.cls-24,.cls-25,.cls-26,.cls-28,.cls-29,.cls-30,.cls-31,.cls-32,.cls-33,.cls-34,.cls-35,.cls-36,.cls-37,.cls-38,.cls-39,.cls-4,.cls-40,.cls-41,.cls-42,.cls-43,.cls-44,.cls-45,.cls-46,.cls-47,.cls-48,.cls-49,.cls-5,.cls-50,.cls-51,.cls-52,.cls-53,.cls-54,.cls-55,.cls-56,.cls-59,.cls-6,.cls-7,.cls-8,.cls-9{fill-rule:evenodd;}.cls-15,.cls-16,.cls-17,.cls-18,.cls-2,.cls-20,.cls-22,.cls-23,.cls-24,.cls-25,.cls-26,.cls-28,.cls-29,.cls-31,.cls-32,.cls-37,.cls-38,.cls-39,.cls-40,.cls-41,.cls-42,.cls-44,.cls-45,.cls-46,.cls-47,.cls-48,.cls-51,.cls-52,.cls-54,.cls-55,.cls-59,.cls-6{mix-blend-mode:multiply;}.cls-2{fill:url(#Áåçûìÿííûé_ãðàäèåíò_44);}.cls-3{isolation:isolate;}.cls-4{fill:url(#Áåçûìÿííûé_ãðàäèåíò_33);}.cls-5{fill:url(#Áåçûìÿííûé_ãðàäèåíò_12);}.cls-15,.cls-18,.cls-20,.cls-24,.cls-26,.cls-31,.cls-32,.cls-39,.cls-40,.cls-47,.cls-48,.cls-51,.cls-52,.cls-55,.cls-57,.cls-58,.cls-6{opacity:0.5;}.cls-6{fill:url(#Áåçûìÿííûé_ãðàäèåíò_19);}.cls-7{fill:url(#Áåçûìÿííûé_ãðàäèåíò_35);}.cls-8{fill:url(#Áåçûìÿííûé_ãðàäèåíò_12-2);}.cls-9{fill:url(#Áåçûìÿííûé_ãðàäèåíò_36);}.cls-10{fill:url(#Áåçûìÿííûé_ãðàäèåíò_35-2);}.cls-11{fill:url(#Áåçûìÿííûé_ãðàäèåíò_12-3);}.cls-12{fill:url(#Áåçûìÿííûé_ãðàäèåíò_35-3);}.cls-13{fill:url(#Áåçûìÿííûé_ãðàäèåíò_12-4);}.cls-14{fill:url(#Áåçûìÿííûé_ãðàäèåíò_12-5);}.cls-15{fill:url(#Áåçûìÿííûé_ãðàäèåíò_19-2);}.cls-16,.cls-17,.cls-22,.cls-23,.cls-25,.cls-28,.cls-29,.cls-37,.cls-38,.cls-43,.cls-54{opacity:0.3;}.cls-16{fill:url(#Áåçûìÿííûé_ãðàäèåíò_18);}.cls-17{fill:url(#Áåçûìÿííûé_ãðàäèåíò_18-2);}.cls-18{fill:url(#Áåçûìÿííûé_ãðàäèåíò_18-3);}.cls-19{fill:url(#Áåçûìÿííûé_ãðàäèåíò_12-6);}.cls-20{fill:url(#Áåçûìÿííûé_ãðàäèåíò_19-3);}.cls-21{fill:url(#Áåçûìÿííûé_ãðàäèåíò_12-7);}.cls-22{fill:url(#Áåçûìÿííûé_ãðàäèåíò_18-4);}.cls-23{fill:url(#Áåçûìÿííûé_ãðàäèåíò_18-5);}.cls-24{fill:url(#Áåçûìÿííûé_ãðàäèåíò_19-4);}.cls-25{fill:url(#Áåçûìÿííûé_ãðàäèåíò_18-6);}.cls-26{fill:url(#Áåçûìÿííûé_ãðàäèåíò_19-5);}.cls-27{mask:url(#mask-2);}.cls-28{fill:url(#Áåçûìÿííûé_ãðàäèåíò_18-7);}.cls-29{fill:url(#Áåçûìÿííûé_ãðàäèåíò_18-8);}.cls-30{opacity:0.6;fill:url(#Áåçûìÿííûé_ãðàäèåíò_479);}.cls-30,.cls-43,.cls-57,.cls-58{mix-blend-mode:screen;}.cls-31{fill:url(#Áåçûìÿííûé_ãðàäèåíò_19-6);}.cls-32{fill:url(#Áåçûìÿííûé_ãðàäèåíò_18-9);}.cls-33{fill:url(#Áåçûìÿííûé_ãðàäèåíò_34);}.cls-34{fill:url(#Áåçûìÿííûé_ãðàäèåíò_34-2);}.cls-35{fill:url(#Áåçûìÿííûé_ãðàäèåíò_34-3);}.cls-36{fill:url(#Áåçûìÿííûé_ãðàäèåíò_33-2);}.cls-37{fill:url(#Áåçûìÿííûé_ãðàäèåíò_18-10);}.cls-38{fill:url(#Áåçûìÿííûé_ãðàäèåíò_18-11);}.cls-39{fill:url(#Áåçûìÿííûé_ãðàäèåíò_18-12);}.cls-40{fill:url(#Áåçûìÿííûé_ãðàäèåíò_18-13);}.cls-41,.cls-42,.cls-44,.cls-45,.cls-46,.cls-59{opacity:0.15;}.cls-41{fill:url(#Áåçûìÿííûé_ãðàäèåíò_18-14);}.cls-42{fill:url(#Áåçûìÿííûé_ãðàäèåíò_18-15);}.cls-43{fill:url(#Áåçûìÿííûé_ãðàäèåíò_33-3);}.cls-44{fill:url(#Áåçûìÿííûé_ãðàäèåíò_18-16);}.cls-45{fill:url(#Áåçûìÿííûé_ãðàäèåíò_18-17);}.cls-46{fill:url(#Áåçûìÿííûé_ãðàäèåíò_18-18);}.cls-47{fill:url(#Áåçûìÿííûé_ãðàäèåíò_18-19);}.cls-48{fill:url(#Áåçûìÿííûé_ãðàäèåíò_18-20);}.cls-49{fill:url(#Áåçûìÿííûé_ãðàäèåíò_479-2);}.cls-50{fill:url(#Áåçûìÿííûé_ãðàäèåíò_33-4);}.cls-51{fill:url(#Áåçûìÿííûé_ãðàäèåíò_18-21);}.cls-52{fill:url(#Áåçûìÿííûé_ãðàäèåíò_19-7);}.cls-53{fill:url(#Áåçûìÿííûé_ãðàäèåíò_33-5);}.cls-54{fill:url(#Áåçûìÿííûé_ãðàäèåíò_18-22);}.cls-55{fill:url(#Áåçûìÿííûé_ãðàäèåíò_19-8);}.cls-56{fill:#7bf7ee;}.cls-57{fill:url(#Áåçûìÿííûé_ãðàäèåíò_218);}.cls-58{fill:url(#Áåçûìÿííûé_ãðàäèåíò_218-2);}.cls-59{fill:url(#Áåçûìÿííûé_ãðàäèåíò_18-23);}.cls-60{filter:url(#luminosity-noclip);}</style><filter id="luminosity-noclip" x="129.47" y="-8192" width="2.61" height="32766" filterUnits="userSpaceOnUse" color-interpolation-filters="sRGB"><feFlood flood-color="#fff" result="bg"/><feBlend in="SourceGraphic" in2="bg"/></filter><mask id="mask" x="129.47" y="-8192" width="2.61" height="32766" maskUnits="userSpaceOnUse"><g class="cls-60"/></mask><linearGradient id="Áåçûìÿííûé_ãðàäèåíò_44" x1="130.84" y1="64.82" x2="130.66" y2="63.68" gradientUnits="userSpaceOnUse"><stop offset="0" stop-color="#fff"/><stop offset="1" stop-color="#121212"/></linearGradient><linearGradient id="Áåçûìÿííûé_ãðàäèåíò_33" x1="21.74" y1="-36.55" x2="354.13" y2="62.07" gradientUnits="userSpaceOnUse"><stop offset="0" stop-color="#54d9d4"/><stop offset="1" stop-color="#0172cb"/></linearGradient><linearGradient id="Áåçûìÿííûé_ãðàäèåíò_12" x1="228.14" y1="171.86" x2="278.23" y2="-54.05" gradientUnits="userSpaceOnUse"><stop offset="0" stop-color="#271221"/><stop offset="1" stop-color="#431920"/></linearGradient><linearGradient id="Áåçûìÿííûé_ãðàäèåíò_19" x1="236.05" y1="60.02" x2="237.79" y2="17.27" gradientUnits="userSpaceOnUse"><stop offset="0" stop-color="#3f3750"/><stop offset="1" stop-color="#281e2f"/></linearGradient><linearGradient id="Áåçûìÿííûé_ãðàäèåíò_35" x1="148.57" y1="157.64" x2="111.86" y2="29.51" gradientUnits="userSpaceOnUse"><stop offset="0" stop-color="#38172e"/><stop offset="1" stop-color="#541b1f"/></linearGradient><linearGradient id="Áåçûìÿííûé_ãðàäèåíò_12-2" x1="142.49" y1="92.55" x2="316.43" y2="-28.54" xlink:href="#Áåçûìÿííûé_ãðàäèåíò_12"/><linearGradient id="Áåçûìÿííûé_ãðàäèåíò_36" x1="143.25" y1="111.28" x2="361" y2="-40.32" gradientUnits="userSpaceOnUse"><stop offset="0" stop-color="#32172c"/><stop offset="1" stop-color="#4e1c25"/></linearGradient><linearGradient id="Áåçûìÿííûé_ãðàäèåíò_35-2" x1="268.46" y1="112.48" x2="241.48" y2="18.31" xlink:href="#Áåçûìÿííûé_ãðàäèåíò_35"/><linearGradient id="Áåçûìÿííûé_ãðàäèåíò_12-3" x1="274.49" y1="116.12" x2="277.95" y2="70.23" xlink:href="#Áåçûìÿííûé_ãðàäèåíò_12"/><linearGradient id="Áåçûìÿííûé_ãðàäèåíò_35-3" x1="332.22" y1="119.1" x2="298.75" y2="2.29" xlink:href="#Áåçûìÿííûé_ãðàäèåíò_35"/><linearGradient id="Áåçûìÿííûé_ãðàäèåíò_12-4" x1="330.39" y1="150.84" x2="469.28" y2="-62.72" xlink:href="#Áåçûìÿííûé_ãðàäèåíò_12"/><linearGradient id="Áåçûìÿííûé_ãðàäèåíò_12-5" x1="294.3" y1="93.37" x2="353.47" y2="-28.49" xlink:href="#Áåçûìÿííûé_ãðàäèåíò_12"/><linearGradient id="Áåçûìÿííûé_ãðàäèåíò_19-2" x1="325.12" y1="71.18" x2="327.42" y2="15.08" xlink:href="#Áåçûìÿííûé_ãðàäèåíò_19"/><linearGradient id="Áåçûìÿííûé_ãðàäèåíò_18" x1="286.32" y1="82.06" x2="287.15" y2="61.94" gradientUnits="userSpaceOnUse"><stop offset="0" stop-color="#c57cbb"/><stop offset="1" stop-color="#954577"/></linearGradient><linearGradient id="Áåçûìÿííûé_ãðàäèåíò_18-2" x1="357.27" y1="54.12" x2="358.48" y2="24.64" xlink:href="#Áåçûìÿííûé_ãðàäèåíò_18"/><linearGradient id="Áåçûìÿííûé_ãðàäèåíò_18-3" x1="197.77" y1="51.68" x2="198.88" y2="24.64" xlink:href="#Áåçûìÿííûé_ãðàäèåíò_18"/><linearGradient id="Áåçûìÿííûé_ãðàäèåíò_12-6" x1="210.76" y1="78.02" x2="250.38" y2="27.7" xlink:href="#Áåçûìÿííûé_ãðàäèåíò_12"/><linearGradient id="Áåçûìÿííûé_ãðàäèåíò_19-3" x1="225.7" y1="99.66" x2="232.97" y2="66.9" xlink:href="#Áåçûìÿííûé_ãðàäèåíò_19"/><linearGradient id="Áåçûìÿííûé_ãðàäèåíò_12-7" x1="229.88" y1="118.24" x2="303.32" y2="33.4" xlink:href="#Áåçûìÿííûé_ãðàäèåíò_12"/><linearGradient id="Áåçûìÿííûé_ãðàäèåíò_18-4" x1="328.37" y1="83.27" x2="328.62" y2="77.35" xlink:href="#Áåçûìÿííûé_ãðàäèåíò_18"/><linearGradient id="Áåçûìÿííûé_ãðàäèåíò_18-5" x1="352.52" y1="66.71" x2="352.67" y2="63.13" xlink:href="#Áåçûìÿííûé_ãðàäèåíò_18"/><linearGradient id="Áåçûìÿííûé_ãðàäèåíò_19-4" x1="334.77" y1="79.8" x2="335.46" y2="63.11" xlink:href="#Áåçûìÿííûé_ãðàäèåíò_19"/><linearGradient id="Áåçûìÿííûé_ãðàäèåíò_18-6" x1="340.91" y1="74.66" x2="404.97" y2="92.83" xlink:href="#Áåçûìÿííûé_ãðàäèåíò_18"/><linearGradient id="Áåçûìÿííûé_ãðàäèåíò_19-5" x1="276.61" y1="87.82" x2="276.71" y2="85.49" xlink:href="#Áåçûìÿííûé_ãðàäèåíò_19"/><filter id="luminosity-noclip-2" x="129.47" y="64.03" width="2.61" height="0.72" filterUnits="userSpaceOnUse" color-interpolation-filters="sRGB"><feFlood flood-color="#fff" result="bg"/><feBlend in="SourceGraphic" in2="bg"/></filter><mask id="mask-2" x="129.47" y="64.03" width="2.61" height="0.72" maskUnits="userSpaceOnUse"><g class="cls-1"><polygon class="cls-2" points="131.89 64.09 132.08 64.75 129.71 64.44 129.5 64.08 129.47 64.03 131.88 64.05 131.89 64.09"/></g></mask><linearGradient id="Áåçûìÿííûé_ãðàäèåíò_18-7" x1="130.84" y1="64.82" x2="130.66" y2="63.68" xlink:href="#Áåçûìÿííûé_ãðàäèåíò_18"/><linearGradient id="Áåçûìÿííûé_ãðàäèåíò_18-8" x1="327.04" y1="42.3" x2="437.28" y2="46.52" xlink:href="#Áåçûìÿííûé_ãðàäèåíò_18"/><linearGradient id="Áåçûìÿííûé_ãðàäèåíò_479" x1="77.17" y1="182.25" x2="185.35" y2="81.05" gradientUnits="userSpaceOnUse"><stop offset="0" stop-color="#3d56fd"/><stop offset="1"/></linearGradient><linearGradient id="Áåçûìÿííûé_ãðàäèåíò_19-6" x1="98.05" y1="180.39" x2="202.53" y2="82.66" xlink:href="#Áåçûìÿííûé_ãðàäèåíò_19"/><linearGradient id="Áåçûìÿííûé_ãðàäèåíò_18-9" x1="133.29" y1="-0.09" x2="392.3" y2="38.16" xlink:href="#Áåçûìÿííûé_ãðàäèåíò_18"/><linearGradient id="Áåçûìÿííûé_ãðàäèåíò_34" x1="191.34" y1="9.32" x2="215.16" y2="144.28" gradientUnits="userSpaceOnUse"><stop offset="0" stop-color="#60f6f0"/><stop offset="1" stop-color="#0582e9"/></linearGradient><linearGradient id="Áåçûìÿííûé_ãðàäèåíò_34-2" x1="255.53" y1="-18.76" x2="279.66" y2="117.95" xlink:href="#Áåçûìÿííûé_ãðàäèåíò_34"/><linearGradient id="Áåçûìÿííûé_ãðàäèåíò_34-3" x1="342.22" y1="35.33" x2="283.18" y2="-31.25" xlink:href="#Áåçûìÿííûé_ãðàäèåíò_34"/><linearGradient id="Áåçûìÿííûé_ãðàäèåíò_33-2" x1="149.15" y1="210.99" x2="320.43" y2="-76.76" xlink:href="#Áåçûìÿííûé_ãðàäèåíò_33"/><linearGradient id="Áåçûìÿííûé_ãðàäèåíò_18-10" x1="52.73" y1="42.91" x2="52.76" y2="42.92" xlink:href="#Áåçûìÿííûé_ãðàäèåíò_18"/><linearGradient id="Áåçûìÿííûé_ãðàäèåíò_18-11" x1="27.04" y1="-42.51" x2="495.77" y2="96.57" xlink:href="#Áåçûìÿííûé_ãðàäèåíò_18"/><linearGradient id="Áåçûìÿííûé_ãðàäèåíò_18-12" x1="57.77" y1="24.4" x2="153.82" y2="52.9" xlink:href="#Áåçûìÿííûé_ãðàäèåíò_18"/><linearGradient id="Áåçûìÿííûé_ãðàäèåíò_18-13" x1="255.17" y1="-5.01" x2="507.37" y2="69.82" xlink:href="#Áåçûìÿííûé_ãðàäèåíò_18"/><linearGradient id="Áåçûìÿííûé_ãðàäèåíò_18-14" x1="303.12" y1="26.17" x2="305.54" y2="34.89" xlink:href="#Áåçûìÿííûé_ãðàäèåíò_18"/><linearGradient id="Áåçûìÿííûé_ãðàäèåíò_18-15" x1="381.48" y1="31.87" x2="382.78" y2="36.55" xlink:href="#Áåçûìÿííûé_ãðàäèåíò_18"/><linearGradient id="Áåçûìÿííûé_ãðàäèåíò_33-3" x1="408.92" y1="26.51" x2="411.23" y2="34.87" xlink:href="#Áåçûìÿííûé_ãðàäèåíò_33"/><linearGradient id="Áåçûìÿííûé_ãðàäèåíò_18-16" x1="358.62" y1="31.43" x2="358.62" y2="31.45" xlink:href="#Áåçûìÿííûé_ãðàäèåíò_18"/><linearGradient id="Áåçûìÿííûé_ãðàäèåíò_18-17" x1="90.47" y1="18.8" x2="92.38" y2="25.68" xlink:href="#Áåçûìÿííûé_ãðàäèåíò_18"/><linearGradient id="Áåçûìÿííûé_ãðàäèåíò_18-18" x1="134.96" y1="13.7" x2="138.61" y2="26.87" xlink:href="#Áåçûìÿííûé_ãðàäèåíò_18"/><linearGradient id="Áåçûìÿííûé_ãðàäèåíò_18-19" x1="116.35" y1="25.56" x2="117.97" y2="31.39" xlink:href="#Áåçûìÿííûé_ãðàäèåíò_18"/><linearGradient id="Áåçûìÿííûé_ãðàäèåíò_18-20" x1="371.62" y1="12.05" x2="376.28" y2="28.88" xlink:href="#Áåçûìÿííûé_ãðàäèåíò_18"/><linearGradient id="Áåçûìÿííûé_ãðàäèåíò_479-2" x1="223.75" y1="43.92" x2="223.84" y2="43.84" xlink:href="#Áåçûìÿííûé_ãðàäèåíò_479"/><linearGradient id="Áåçûìÿííûé_ãðàäèåíò_33-4" x1="205.35" y1="111.06" x2="322.64" y2="66.97" xlink:href="#Áåçûìÿííûé_ãðàäèåíò_33"/><linearGradient id="Áåçûìÿííûé_ãðàäèåíò_18-21" x1="208.72" y1="113.92" x2="322.24" y2="71.24" xlink:href="#Áåçûìÿííûé_ãðàäèåíò_18"/><linearGradient id="Áåçûìÿííûé_ãðàäèåíò_19-7" x1="206.37" y1="110.68" x2="322.37" y2="67.07" xlink:href="#Áåçûìÿííûé_ãðàäèåíò_19"/><linearGradient id="Áåçûìÿííûé_ãðàäèåíò_33-5" x1="140.8" y1="65.06" x2="190.01" y2="46.56" xlink:href="#Áåçûìÿííûé_ãðàäèåíò_33"/><linearGradient id="Áåçûìÿííûé_ãðàäèåíò_18-22" x1="141.13" y1="65.94" x2="190.34" y2="47.44" xlink:href="#Áåçûìÿííûé_ãðàäèåíò_18"/><linearGradient id="Áåçûìÿííûé_ãðàäèåíò_19-8" x1="148.76" y1="65.61" x2="201.37" y2="45.84" xlink:href="#Áåçûìÿííûé_ãðàäèåíò_19"/><radialGradient id="Áåçûìÿííûé_ãðàäèåíò_218" cx="255.32" cy="38.46" r="28.06" gradientTransform="translate(0 68.9) scale(1 0.38)" gradientUnits="userSpaceOnUse"><stop offset="0" stop-color="#0300d2"/><stop offset="1"/></radialGradient><radialGradient id="Áåçûìÿííûé_ãðàäèåíò_218-2" cx="168" cy="-37.22" r="28.06" xlink:href="#Áåçûìÿííûé_ãðàäèåíò_218"/><linearGradient id="Áåçûìÿííûé_ãðàäèåíò_18-23" x1="143.94" y1="-7.12" x2="162.12" y2="16.23" xlink:href="#Áåçûìÿííûé_ãðàäèåíò_18"/></defs><g class="cls-3"><g id="Layer_1" data-name="Layer 1"><g id="footerImage"><polygon class="cls-4" points="48.65 5.12 63.25 24.63 369.75 28.34 370.02 17.93 323.53 15.34 333.26 7.9 48.65 5.12"/><polygon class="cls-5" points="415.17 31.19 414.98 34.84 413.57 62.48 380.87 63.72 365.61 64.3 372.4 67.62 359.34 80.97 338.25 85.73 297.57 81.53 302.72 89.7 250.46 86.83 248.59 83.53 248.48 83.35 248.32 83.35 248.31 83.35 209.68 84.86 135.65 71.86 137.62 68.38 90.91 63.84 135.65 29.68 283.32 29.68 300.09 29.87 300.43 29.87 350.09 30.44 350.17 30.44 362.26 30.58 366.36 30.63 376.21 30.74 383.81 30.82 415.17 31.19"/><polygon class="cls-6" points="381.9 30.84 381.83 33.22 381.82 33.38 380.87 63.72 365.61 64.3 361.33 64.49 341.34 56.3 336.77 54.43 281.24 42.98 286.56 64.17 286.56 64.17 286.89 65.54 287.78 69.06 276.79 70.42 241.75 68.5 231.37 67.92 231.35 67.92 231.35 67.92 223.93 74.27 219.88 74.16 229.08 58.63 228.69 56.13 222.74 39.12 203.15 48.65 201.37 53.86 205.23 61.35 192.75 63.96 164.95 64.3 156.23 64.3 137.62 68.38 90.91 63.84 174.18 29.68 174.65 29.48 190.83 29.59 199.17 29.64 199.18 29.64 203.76 29.68 228.69 29.84 254.35 30.01 254.35 30.01 350.12 30.63 350.17 30.63 362.26 30.71 366.35 30.74 376.19 30.81 381.9 30.84"/><polygon class="cls-7" points="193.84 60.21 164.95 64.3 131.89 64.09 129.5 64.08 90.91 63.84 32.71 28.92 94.21 29.13 109.55 29.19 121.89 29.24 154.62 29.35 190.82 29.48 190.83 29.59 190.84 29.68 193.84 60.21"/><polygon class="cls-8" points="228.69 29.61 228.69 56.13 201.37 53.86 199.18 29.68 199.18 29.64 199.16 29.5 228.69 29.61"/><polygon class="cls-9" points="210.67 70.42 219.87 74.16 229.08 58.63 201.76 54.31 210.67 70.42"/><polygon class="cls-10" points="231.36 67.92 263.43 64.3 270.25 33.79 232.54 30.16 231.36 67.92"/><polygon class="cls-11" points="302.72 89.7 250.46 86.83 262.53 86.05 263.3 86.01 263.69 85.98 264.45 85.93 269.46 85.61 302.72 89.7"/><polygon class="cls-12" points="362.27 30.09 362.26 30.58 362.26 30.71 361.33 64.49 332.65 65.78 291.57 67.64 286.89 65.54 283.62 64.07 283.62 64.07 283.62 64.07 276.19 32.09 254.35 30.01 254.35 30.01 251.05 29.69 300.09 29.87 300.43 29.87 350.06 30.05 350.18 30.05 362.27 30.09"/><polygon class="cls-13" points="441.69 29.83 413.57 62.48 380.87 63.72 365.61 64.3 376.19 30.81 376.21 30.74 376.5 29.8 433.52 29.82 441.69 29.83"/><polygon class="cls-14" points="283.62 64.07 332.61 65.77 291.57 67.64 283.62 64.07"/><polygon class="cls-15" points="441.69 29.83 413.57 62.48 380.87 63.72 365.61 64.3 372.4 67.62 359.34 80.97 338.25 85.73 297.57 81.53 302.72 89.7 250.46 86.83 248.59 83.53 209.68 84.86 235.8 75.48 241.75 68.5 241.75 68.49 231.37 67.92 263.42 64.3 287.78 69.06 286.89 65.54 291.57 67.64 332.65 65.78 335.29 62.94 341.34 56.3 351.31 45.36 350.12 30.63 350.09 30.44 350.06 30.05 350.18 30.05 362.27 30.09 362.26 30.58 366.36 30.63 376.21 30.74 376.5 29.8 433.52 29.82 441.69 29.83"/><polygon class="cls-16" points="302.72 89.7 269.46 85.61 276.79 70.42 287.78 69.06 286.89 65.54 291.57 67.64 297.57 81.53 302.72 89.7"/><polygon class="cls-17" points="366.36 30.63 366.35 30.74 361.33 64.49 361.41 45.36 351.31 45.36 350.17 30.63 350.17 30.44 350.13 30.05 350.18 30.05 362.27 30.09 362.26 30.58 366.36 30.63"/><polygon class="cls-18" points="205.23 61.35 193.84 60.21 190.84 29.68 190.83 29.59 190.82 29.48 199.16 29.5 199.18 29.64 199.18 29.68 201.37 53.86 205.23 61.35"/><polygon class="cls-19" points="210.67 70.42 221.36 71.4 219.87 74.16 210.67 70.42"/><polygon class="cls-20" points="248.59 83.53 209.68 84.86 235.8 75.48 248.31 83.35 248.59 83.53"/><polygon class="cls-21" points="250.36 86.41 248.59 83.52 272.93 70.42 276.79 70.42 269.46 85.61 250.36 86.41"/><polygon class="cls-22" points="359.34 80.97 338.25 85.73 297.57 81.53 330.83 78.51 340.73 80.47 359.34 80.97"/><polygon class="cls-23" points="372.4 67.62 338.95 67.39 332.65 65.78 361.33 64.49 365.61 64.3 372.4 67.62"/><path class="cls-24" d="M372.4,67.62,359.34,81l-21.09,4.76-40.68-4.2,33.26-3c.18-.48,6.7-9.22,7.92-10.85l.2-.27Z"/><polygon class="cls-25" points="340.73 80.47 338.94 67.39 330.83 78.51 340.73 80.47"/><polygon class="cls-26" points="302.72 89.7 250.46 86.83 262.53 86.05 263.3 86.01 263.69 85.98 264.45 85.93 269.46 85.61 302.72 89.7"/><g class="cls-27"><polygon class="cls-28" points="131.89 64.09 132.08 64.75 129.71 64.44 129.5 64.08 129.47 64.03 131.88 64.05 131.89 64.09"/></g><polygon class="cls-29" points="441.69 29.83 413.57 62.48 397.94 59.31 405.95 36.17 381.82 33.38 379.52 33.11 381.83 33.22 381.83 33.22 414.97 34.84 414.98 34.84 423.77 35.27 433.52 29.82 441.69 29.83"/><polygon class="cls-30" points="441.69 29.83 413.57 62.48 380.87 63.72 365.61 64.3 372.4 67.62 359.34 80.97 338.25 85.73 297.57 81.53 302.72 89.7 250.46 86.83 248.59 83.53 209.68 84.86 135.65 71.86 137.62 68.38 90.91 63.84 32.71 28.92 94.21 29.13 109.55 29.19 121.89 29.24 154.62 29.35 190.82 29.48 199.16 29.5 228.69 29.61 228.69 29.68 283.32 29.68 300.09 29.87 300.43 29.87 350.06 30.05 350.18 30.05 362.27 30.09 362.26 30.58 366.36 30.63 376.21 30.74 376.5 29.8 433.52 29.82 441.69 29.83"/><polygon class="cls-31" points="60.67 38.26 93.13 51.46 155.93 44.45 192.62 47.15 194.38 60.22 204.61 61.7 201.44 53.88 201.09 47.96 227.9 51.33 229.31 58.6 231.78 49.71 266.7 47.96 279.4 49.3 342.56 54.56 332.68 65.47 360.9 64.66 369.37 42.97 372.19 43.38 365.13 64.66 413.82 62.1 444.86 27.61 60.67 38.26"/><polygon class="cls-32" points="111.2 8.85 110.56 18.61 244.78 25.2 245.7 23.77 254.37 10.31 262.03 10.8 242.01 23.63 318.13 22.33 334.08 7.51 111.2 8.85"/><path class="cls-33" d="M47.57,5.26,90.91,0,334.08,7.51s-46.52,7.13-130,7.13A1379.29,1379.29,0,0,1,47.57,5.26Z"/><path class="cls-34" d="M525.44,30.41l-2.29.08h0c-15.47.55-106.63,3.75-195.8,6.75L278,38.88h-.37c-22.47.74-43.79,1.43-62.57,2l-55.28-2.77-9.92-.5c-.76.08-7.57-.3-14.91-.74h-.09l-2.82-.14-11.81,1-11.81-2.43c-11-2.25-23.63-4.81-36.28-7.36C36.66,20.82.91,13.7,0,13.52H0c64.5-5.64,250.56,6,250.56,6l177.61.75Z"/><polygon class="cls-35" points="282.8 17.08 316.11 12.3 363.68 15.11 370.02 17.93 302.63 19.62 282.8 17.08"/><path class="cls-36" d="M523.33,30.41h0l-.18.08-19.91,8.93L298.9,43.63l-14.52.3-10-.06h0l-3.8-.19-.25.17.25-.17L215.1,40.91l-55.28-2.77-9.92-.5c-.76.08-7.57-.3-14.91-.74h-.09l-2.82-.14-11.81,1L63.7,42.7h0L27.48,31.16,0,13.52H0l60.53,6.1,3.39.23h0l25.74,1.76,9,.62,1.32.08,17.43,1.2,46.38,3.16,119.49,8.15h1.09L343,33.73l1.85,0,42.51-.78,42-.77Z"/><polygon class="cls-37" points="52.73 42.91 52.74 42.91 52.76 42.92 52.73 42.92 52.73 42.91"/><path class="cls-38" d="M523.33,30.41l-.18.08h0l-19.91,8.93L298.9,43.63l-14.52.3-10.06-.06-3.8-.19-.25.17.25-.17L215.1,40.91l-55.28-2.77-9.92-.5c-.76.08-7.57-.3-14.91-.74h-.09l-2.82-.14-11.81,1L63.7,42.7,78,33.7,72.18,28l-8.26-8.14h0l25.74,1.76,9,.62,1.32.08,17.43,1.2,46.38,3.16,119.49,8.15h1.09L343,33.73l1.85,0,39-.71,3.49-.07,10.54-.19h0l31.43-.58,94-1.73Z"/><path class="cls-39" d="M159.82,38.14l-9.92-.5c-.76.08-7.57-.3-14.91-.74h-.09l-2.82-.14-11.81,1L63.7,42.7h0L78,33.7l30.49,1.65,7.31.4,7,.37H123l27,1.47Z"/><polygon class="cls-40" points="523.33 30.41 523.33 30.41 523.32 30.41 523.14 30.49 503.23 39.42 298.9 43.63 284.38 43.93 274.32 43.87 270.52 43.68 278.04 38.88 284.42 34.8 342.97 33.73 344.82 33.69 387.33 32.91 429.31 32.14 523.33 30.41"/><polygon class="cls-41" points="342.97 33.73 327.34 37.24 298.9 43.63 284.38 43.93 274.32 43.87 270.52 43.68 270.27 43.85 270.52 43.68 277.67 38.89 283.76 34.82 284.42 34.8 342.97 33.73"/><path class="cls-42" d="M387.34,32.91c-.21,2.47-1.66,5.63-6.17,9l-2.45,0c3.6-2.76,5.84-5.83,5.12-9Z"/><path class="cls-43" d="M429.31,32.14c-2.51,2.46-5.84,5.91-8.76,9h0l-26.26.54,3.59-8.94h0Z"/><path class="cls-44" d="M358.69,31.45h-.13C358.63,31.43,358.67,31.43,358.69,31.45Z"/><path class="cls-45" d="M100,22.31c-4.15,4-11.92,11.44-12.37,11.84-.61.54-1.53,0-1.53,0l3.55-12.54Z"/><path class="cls-46" d="M163.84,26.67c-5.27,4.26-13.6,10.54-13.85,10.94h0s0,0-.08,0c-.76.08-7.57-.3-14.91-.74h-.09c-4.14-.25-8.43-.52-11.9-.75l-.28,0-6.94-.45h0l0-.36,1-7,.68-4.79Z"/><polygon class="cls-47" points="115.76 35.99 116.37 27.75 122.78 36.21 115.76 35.99"/><polygon class="cls-48" points="397.88 32.72 344.08 26.01 408.69 32.52 394.28 41.66 397.88 32.72"/><polygon class="cls-49" points="223.99 43.73 223.78 43.86 223.98 43.72 223.99 43.73"/><polygon class="cls-50" points="302.72 89.7 250.73 87.7 248.59 83.53 272.21 70.81 272.92 70.42 276.79 70.42 287.43 68.57 287.78 66.55 291.57 67.64 297.57 81.53 302.72 89.7"/><polygon class="cls-51" points="250.73 87.7 271.55 84.47 301.53 89.45 250.73 87.7"/><polygon class="cls-52" points="302.72 89.7 250.73 87.7 271.55 84.47 272.21 70.81 272.92 70.42 276.79 70.42 287.43 68.57 287.78 66.55 291.57 67.64 297.57 81.53 302.72 89.7"/><polygon class="cls-53" points="181.82 56.53 172.65 59.41 160.66 58.06 159.24 51.24 169.35 49.44 181.82 56.53"/><polygon class="cls-54" points="181.82 56.53 172.65 59.41 160.66 58.06 169.59 57.07 169.35 49.44 181.82 56.53"/><polygon class="cls-55" points="172.65 59.41 169.59 57.07 169.35 49.44 178.29 54.56 192.64 56.58 188.17 59.23 172.65 59.41"/><polygon class="cls-56" points="249.09 85.19 256.85 86.8 250.73 87.7 249.09 85.19"/><polygon class="cls-56" points="160.59 57.12 169.59 57.07 160.66 58.06 160.59 57.12"/><ellipse class="cls-57" cx="255.32" cy="83.58" rx="28.06" ry="10.71"/><ellipse class="cls-58" cx="168" cy="54.68" rx="28.06" ry="10.71"/><path class="cls-59" d="M98,.14c14.2,1.29,79.53,14,79.53,14s36.79,1.79,35.51,1.3S101.43.31,101.43.31Z"/></g></g></g></svg>